{"glyphs":{"0":{"ha":785,"x_min":99,"x_max":686,"o":"m 390 -14 q 178 63 257 -14 q 99 267 99 139 l 99 706 q 178 909 99 833 q 390 985 257 985 q 606 908 525 985 q 686 706 686 832 l 686 267 q 606 63 686 139 q 390 -14 525 -14 m 390 72 q 533 124 479 72 q 588 261 588 175 l 588 710 q 534 846 588 794 q 390 897 481 897 q 250 846 303 897 q 197 710 197 794 l 197 261 q 250 124 197 175 q 390 72 303 72 z "},"1":{"ha":486,"x_min":81,"x_max":357,"o":"m 250 968 q 268 972 258 972 l 343 972 q 357 958 357 972 l 357 14 q 343 0 357 0 l 272 0 q 258 14 258 0 l 258 860 q 256 864 258 863 q 251 864 254 865 l 104 804 l 99 803 q 88 814 90 803 l 81 867 l 81 869 q 90 883 81 876 l 250 968 z "},"2":{"ha":744,"x_min":79,"x_max":664,"o":"m 211 93 q 214 86 207 86 l 650 86 q 664 72 664 86 l 664 14 q 650 0 664 0 l 96 0 q 82 14 82 0 l 82 72 q 89 89 82 82 q 301 350 136 144 l 404 478 q 535 735 535 643 q 485 853 535 808 q 354 897 435 897 q 226 852 275 897 q 179 733 178 807 l 179 690 q 165 676 179 676 l 93 676 q 79 690 79 676 l 79 746 q 159 918 82 853 q 354 983 236 983 q 501 951 438 983 q 600 863 565 919 q 635 736 635 807 q 504 451 635 618 q 242 129 436 364 l 211 93 z "},"3":{"ha":715,"x_min":69,"x_max":625,"o":"m 597 460 q 625 297 625 392 q 604 163 625 221 q 510 34 576 79 q 347 -11 444 -11 q 181 40 250 -11 q 85 176 111 90 q 69 282 72 215 q 83 296 69 296 l 154 296 q 168 282 168 296 q 178 207 171 242 q 237 110 193 146 q 346 75 281 75 q 508 186 471 75 q 525 300 525 232 q 503 436 525 383 q 346 536 458 536 q 294 521 325 536 q 286 518 289 518 q 276 525 281 518 l 240 574 q 242 593 233 585 l 486 879 q 483 886 490 886 l 92 886 q 78 900 78 886 l 78 958 q 92 972 78 972 l 606 972 q 619 958 619 972 l 619 890 q 613 874 619 883 l 390 607 q 389 602 388 604 q 394 600 390 600 q 597 460 543 590 z "},"4":{"ha":765,"x_min":68,"x_max":681,"o":"m 667 357 q 681 343 681 357 l 681 282 q 667 268 681 268 l 607 268 q 601 263 601 268 l 601 14 q 588 0 601 0 l 517 0 q 503 14 503 0 l 503 263 q 497 268 503 268 l 82 268 q 68 282 68 268 l 68 333 q 72 350 68 340 l 357 963 q 372 972 361 972 l 446 972 q 456 967 453 972 q 457 956 460 963 l 181 364 q 181 359 179 361 q 185 357 182 357 l 497 357 q 503 363 503 357 l 503 586 q 517 600 503 600 l 588 600 q 601 586 601 600 l 601 363 q 607 357 601 357 l 667 357 z "},"5":{"ha":714,"x_min":92,"x_max":644,"o":"m 632 425 q 644 300 644 364 q 632 183 644 232 q 538 42 608 94 q 367 -10 467 -10 q 199 40 268 -10 q 104 174 129 90 q 92 235 94 204 l 92 238 q 104 249 92 249 l 178 249 q 193 235 192 249 q 199 207 193 226 q 256 112 213 147 q 365 76 300 76 q 477 114 432 76 q 536 217 522 151 q 544 300 544 249 q 538 390 544 347 q 482 488 528 454 q 368 521 436 521 q 258 493 307 521 q 196 419 210 465 q 181 407 192 407 l 106 407 q 92 421 92 407 l 92 958 q 106 972 92 972 l 592 972 q 606 958 606 972 l 606 900 q 592 886 606 886 l 196 886 q 190 881 190 886 l 189 544 q 191 540 189 542 q 196 542 193 539 q 278 591 231 574 q 378 608 325 608 q 544 560 476 608 q 632 425 613 513 z "},"6":{"ha":715,"x_min":90,"x_max":646,"o":"m 617 457 q 646 299 646 394 q 624 160 646 213 q 531 35 594 79 q 371 -10 467 -10 q 203 38 271 -10 q 107 171 135 85 q 90 301 90 226 l 90 735 q 165 916 90 849 q 361 983 240 983 q 551 918 479 983 q 624 746 624 853 l 624 726 q 610 713 624 713 l 539 713 q 525 726 525 713 l 525 738 q 479 853 525 808 q 361 897 433 897 q 238 851 286 897 q 189 728 189 804 l 189 524 q 192 520 189 521 q 196 522 194 519 q 381 606 257 606 q 527 567 468 606 q 617 457 586 528 m 531 193 q 547 299 547 236 q 528 410 547 371 q 469 490 511 461 q 367 519 428 519 q 264 490 306 519 q 206 407 222 460 q 189 294 189 364 q 203 193 189 233 q 262 108 219 140 q 368 76 304 76 q 471 106 428 76 q 531 193 514 136 z "},"7":{"ha":657,"x_min":50,"x_max":626,"o":"m 210 0 q 199 5 203 0 q 199 17 196 10 l 519 879 q 519 884 521 882 q 515 886 518 886 l 140 886 q 135 881 135 886 l 135 817 q 121 803 135 803 l 64 803 q 50 817 50 803 l 51 958 q 65 972 51 972 l 613 972 q 626 958 626 972 l 626 894 q 624 878 626 889 l 304 11 q 288 0 300 0 l 210 0 z "},"8":{"ha":724,"x_min":82,"x_max":639,"o":"m 613 408 q 639 272 639 351 q 599 110 639 176 q 504 21 565 53 q 363 -11 443 -11 q 217 22 279 -11 q 121 117 154 54 q 82 274 82 186 q 111 413 82 347 q 213 517 143 482 q 213 524 219 519 q 138 594 167 550 q 96 731 96 654 q 138 872 96 808 q 230 956 171 926 q 363 986 289 986 q 496 956 439 986 q 586 872 553 926 q 626 731 626 807 q 585 592 626 654 q 511 524 560 554 q 511 517 504 519 q 613 408 582 482 m 215 813 q 193 731 193 771 q 222 629 193 672 q 280 576 244 594 q 361 558 315 558 q 443 577 407 558 q 501 631 479 596 q 528 732 528 668 q 507 815 528 778 q 449 877 486 854 q 360 900 411 900 q 274 876 311 900 q 215 813 236 853 m 506 147 q 540 279 540 200 q 518 392 540 344 q 361 483 476 483 q 208 397 251 483 q 183 278 183 353 q 214 151 183 200 q 363 75 261 75 q 506 147 461 75 z "},"9":{"ha":724,"x_min":79,"x_max":633,"o":"m 617 801 q 633 671 633 746 l 633 238 q 558 56 633 124 q 363 -11 483 -11 q 173 55 246 -11 q 100 226 100 121 l 100 246 q 114 260 100 260 l 185 260 q 199 246 199 260 l 199 235 q 244 119 199 164 q 363 75 290 75 q 486 122 438 75 q 535 244 535 168 l 535 447 q 532 451 535 450 q 528 449 529 451 q 344 367 467 367 q 198 406 257 367 q 108 515 139 444 q 79 674 79 574 q 100 813 79 758 q 194 938 129 893 q 353 982 258 982 q 522 934 453 982 q 617 801 590 886 m 357 453 q 460 483 418 453 q 519 565 503 513 q 535 678 535 606 q 522 779 535 738 q 463 864 506 832 q 357 896 419 896 q 254 866 297 896 q 193 779 211 836 q 178 674 178 740 q 196 563 178 603 q 254 483 213 513 q 357 453 296 453 z "},"\u0000":{"ha":0,"x_min":0,"x_max":0,"o":""},"\r":{"ha":278,"x_min":0,"x_max":0,"o":""}," ":{"ha":278,"x_min":0,"x_max":0,"o":""},"A":{"ha":843,"x_min":46,"x_max":794,"o":"m 707 0 q 690 11 694 0 l 635 186 q 629 190 633 190 l 214 190 q 208 186 210 190 l 153 11 q 136 0 149 0 l 61 0 q 50 15 46 0 l 357 961 q 374 972 361 972 l 468 972 q 485 961 481 972 l 793 15 l 794 10 q 782 0 794 0 l 707 0 m 236 278 q 237 273 235 275 q 242 271 239 271 l 600 271 q 605 273 603 271 q 606 278 607 275 l 425 844 q 421 847 424 847 q 417 844 418 847 l 236 278 z "},"Á":{"ha":843,"x_min":46,"x_max":794,"o":"m 707 0 q 690 11 694 0 l 635 186 q 629 190 633 190 l 214 190 q 208 186 210 190 l 153 11 q 136 0 149 0 l 61 0 q 50 15 46 0 l 357 961 q 374 972 361 972 l 468 972 q 485 961 481 972 l 793 15 l 794 10 q 782 0 794 0 l 707 0 m 236 278 q 237 273 235 275 q 242 271 239 271 l 600 271 q 605 273 603 271 q 606 278 607 275 l 425 844 q 421 847 424 847 q 417 844 418 847 l 236 278 m 374 1064 q 363 1069 365 1064 q 364 1081 360 1074 l 447 1232 q 464 1242 451 1242 l 526 1242 q 537 1237 535 1242 q 535 1225 539 1232 l 440 1074 q 424 1064 433 1064 l 374 1064 z "},"Ă":{"ha":843,"x_min":46,"x_max":794,"o":"m 707 0 q 690 11 694 0 l 635 186 q 629 190 633 190 l 214 190 q 208 186 210 190 l 153 11 q 136 0 149 0 l 61 0 q 50 15 46 0 l 357 961 q 374 972 361 972 l 468 972 q 485 961 481 972 l 793 15 l 794 10 q 782 0 794 0 l 707 0 m 236 278 q 237 273 235 275 q 242 271 239 271 l 600 271 q 605 273 603 271 q 606 278 607 275 l 425 844 q 421 847 424 847 q 417 844 418 847 l 236 278 m 419 1050 q 303 1090 351 1050 q 249 1190 256 1129 q 263 1204 249 1204 l 304 1204 q 319 1190 318 1204 q 352 1131 324 1154 q 419 1108 381 1108 q 488 1131 460 1108 q 521 1190 517 1154 q 536 1204 522 1204 l 578 1204 q 592 1192 592 1204 q 538 1090 586 1131 q 419 1050 489 1050 z "},"Ắ":{"ha":843,"x_min":46,"x_max":794,"o":"m 707 0 q 690 11 694 0 l 635 186 q 629 190 633 190 l 214 190 q 208 186 210 190 l 153 11 q 136 0 149 0 l 61 0 q 50 15 46 0 l 357 961 q 374 972 361 972 l 468 972 q 485 961 481 972 l 793 15 l 794 10 q 782 0 794 0 l 707 0 m 236 278 q 237 273 235 275 q 242 271 239 271 l 600 271 q 605 273 603 271 q 606 278 607 275 l 425 844 q 421 847 424 847 q 417 844 418 847 l 236 278 z "},"Ặ":{"ha":843,"x_min":46,"x_max":794,"o":"m 707 0 q 690 11 694 0 l 635 186 q 629 190 633 190 l 214 190 q 208 186 210 190 l 153 11 q 136 0 149 0 l 61 0 q 50 15 46 0 l 357 961 q 374 972 361 972 l 468 972 q 485 961 481 972 l 793 15 l 794 10 q 782 0 794 0 l 707 0 m 236 278 q 237 273 235 275 q 242 271 239 271 l 600 271 q 605 273 603 271 q 606 278 607 275 l 425 844 q 421 847 424 847 q 417 844 418 847 l 236 278 m 422 -256 q 369 -235 390 -256 q 349 -182 349 -214 q 369 -129 349 -150 q 422 -108 390 -108 q 475 -129 454 -108 q 496 -182 496 -150 q 474 -235 496 -214 q 422 -256 453 -256 m 418 1078 q 303 1117 350 1078 q 249 1215 256 1157 l 249 1218 q 261 1229 249 1229 l 299 1229 q 314 1215 313 1229 q 349 1157 319 1181 q 418 1133 378 1133 q 490 1156 460 1133 q 524 1215 519 1179 q 539 1229 525 1229 l 576 1229 q 590 1217 590 1229 q 536 1117 585 1157 q 418 1078 488 1078 z "},"Ằ":{"ha":843,"x_min":46,"x_max":794,"o":"m 707 0 q 690 11 694 0 l 635 186 q 629 190 633 190 l 214 190 q 208 186 210 190 l 153 11 q 136 0 149 0 l 61 0 q 50 15 46 0 l 357 961 q 374 972 361 972 l 468 972 q 485 961 481 972 l 793 15 l 794 10 q 782 0 794 0 l 707 0 m 236 278 q 237 273 235 275 q 242 271 239 271 l 600 271 q 605 273 603 271 q 606 278 607 275 l 425 844 q 421 847 424 847 q 417 844 418 847 l 236 278 z "},"Ẳ":{"ha":843,"x_min":46,"x_max":794,"o":"m 707 0 q 690 11 694 0 l 635 186 q 629 190 633 190 l 214 190 q 208 186 210 190 l 153 11 q 136 0 149 0 l 61 0 q 50 15 46 0 l 357 961 q 374 972 361 972 l 468 972 q 485 961 481 972 l 793 15 l 794 10 q 782 0 794 0 l 707 0 m 236 278 q 237 273 235 275 q 242 271 239 271 l 600 271 q 605 273 603 271 q 606 278 607 275 l 425 844 q 421 847 424 847 q 417 844 418 847 l 236 278 z "},"Ẵ":{"ha":843,"x_min":46,"x_max":794,"o":"m 707 0 q 690 11 694 0 l 635 186 q 629 190 633 190 l 214 190 q 208 186 210 190 l 153 11 q 136 0 149 0 l 61 0 q 50 15 46 0 l 357 961 q 374 972 361 972 l 468 972 q 485 961 481 972 l 793 15 l 794 10 q 782 0 794 0 l 707 0 m 236 278 q 237 273 235 275 q 242 271 239 271 l 600 271 q 605 273 603 271 q 606 278 607 275 l 425 844 q 421 847 424 847 q 417 844 418 847 l 236 278 m 507 1281 q 425 1308 467 1281 q 388 1329 400 1324 q 360 1335 375 1335 q 319 1327 336 1335 q 288 1301 303 1319 q 268 1299 279 1289 l 244 1321 q 242 1340 235 1331 q 356 1406 282 1406 q 392 1399 376 1406 q 422 1385 408 1393 q 440 1375 435 1378 q 459 1365 444 1372 q 485 1353 474 1357 q 507 1349 497 1349 q 544 1357 528 1349 q 576 1386 561 1365 q 596 1388 586 1397 l 618 1367 q 619 1346 628 1357 q 571 1297 601 1314 q 507 1281 540 1281 m 419 1078 q 303 1117 351 1078 q 250 1215 256 1157 l 250 1218 q 263 1229 250 1229 l 300 1229 q 315 1215 314 1229 q 350 1157 321 1181 q 419 1133 379 1133 q 490 1156 460 1133 q 525 1215 519 1179 q 540 1229 526 1229 l 578 1229 q 592 1217 592 1229 q 538 1117 586 1157 q 419 1078 489 1078 z "},"Ǎ":{"ha":843,"x_min":46,"x_max":794,"o":"m 707 0 q 690 11 694 0 l 635 186 q 629 190 633 190 l 214 190 q 208 186 210 190 l 153 11 q 136 0 149 0 l 61 0 q 50 15 46 0 l 357 961 q 374 972 361 972 l 468 972 q 485 961 481 972 l 793 15 l 794 10 q 782 0 794 0 l 707 0 m 236 278 q 237 273 235 275 q 242 271 239 271 l 600 271 q 605 273 603 271 q 606 278 607 275 l 425 844 q 421 847 424 847 q 417 844 418 847 l 236 278 z "},"Â":{"ha":843,"x_min":46,"x_max":794,"o":"m 707 0 q 690 11 694 0 l 635 186 q 629 190 633 190 l 214 190 q 208 186 210 190 l 153 11 q 136 0 149 0 l 61 0 q 50 15 46 0 l 357 961 q 374 972 361 972 l 468 972 q 485 961 481 972 l 793 15 l 794 10 q 782 0 794 0 l 707 0 m 236 278 q 237 273 235 275 q 242 271 239 271 l 600 271 q 605 273 603 271 q 606 278 607 275 l 425 844 q 421 847 424 847 q 417 844 418 847 l 236 278 m 257 1067 q 246 1072 249 1067 q 249 1083 243 1076 l 360 1233 q 378 1242 365 1242 l 458 1242 q 476 1233 471 1242 l 589 1083 q 592 1075 592 1081 q 589 1069 592 1072 q 581 1067 586 1067 l 525 1067 q 507 1075 513 1067 l 424 1189 q 419 1192 422 1192 q 415 1189 417 1192 l 331 1075 q 313 1067 325 1067 l 257 1067 z "},"Ấ":{"ha":843,"x_min":46,"x_max":794,"o":"m 707 0 q 690 11 694 0 l 635 186 q 629 190 633 190 l 214 190 q 208 186 210 190 l 153 11 q 136 0 149 0 l 61 0 q 50 15 46 0 l 357 961 q 374 972 361 972 l 468 972 q 485 961 481 972 l 793 15 l 794 10 q 782 0 794 0 l 707 0 m 236 278 q 237 273 235 275 q 242 271 239 271 l 600 271 q 605 273 603 271 q 606 278 607 275 l 425 844 q 421 847 424 847 q 417 844 418 847 l 236 278 z "},"Ậ":{"ha":843,"x_min":46,"x_max":794,"o":"m 707 0 q 690 11 694 0 l 635 186 q 629 190 633 190 l 214 190 q 208 186 210 190 l 153 11 q 136 0 149 0 l 61 0 q 50 15 46 0 l 357 961 q 374 972 361 972 l 468 972 q 485 961 481 972 l 793 15 l 794 10 q 782 0 794 0 l 707 0 m 236 278 q 237 273 235 275 q 242 271 239 271 l 600 271 q 605 273 603 271 q 606 278 607 275 l 425 844 q 421 847 424 847 q 417 844 418 847 l 236 278 m 422 -256 q 369 -235 390 -256 q 349 -182 349 -214 q 369 -129 349 -150 q 422 -108 390 -108 q 475 -129 454 -108 q 496 -182 496 -150 q 474 -235 496 -214 q 422 -256 453 -256 m 257 1067 q 246 1072 249 1067 q 249 1083 243 1076 l 360 1233 q 378 1242 365 1242 l 458 1242 q 476 1233 471 1242 l 589 1083 q 592 1075 592 1081 q 589 1069 592 1072 q 581 1067 586 1067 l 525 1067 q 507 1075 513 1067 l 424 1189 q 419 1192 422 1192 q 415 1189 417 1192 l 331 1075 q 313 1067 325 1067 l 257 1067 z "},"Ầ":{"ha":843,"x_min":46,"x_max":794,"o":"m 707 0 q 690 11 694 0 l 635 186 q 629 190 633 190 l 214 190 q 208 186 210 190 l 153 11 q 136 0 149 0 l 61 0 q 50 15 46 0 l 357 961 q 374 972 361 972 l 468 972 q 485 961 481 972 l 793 15 l 794 10 q 782 0 794 0 l 707 0 m 236 278 q 237 273 235 275 q 242 271 239 271 l 600 271 q 605 273 603 271 q 606 278 607 275 l 425 844 q 421 847 424 847 q 417 844 418 847 l 236 278 z "},"Ẩ":{"ha":843,"x_min":46,"x_max":794,"o":"m 707 0 q 690 11 694 0 l 635 186 q 629 190 633 190 l 214 190 q 208 186 210 190 l 153 11 q 136 0 149 0 l 61 0 q 50 15 46 0 l 357 961 q 374 972 361 972 l 468 972 q 485 961 481 972 l 793 15 l 794 10 q 782 0 794 0 l 707 0 m 236 278 q 237 273 235 275 q 242 271 239 271 l 600 271 q 605 273 603 271 q 606 278 607 275 l 425 844 q 421 847 424 847 q 417 844 418 847 l 236 278 z "},"Ẫ":{"ha":843,"x_min":46,"x_max":794,"o":"m 707 0 q 690 11 694 0 l 635 186 q 629 190 633 190 l 214 190 q 208 186 210 190 l 153 11 q 136 0 149 0 l 61 0 q 50 15 46 0 l 357 961 q 374 972 361 972 l 468 972 q 485 961 481 972 l 793 15 l 794 10 q 782 0 794 0 l 707 0 m 236 278 q 237 273 235 275 q 242 271 239 271 l 600 271 q 605 273 603 271 q 606 278 607 275 l 425 844 q 421 847 424 847 q 417 844 418 847 l 236 278 z "},"Ä":{"ha":843,"x_min":46,"x_max":794,"o":"m 707 0 q 690 11 694 0 l 635 186 q 629 190 633 190 l 214 190 q 208 186 210 190 l 153 11 q 136 0 149 0 l 61 0 q 50 15 46 0 l 357 961 q 374 972 361 972 l 468 972 q 485 961 481 972 l 793 15 l 794 10 q 782 0 794 0 l 707 0 m 236 278 q 237 273 235 275 q 242 271 239 271 l 600 271 q 605 273 603 271 q 606 278 607 275 l 425 844 q 421 847 424 847 q 417 844 418 847 l 236 278 z "},"Ạ":{"ha":843,"x_min":46,"x_max":794,"o":"m 707 0 q 690 11 694 0 l 635 186 q 629 190 633 190 l 214 190 q 208 186 210 190 l 153 11 q 136 0 149 0 l 61 0 q 50 15 46 0 l 357 961 q 374 972 361 972 l 468 972 q 485 961 481 972 l 793 15 l 794 10 q 782 0 794 0 l 707 0 m 236 278 q 237 273 235 275 q 242 271 239 271 l 600 271 q 605 273 603 271 q 606 278 607 275 l 425 844 q 421 847 424 847 q 417 844 418 847 l 236 278 m 422 -256 q 369 -235 390 -256 q 349 -182 349 -214 q 369 -129 349 -150 q 422 -108 390 -108 q 475 -129 454 -108 q 496 -182 496 -150 q 474 -235 496 -214 q 422 -256 453 -256 z "},"À":{"ha":843,"x_min":46,"x_max":794,"o":"m 707 0 q 690 11 694 0 l 635 186 q 629 190 633 190 l 214 190 q 208 186 210 190 l 153 11 q 136 0 149 0 l 61 0 q 50 15 46 0 l 357 961 q 374 972 361 972 l 468 972 q 485 961 481 972 l 793 15 l 794 10 q 782 0 794 0 l 707 0 m 236 278 q 237 273 235 275 q 242 271 239 271 l 600 271 q 605 273 603 271 q 606 278 607 275 l 425 844 q 421 847 424 847 q 417 844 418 847 l 236 278 m 457 1081 q 460 1072 460 1075 q 447 1064 460 1064 l 397 1064 q 381 1074 388 1064 l 286 1225 q 283 1233 283 1231 q 294 1242 283 1242 l 357 1242 q 374 1232 369 1242 l 457 1081 z "},"Ả":{"ha":843,"x_min":46,"x_max":794,"o":"m 707 0 q 690 11 694 0 l 635 186 q 629 190 633 190 l 214 190 q 208 186 210 190 l 153 11 q 136 0 149 0 l 61 0 q 50 15 46 0 l 357 961 q 374 972 361 972 l 468 972 q 485 961 481 972 l 793 15 l 794 10 q 782 0 794 0 l 707 0 m 236 278 q 237 273 235 275 q 242 271 239 271 l 600 271 q 605 273 603 271 q 606 278 607 275 l 425 844 q 421 847 424 847 q 417 844 418 847 l 236 278 m 410 1039 q 400 1045 403 1040 q 400 1056 397 1050 q 422 1093 410 1076 q 447 1122 435 1110 q 474 1153 465 1139 q 482 1188 482 1167 q 465 1222 482 1207 q 424 1238 447 1238 q 384 1226 400 1238 q 349 1188 368 1215 q 329 1185 340 1176 l 307 1199 q 303 1218 296 1207 q 356 1276 329 1258 q 426 1293 382 1293 q 510 1264 478 1293 q 543 1188 543 1235 q 531 1137 543 1157 q 492 1089 518 1117 q 453 1042 463 1063 q 435 1033 447 1032 l 410 1039 z "},"Ā":{"ha":843,"x_min":46,"x_max":794,"o":"m 707 0 q 690 11 694 0 l 635 186 q 629 190 633 190 l 214 190 q 208 186 210 190 l 153 11 q 136 0 149 0 l 61 0 q 50 15 46 0 l 357 961 q 374 972 361 972 l 468 972 q 485 961 481 972 l 793 15 l 794 10 q 782 0 794 0 l 707 0 m 236 278 q 237 273 235 275 q 242 271 239 271 l 600 271 q 605 273 603 271 q 606 278 607 275 l 425 844 q 421 847 424 847 q 417 844 418 847 l 236 278 m 247 1094 q 233 1108 233 1094 l 233 1151 q 247 1165 233 1165 l 593 1165 q 607 1151 607 1165 l 607 1108 q 593 1094 607 1094 l 247 1094 z "},"Ą":{"ha":843,"x_min":46,"x_max":826,"o":"m 707 0 q 690 11 694 0 l 635 186 q 629 190 633 190 l 214 190 q 208 186 210 190 l 153 11 q 136 0 149 0 l 61 0 q 50 15 46 0 l 357 961 q 374 972 361 972 l 468 972 q 485 961 481 972 l 793 15 l 794 10 q 782 0 794 0 l 707 0 m 236 278 q 237 273 235 275 q 242 271 239 271 l 600 271 q 605 273 603 271 q 606 278 607 275 l 425 844 q 421 847 424 847 q 417 844 418 847 l 236 278 m 826 -239 q 817 -251 826 -247 q 760 -258 789 -258 q 683 -239 715 -258 q 639 -175 650 -219 q 635 -143 635 -161 q 717 -6 635 -71 q 735 0 724 0 l 772 0 q 783 -7 783 0 q 778 -17 783 -12 q 707 -131 707 -76 q 708 -147 707 -142 q 731 -185 714 -172 q 775 -197 749 -197 q 806 -193 789 -197 l 810 -192 q 822 -204 819 -192 l 826 -235 l 826 -239 z "},"Å":{"ha":843,"x_min":46,"x_max":794,"o":"m 707 0 q 690 11 694 0 l 635 186 q 629 190 633 190 l 214 190 q 208 186 210 190 l 153 11 q 136 0 149 0 l 61 0 q 50 15 46 0 l 357 961 q 374 972 361 972 l 468 972 q 485 961 481 972 l 793 15 l 794 10 q 782 0 794 0 l 707 0 m 236 278 q 237 273 235 275 q 242 271 239 271 l 600 271 q 605 273 603 271 q 606 278 607 275 l 425 844 q 421 847 424 847 q 417 844 418 847 l 236 278 m 421 1074 q 312 1117 356 1074 q 268 1224 268 1160 q 313 1330 268 1286 q 421 1374 357 1374 q 528 1330 485 1374 q 572 1224 572 1286 q 528 1117 572 1160 q 421 1074 485 1074 m 421 1133 q 485 1159 458 1133 q 513 1224 513 1185 q 485 1289 513 1263 q 421 1315 458 1315 q 355 1289 382 1315 q 328 1224 328 1263 q 355 1159 328 1185 q 421 1133 382 1133 z "},"Ã":{"ha":843,"x_min":46,"x_max":794,"o":"m 707 0 q 690 11 694 0 l 635 186 q 629 190 633 190 l 214 190 q 208 186 210 190 l 153 11 q 136 0 149 0 l 61 0 q 50 15 46 0 l 357 961 q 374 972 361 972 l 468 972 q 485 961 481 972 l 793 15 l 794 10 q 782 0 794 0 l 707 0 m 236 278 q 237 273 235 275 q 242 271 239 271 l 600 271 q 605 273 603 271 q 606 278 607 275 l 425 844 q 421 847 424 847 q 417 844 418 847 l 236 278 m 507 1107 q 461 1115 481 1107 q 421 1138 442 1124 q 382 1158 396 1153 q 351 1164 368 1164 q 309 1156 326 1164 q 275 1129 292 1149 q 256 1126 267 1117 l 231 1151 q 228 1171 221 1161 q 347 1239 274 1239 q 387 1232 369 1239 q 419 1217 404 1225 q 438 1207 433 1210 q 458 1196 443 1204 q 484 1183 472 1188 q 507 1179 496 1179 q 581 1218 553 1179 q 600 1221 589 1232 l 625 1197 q 626 1176 635 1188 q 574 1125 607 1143 q 507 1107 542 1107 z "},"Æ":{"ha":1279,"x_min":50,"x_max":1199,"o":"m 1199 900 q 1185 886 1199 886 l 711 886 q 706 881 706 886 l 706 538 q 711 532 706 532 l 1032 532 q 1046 518 1046 532 l 1046 460 q 1032 446 1046 446 l 711 446 q 706 440 706 446 l 706 92 q 711 86 706 86 l 1185 86 q 1199 72 1199 86 l 1199 14 q 1185 0 1199 0 l 621 0 q 607 14 607 0 l 607 185 q 601 190 607 190 l 257 190 q 251 186 254 190 l 160 10 q 143 0 156 0 l 63 0 q 53 5 56 0 q 53 17 50 10 l 551 963 q 568 972 556 972 l 1185 972 q 1199 958 1199 972 l 1199 900 m 299 278 q 303 271 296 271 l 601 271 q 607 276 607 271 l 607 854 q 605 858 607 858 q 600 856 603 858 l 299 278 z "},"B":{"ha":871,"x_min":131,"x_max":771,"o":"m 618 507 q 618 499 611 503 q 732 408 693 468 q 771 264 771 349 q 691 69 771 139 q 481 0 611 0 l 144 0 q 131 14 131 0 l 131 958 q 144 972 131 972 l 471 972 q 683 906 606 972 q 760 718 760 839 q 723 588 760 642 q 618 507 686 535 m 235 886 q 229 881 229 886 l 229 547 q 235 542 229 542 l 471 542 q 610 588 558 542 q 663 710 663 633 q 610 838 663 790 q 471 886 558 886 l 235 886 m 481 88 q 620 138 568 88 q 672 272 672 188 q 619 408 672 357 q 475 458 565 458 l 235 458 q 229 453 229 458 l 229 93 q 235 88 229 88 l 481 88 z "},"C":{"ha":843,"x_min":100,"x_max":753,"o":"m 426 -12 q 256 26 329 -12 q 141 134 182 64 q 100 296 100 204 l 100 678 q 141 838 100 768 q 256 945 182 907 q 426 983 329 983 q 597 946 524 983 q 712 840 671 908 q 753 683 753 772 q 749 672 753 676 q 739 668 744 668 l 668 664 q 654 676 654 664 l 654 681 q 592 838 654 779 q 426 897 529 897 q 261 838 324 897 q 199 681 199 778 l 199 292 q 261 135 199 194 q 426 75 324 75 q 592 134 529 75 q 654 292 654 193 l 654 294 q 668 307 654 307 l 739 303 q 753 290 753 303 q 712 131 753 200 q 597 25 671 63 q 426 -12 524 -12 z "},"Ć":{"ha":843,"x_min":100,"x_max":753,"o":"m 426 -12 q 256 26 329 -12 q 141 134 182 64 q 100 296 100 204 l 100 678 q 141 838 100 768 q 256 945 182 907 q 426 983 329 983 q 597 946 524 983 q 712 840 671 908 q 753 683 753 772 q 749 672 753 676 q 739 668 744 668 l 668 664 q 654 676 654 664 l 654 681 q 592 838 654 779 q 426 897 529 897 q 261 838 324 897 q 199 681 199 778 l 199 292 q 261 135 199 194 q 426 75 324 75 q 592 134 529 75 q 654 292 654 193 l 654 294 q 668 307 654 307 l 739 303 q 753 290 753 303 q 712 131 753 200 q 597 25 671 63 q 426 -12 524 -12 m 381 1064 q 369 1069 372 1064 q 371 1081 367 1074 l 454 1232 q 471 1242 458 1242 l 533 1242 q 544 1237 542 1242 q 542 1225 546 1232 l 447 1074 q 431 1064 440 1064 l 381 1064 z "},"Č":{"ha":843,"x_min":100,"x_max":753,"o":"m 426 -12 q 256 26 329 -12 q 141 134 182 64 q 100 296 100 204 l 100 678 q 141 838 100 768 q 256 945 182 907 q 426 983 329 983 q 597 946 524 983 q 712 840 671 908 q 753 683 753 772 q 749 672 753 676 q 739 668 744 668 l 668 664 q 654 676 654 664 l 654 681 q 592 838 654 779 q 426 897 529 897 q 261 838 324 897 q 199 681 199 778 l 199 292 q 261 135 199 194 q 426 75 324 75 q 592 134 529 75 q 654 292 654 193 l 654 294 q 668 307 654 307 l 739 303 q 753 290 753 303 q 712 131 753 200 q 597 25 671 63 q 426 -12 524 -12 m 260 1225 q 257 1233 257 1228 q 260 1239 257 1236 q 268 1242 263 1242 l 324 1242 q 342 1233 336 1242 l 426 1119 q 431 1118 428 1118 q 435 1119 433 1118 l 518 1233 q 536 1242 524 1242 l 592 1242 q 603 1237 600 1242 q 600 1225 606 1232 l 488 1075 q 469 1067 482 1067 l 389 1067 q 371 1075 376 1067 l 260 1225 z "},"Ç":{"ha":843,"x_min":100,"x_max":753,"o":"m 753 676 q 749 671 753 674 q 739 668 744 668 l 668 664 q 654 676 654 664 l 654 681 q 592 838 654 779 q 426 897 529 897 q 261 838 324 897 q 199 681 199 778 l 199 292 q 261 135 199 194 q 426 75 324 75 q 592 134 529 75 q 654 292 654 193 l 654 294 q 668 307 654 307 l 739 303 q 753 290 753 303 q 712 131 753 200 q 597 25 671 63 q 426 -12 524 -12 q 431 -19 424 -12 q 497 -146 497 -76 q 494 -176 497 -167 q 450 -240 483 -221 q 372 -260 417 -260 q 315 -253 343 -260 q 306 -236 304 -249 l 311 -204 q 317 -195 313 -197 q 328 -194 322 -193 q 358 -199 344 -199 q 407 -182 388 -199 q 426 -133 426 -165 q 403 -68 426 -101 q 340 -6 379 -35 q 333 -1 340 -4 q 163 101 225 22 q 100 296 100 181 l 100 678 q 141 838 100 768 q 256 945 182 907 q 426 983 329 983 q 597 946 524 983 q 712 840 671 908 q 753 683 753 772 l 753 676 z "},"Ĉ":{"ha":843,"x_min":100,"x_max":753,"o":"m 426 -12 q 256 26 329 -12 q 141 134 182 64 q 100 296 100 204 l 100 678 q 141 838 100 768 q 256 945 182 907 q 426 983 329 983 q 597 946 524 983 q 712 840 671 908 q 753 683 753 772 q 749 672 753 676 q 739 668 744 668 l 668 664 q 654 676 654 664 l 654 681 q 592 838 654 779 q 426 897 529 897 q 261 838 324 897 q 199 681 199 778 l 199 292 q 261 135 199 194 q 426 75 324 75 q 592 134 529 75 q 654 292 654 193 l 654 294 q 668 307 654 307 l 739 303 q 753 290 753 303 q 712 131 753 200 q 597 25 671 63 q 426 -12 524 -12 m 264 1067 q 253 1072 256 1067 q 256 1083 250 1076 l 367 1233 q 385 1242 372 1242 l 465 1242 q 483 1233 478 1242 l 596 1083 q 599 1075 599 1081 q 596 1069 599 1072 q 588 1067 593 1067 l 532 1067 q 514 1075 519 1067 l 431 1189 q 426 1192 429 1192 q 422 1189 424 1192 l 338 1075 q 319 1067 332 1067 l 264 1067 z "},"Ċ":{"ha":843,"x_min":100,"x_max":753,"o":"m 426 -12 q 256 26 329 -12 q 141 134 182 64 q 100 296 100 204 l 100 678 q 141 838 100 768 q 256 945 182 907 q 426 983 329 983 q 597 946 524 983 q 712 840 671 908 q 753 683 753 772 q 749 672 753 676 q 739 668 744 668 l 668 664 q 654 676 654 664 l 654 681 q 592 838 654 779 q 426 897 529 897 q 261 838 324 897 q 199 681 199 778 l 199 292 q 261 135 199 194 q 426 75 324 75 q 592 134 529 75 q 654 292 654 193 l 654 294 q 668 307 654 307 l 739 303 q 753 290 753 303 q 712 131 753 200 q 597 25 671 63 q 426 -12 524 -12 m 426 1100 q 370 1122 392 1100 q 349 1178 349 1144 q 370 1234 349 1213 q 426 1256 392 1256 q 482 1234 460 1256 q 504 1178 504 1213 q 482 1122 504 1144 q 426 1100 460 1100 z "},"D":{"ha":858,"x_min":131,"x_max":772,"o":"m 144 0 q 131 14 131 0 l 131 958 q 144 972 131 972 l 472 972 q 691 900 610 972 q 772 704 772 828 l 772 268 q 691 72 772 144 q 472 0 610 0 l 144 0 m 229 92 q 235 86 229 86 l 476 86 q 620 139 567 86 q 674 281 674 192 l 674 690 q 621 833 674 781 q 476 886 568 886 l 235 886 q 229 881 229 886 l 229 92 z "},"Ð":{"ha":949,"x_min":131,"x_max":863,"o":"m 563 972 q 781 900 700 972 q 863 704 863 828 l 863 268 q 781 72 863 144 q 563 0 700 0 l 235 0 q 221 14 221 0 l 221 464 q 215 469 221 469 l 144 469 q 131 483 131 469 l 131 528 q 144 542 131 542 l 215 542 q 221 547 221 542 l 221 958 q 235 972 221 972 l 563 972 m 764 690 q 711 833 764 781 q 567 886 658 886 l 325 886 q 319 881 319 886 l 319 547 q 325 542 319 542 l 490 542 q 504 528 504 542 l 504 483 q 490 469 504 469 l 325 469 q 319 464 319 469 l 319 92 q 325 86 319 86 l 568 86 q 711 139 658 86 q 764 281 764 192 l 764 690 z "},"Ď":{"ha":858,"x_min":131,"x_max":772,"o":"m 144 0 q 131 14 131 0 l 131 958 q 144 972 131 972 l 472 972 q 691 900 610 972 q 772 704 772 828 l 772 268 q 691 72 772 144 q 472 0 610 0 l 144 0 m 229 92 q 235 86 229 86 l 476 86 q 620 139 567 86 q 674 281 674 192 l 674 690 q 621 833 674 781 q 476 886 568 886 l 235 886 q 229 881 229 886 l 229 92 z "},"Đ":{"ha":949,"x_min":131,"x_max":863,"o":"m 563 972 q 781 900 700 972 q 863 704 863 828 l 863 268 q 781 72 863 144 q 563 0 700 0 l 235 0 q 221 14 221 0 l 221 464 q 215 469 221 469 l 144 469 q 131 483 131 469 l 131 528 q 144 542 131 542 l 215 542 q 221 547 221 542 l 221 958 q 235 972 221 972 l 563 972 m 764 690 q 711 833 764 781 q 567 886 658 886 l 325 886 q 319 881 319 886 l 319 547 q 325 542 319 542 l 490 542 q 504 528 504 542 l 504 483 q 490 469 504 469 l 325 469 q 319 464 319 469 l 319 92 q 325 86 319 86 l 568 86 q 711 139 658 86 q 764 281 764 192 l 764 690 z "},"E":{"ha":840,"x_min":131,"x_max":760,"o":"m 760 900 q 746 886 760 886 l 235 886 q 229 881 229 886 l 229 538 q 235 532 229 532 l 593 532 q 607 518 607 532 l 607 460 q 593 446 607 446 l 235 446 q 229 440 229 446 l 229 92 q 235 86 229 86 l 746 86 q 760 72 760 86 l 760 14 q 746 0 760 0 l 144 0 q 131 14 131 0 l 131 958 q 144 972 131 972 l 746 972 q 760 958 760 972 l 760 900 z "},"É":{"ha":840,"x_min":131,"x_max":760,"o":"m 760 900 q 746 886 760 886 l 235 886 q 229 881 229 886 l 229 538 q 235 532 229 532 l 593 532 q 607 518 607 532 l 607 460 q 593 446 607 446 l 235 446 q 229 440 229 446 l 229 92 q 235 86 229 86 l 746 86 q 760 72 760 86 l 760 14 q 746 0 760 0 l 144 0 q 131 14 131 0 l 131 958 q 144 972 131 972 l 746 972 q 760 958 760 972 l 760 900 m 393 1064 q 382 1069 385 1064 q 383 1081 379 1074 l 467 1232 q 483 1242 471 1242 l 546 1242 q 556 1237 554 1242 q 554 1225 558 1232 l 460 1074 q 443 1064 453 1064 l 393 1064 z "},"Ě":{"ha":840,"x_min":131,"x_max":760,"o":"m 760 900 q 746 886 760 886 l 235 886 q 229 881 229 886 l 229 538 q 235 532 229 532 l 593 532 q 607 518 607 532 l 607 460 q 593 446 607 446 l 235 446 q 229 440 229 446 l 229 92 q 235 86 229 86 l 746 86 q 760 72 760 86 l 760 14 q 746 0 760 0 l 144 0 q 131 14 131 0 l 131 958 q 144 972 131 972 l 746 972 q 760 958 760 972 l 760 900 m 272 1225 q 269 1233 269 1228 q 272 1239 269 1236 q 281 1242 275 1242 l 336 1242 q 354 1233 349 1242 l 439 1119 q 443 1118 440 1118 q 447 1119 446 1118 l 531 1233 q 549 1242 536 1242 l 604 1242 q 615 1237 613 1242 q 613 1225 618 1232 l 500 1075 q 482 1067 494 1067 l 401 1067 q 383 1075 389 1067 l 272 1225 z "},"Ȩ":{"ha":840,"x_min":131,"x_max":760,"o":"m 760 900 q 746 886 760 886 l 235 886 q 229 881 229 886 l 229 538 q 235 532 229 532 l 593 532 q 607 518 607 532 l 607 460 q 593 446 607 446 l 235 446 q 229 440 229 446 l 229 92 q 235 86 229 86 l 746 86 q 760 72 760 86 l 760 14 q 746 0 760 0 l 494 0 q 490 -2 492 0 q 492 -7 489 -4 q 560 -135 560 -67 q 557 -164 560 -154 q 513 -228 546 -208 q 435 -247 479 -247 q 378 -240 406 -247 q 368 -224 367 -236 l 374 -192 q 380 -183 375 -185 q 390 -182 385 -181 q 421 -186 407 -186 q 469 -170 450 -186 q 489 -122 489 -154 q 469 -61 489 -92 q 414 -3 449 -31 q 407 0 413 0 l 144 0 q 131 14 131 0 l 131 958 q 144 972 131 972 l 746 972 q 760 958 760 972 l 760 900 z "},"Ê":{"ha":840,"x_min":131,"x_max":760,"o":"m 760 900 q 746 886 760 886 l 235 886 q 229 881 229 886 l 229 538 q 235 532 229 532 l 593 532 q 607 518 607 532 l 607 460 q 593 446 607 446 l 235 446 q 229 440 229 446 l 229 92 q 235 86 229 86 l 746 86 q 760 72 760 86 l 760 14 q 746 0 760 0 l 144 0 q 131 14 131 0 l 131 958 q 144 972 131 972 l 746 972 q 760 958 760 972 l 760 900 m 276 1067 q 265 1072 268 1067 q 268 1083 263 1076 l 379 1233 q 397 1242 385 1242 l 478 1242 q 496 1233 490 1242 l 608 1083 q 611 1075 611 1081 q 608 1069 611 1072 q 600 1067 606 1067 l 544 1067 q 526 1075 532 1067 l 443 1189 q 439 1192 442 1192 q 435 1189 436 1192 l 350 1075 q 332 1067 344 1067 l 276 1067 z "},"Ế":{"ha":840,"x_min":131,"x_max":789,"o":"m 760 900 q 746 886 760 886 l 235 886 q 229 881 229 886 l 229 538 q 235 532 229 532 l 593 532 q 607 518 607 532 l 607 460 q 593 446 607 446 l 235 446 q 229 440 229 446 l 229 92 q 235 86 229 86 l 746 86 q 760 72 760 86 l 760 14 q 746 0 760 0 l 144 0 q 131 14 131 0 l 131 958 q 144 972 131 972 l 746 972 q 760 958 760 972 l 760 900 z "},"Ệ":{"ha":840,"x_min":131,"x_max":760,"o":"m 760 900 q 746 886 760 886 l 235 886 q 229 881 229 886 l 229 538 q 235 532 229 532 l 593 532 q 607 518 607 532 l 607 460 q 593 446 607 446 l 235 446 q 229 440 229 446 l 229 92 q 235 86 229 86 l 746 86 q 760 72 760 86 l 760 14 q 746 0 760 0 l 144 0 q 131 14 131 0 l 131 958 q 144 972 131 972 l 746 972 q 760 958 760 972 l 760 900 m 447 -256 q 394 -235 415 -256 q 374 -182 374 -214 q 394 -129 374 -150 q 447 -108 415 -108 q 500 -129 479 -108 q 521 -182 521 -150 q 499 -235 521 -214 q 447 -256 478 -256 m 276 1067 q 265 1072 268 1067 q 268 1083 263 1076 l 379 1233 q 397 1242 385 1242 l 478 1242 q 496 1233 490 1242 l 608 1083 q 611 1075 611 1081 q 608 1069 611 1072 q 600 1067 606 1067 l 544 1067 q 526 1075 532 1067 l 443 1189 q 439 1192 442 1192 q 435 1189 436 1192 l 350 1075 q 332 1067 344 1067 l 276 1067 z "},"Ề":{"ha":840,"x_min":131,"x_max":760,"o":"m 760 900 q 746 886 760 886 l 235 886 q 229 881 229 886 l 229 538 q 235 532 229 532 l 593 532 q 607 518 607 532 l 607 460 q 593 446 607 446 l 235 446 q 229 440 229 446 l 229 92 q 235 86 229 86 l 746 86 q 760 72 760 86 l 760 14 q 746 0 760 0 l 144 0 q 131 14 131 0 l 131 958 q 144 972 131 972 l 746 972 q 760 958 760 972 l 760 900 z "},"Ể":{"ha":840,"x_min":131,"x_max":760,"o":"m 760 900 q 746 886 760 886 l 235 886 q 229 881 229 886 l 229 538 q 235 532 229 532 l 593 532 q 607 518 607 532 l 607 460 q 593 446 607 446 l 235 446 q 229 440 229 446 l 229 92 q 235 86 229 86 l 746 86 q 760 72 760 86 l 760 14 q 746 0 760 0 l 144 0 q 131 14 131 0 l 131 958 q 144 972 131 972 l 746 972 q 760 958 760 972 l 760 900 z "},"Ễ":{"ha":840,"x_min":131,"x_max":760,"o":"m 760 900 q 746 886 760 886 l 235 886 q 229 881 229 886 l 229 538 q 235 532 229 532 l 593 532 q 607 518 607 532 l 607 460 q 593 446 607 446 l 235 446 q 229 440 229 446 l 229 92 q 235 86 229 86 l 746 86 q 760 72 760 86 l 760 14 q 746 0 760 0 l 144 0 q 131 14 131 0 l 131 958 q 144 972 131 972 l 746 972 q 760 958 760 972 l 760 900 z "},"Ë":{"ha":840,"x_min":131,"x_max":760,"o":"m 760 900 q 746 886 760 886 l 235 886 q 229 881 229 886 l 229 538 q 235 532 229 532 l 593 532 q 607 518 607 532 l 607 460 q 593 446 607 446 l 235 446 q 229 440 229 446 l 229 92 q 235 86 229 86 l 746 86 q 760 72 760 86 l 760 14 q 746 0 760 0 l 144 0 q 131 14 131 0 l 131 958 q 144 972 131 972 l 746 972 q 760 958 760 972 l 760 900 z "},"Ė":{"ha":840,"x_min":131,"x_max":760,"o":"m 760 900 q 746 886 760 886 l 235 886 q 229 881 229 886 l 229 538 q 235 532 229 532 l 593 532 q 607 518 607 532 l 607 460 q 593 446 607 446 l 235 446 q 229 440 229 446 l 229 92 q 235 86 229 86 l 746 86 q 760 72 760 86 l 760 14 q 746 0 760 0 l 144 0 q 131 14 131 0 l 131 958 q 144 972 131 972 l 746 972 q 760 958 760 972 l 760 900 m 439 1100 q 383 1122 404 1100 q 361 1178 361 1144 q 383 1234 361 1213 q 439 1256 404 1256 q 494 1234 472 1256 q 517 1178 517 1213 q 494 1122 517 1144 q 439 1100 472 1100 z "},"Ẹ":{"ha":840,"x_min":131,"x_max":760,"o":"m 760 900 q 746 886 760 886 l 235 886 q 229 881 229 886 l 229 538 q 235 532 229 532 l 593 532 q 607 518 607 532 l 607 460 q 593 446 607 446 l 235 446 q 229 440 229 446 l 229 92 q 235 86 229 86 l 746 86 q 760 72 760 86 l 760 14 q 746 0 760 0 l 144 0 q 131 14 131 0 l 131 958 q 144 972 131 972 l 746 972 q 760 958 760 972 l 760 900 m 447 -256 q 394 -235 415 -256 q 374 -182 374 -214 q 394 -129 374 -150 q 447 -108 415 -108 q 500 -129 479 -108 q 521 -182 521 -150 q 499 -235 521 -214 q 447 -256 478 -256 z "},"È":{"ha":840,"x_min":131,"x_max":760,"o":"m 760 900 q 746 886 760 886 l 235 886 q 229 881 229 886 l 229 538 q 235 532 229 532 l 593 532 q 607 518 607 532 l 607 460 q 593 446 607 446 l 235 446 q 229 440 229 446 l 229 92 q 235 86 229 86 l 746 86 q 760 72 760 86 l 760 14 q 746 0 760 0 l 144 0 q 131 14 131 0 l 131 958 q 144 972 131 972 l 746 972 q 760 958 760 972 l 760 900 m 476 1081 q 479 1072 479 1075 q 467 1064 479 1064 l 417 1064 q 400 1074 407 1064 l 306 1225 q 303 1233 303 1231 q 314 1242 303 1242 l 376 1242 q 393 1232 389 1242 l 476 1081 z "},"Ẻ":{"ha":840,"x_min":131,"x_max":760,"o":"m 760 900 q 746 886 760 886 l 235 886 q 229 881 229 886 l 229 538 q 235 532 229 532 l 593 532 q 607 518 607 532 l 607 460 q 593 446 607 446 l 235 446 q 229 440 229 446 l 229 92 q 235 86 229 86 l 746 86 q 760 72 760 86 l 760 14 q 746 0 760 0 l 144 0 q 131 14 131 0 l 131 958 q 144 972 131 972 l 746 972 q 760 958 760 972 l 760 900 m 429 1039 q 419 1045 422 1040 q 419 1056 417 1050 q 442 1093 429 1076 q 467 1122 454 1110 q 493 1153 485 1139 q 501 1188 501 1167 q 484 1222 501 1207 q 443 1238 467 1238 q 403 1226 419 1238 q 368 1188 388 1215 q 349 1185 360 1176 l 326 1199 q 322 1218 315 1207 q 375 1276 349 1258 q 446 1293 401 1293 q 530 1264 497 1293 q 563 1188 563 1235 q 550 1137 563 1157 q 511 1089 538 1117 q 472 1042 482 1063 q 454 1033 467 1032 l 429 1039 z "},"Ē":{"ha":840,"x_min":131,"x_max":760,"o":"m 760 900 q 746 886 760 886 l 235 886 q 229 881 229 886 l 229 538 q 235 532 229 532 l 593 532 q 607 518 607 532 l 607 460 q 593 446 607 446 l 235 446 q 229 440 229 446 l 229 92 q 235 86 229 86 l 746 86 q 760 72 760 86 l 760 14 q 746 0 760 0 l 144 0 q 131 14 131 0 l 131 958 q 144 972 131 972 l 746 972 q 760 958 760 972 l 760 900 m 268 1094 q 254 1108 254 1094 l 254 1151 q 268 1165 254 1165 l 614 1165 q 628 1151 628 1165 l 628 1108 q 614 1094 628 1094 l 268 1094 z "},"Ę":{"ha":840,"x_min":131,"x_max":760,"o":"m 760 900 q 746 886 760 886 l 235 886 q 229 881 229 886 l 229 538 q 235 532 229 532 l 593 532 q 607 518 607 532 l 607 460 q 593 446 607 446 l 235 446 q 229 440 229 446 l 229 92 q 235 86 229 86 l 746 86 q 760 72 760 86 l 760 14 q 746 0 760 0 l 486 0 q 479 -3 482 0 q 424 -61 444 -31 q 404 -122 404 -92 q 406 -136 404 -132 q 429 -174 411 -161 q 472 -186 447 -186 q 503 -182 486 -186 l 508 -181 q 519 -192 517 -181 l 525 -224 l 525 -228 q 515 -240 525 -236 q 458 -247 488 -247 q 381 -228 414 -247 q 336 -164 347 -208 q 332 -132 332 -150 q 400 -7 332 -65 q 401 -2 403 -4 q 397 0 400 0 l 144 0 q 131 14 131 0 l 131 958 q 144 972 131 972 l 746 972 q 760 958 760 972 l 760 900 z "},"Ẽ":{"ha":840,"x_min":131,"x_max":760,"o":"m 760 900 q 746 886 760 886 l 235 886 q 229 881 229 886 l 229 538 q 235 532 229 532 l 593 532 q 607 518 607 532 l 607 460 q 593 446 607 446 l 235 446 q 229 440 229 446 l 229 92 q 235 86 229 86 l 746 86 q 760 72 760 86 l 760 14 q 746 0 760 0 l 144 0 q 131 14 131 0 l 131 958 q 144 972 131 972 l 746 972 q 760 958 760 972 l 760 900 m 526 1107 q 481 1115 500 1107 q 440 1138 461 1124 q 401 1158 415 1153 q 371 1164 388 1164 q 328 1156 346 1164 q 294 1129 311 1149 q 275 1126 286 1117 l 250 1151 q 247 1171 240 1161 q 367 1239 293 1239 q 406 1232 389 1239 q 438 1217 424 1225 q 457 1207 453 1210 q 477 1196 463 1204 q 503 1183 492 1188 q 526 1179 515 1179 q 600 1218 572 1179 q 619 1221 608 1232 l 644 1197 q 646 1176 654 1188 q 594 1125 626 1143 q 526 1107 561 1107 z "},"F":{"ha":789,"x_min":131,"x_max":758,"o":"m 758 900 q 744 886 758 886 l 235 886 q 229 881 229 886 l 229 538 q 235 532 229 532 l 592 532 q 606 518 606 532 l 606 460 q 592 446 606 446 l 235 446 q 229 440 229 446 l 229 14 q 215 0 229 0 l 144 0 q 131 14 131 0 l 131 958 q 144 972 131 972 l 744 972 q 758 958 758 972 l 758 900 z "},"G":{"ha":851,"x_min":100,"x_max":751,"o":"m 426 -11 q 256 27 329 -11 q 141 135 182 65 q 100 294 100 204 l 100 678 q 141 838 100 768 q 256 945 182 907 q 426 983 329 983 q 597 946 522 983 q 711 841 671 908 q 751 689 751 774 l 751 671 q 738 657 751 657 l 667 657 q 653 671 653 657 l 653 688 q 591 839 653 781 q 426 897 529 897 q 261 838 324 897 q 199 681 199 778 l 199 292 q 263 135 199 194 q 431 75 326 75 q 592 131 532 75 q 653 279 653 186 l 653 406 q 647 411 653 411 l 443 411 q 429 425 429 411 l 429 483 q 443 497 429 497 l 738 497 q 751 483 751 497 l 751 304 q 663 72 751 156 q 426 -11 575 -11 z "},"Ğ":{"ha":851,"x_min":100,"x_max":751,"o":"m 426 -11 q 256 27 329 -11 q 141 135 182 65 q 100 294 100 204 l 100 678 q 141 838 100 768 q 256 945 182 907 q 426 983 329 983 q 597 946 522 983 q 711 841 671 908 q 751 689 751 774 l 751 671 q 738 657 751 657 l 667 657 q 653 671 653 657 l 653 688 q 591 839 653 781 q 426 897 529 897 q 261 838 324 897 q 199 681 199 778 l 199 292 q 263 135 199 194 q 431 75 326 75 q 592 131 532 75 q 653 279 653 186 l 653 406 q 647 411 653 411 l 443 411 q 429 425 429 411 l 429 483 q 443 497 429 497 l 738 497 q 751 483 751 497 l 751 304 q 663 72 751 156 q 426 -11 575 -11 m 425 1053 q 309 1092 357 1053 q 254 1193 261 1132 q 268 1207 254 1207 l 310 1207 q 325 1193 324 1207 q 358 1134 329 1157 q 425 1111 386 1111 q 494 1134 465 1111 q 526 1193 522 1157 q 542 1207 528 1207 l 583 1207 q 597 1194 597 1207 q 543 1093 592 1133 q 425 1053 494 1053 z "},"Ĝ":{"ha":851,"x_min":100,"x_max":751,"o":"m 426 -11 q 256 27 329 -11 q 141 135 182 65 q 100 294 100 204 l 100 678 q 141 838 100 768 q 256 945 182 907 q 426 983 329 983 q 597 946 522 983 q 711 841 671 908 q 751 689 751 774 l 751 671 q 738 657 751 657 l 667 657 q 653 671 653 657 l 653 688 q 591 839 653 781 q 426 897 529 897 q 261 838 324 897 q 199 681 199 778 l 199 292 q 263 135 199 194 q 431 75 326 75 q 592 131 532 75 q 653 279 653 186 l 653 406 q 647 411 653 411 l 443 411 q 429 425 429 411 l 429 483 q 443 497 429 497 l 738 497 q 751 483 751 497 l 751 304 q 663 72 751 156 q 426 -11 575 -11 m 263 1069 q 251 1074 254 1069 q 254 1086 249 1079 l 365 1236 q 383 1244 371 1244 l 464 1244 q 482 1236 476 1244 l 594 1086 q 597 1078 597 1083 q 594 1072 597 1075 q 586 1069 592 1069 l 531 1069 q 513 1078 518 1069 l 429 1192 q 425 1194 428 1194 q 421 1192 422 1194 l 336 1078 q 318 1069 331 1069 l 263 1069 z "},"Ġ":{"ha":851,"x_min":100,"x_max":751,"o":"m 426 -11 q 256 27 329 -11 q 141 135 182 65 q 100 294 100 204 l 100 678 q 141 838 100 768 q 256 945 182 907 q 426 983 329 983 q 597 946 522 983 q 711 841 671 908 q 751 689 751 774 l 751 671 q 738 657 751 657 l 667 657 q 653 671 653 657 l 653 688 q 591 839 653 781 q 426 897 529 897 q 261 838 324 897 q 199 681 199 778 l 199 292 q 263 135 199 194 q 431 75 326 75 q 592 131 532 75 q 653 279 653 186 l 653 406 q 647 411 653 411 l 443 411 q 429 425 429 411 l 429 483 q 443 497 429 497 l 738 497 q 751 483 751 497 l 751 304 q 663 72 751 156 q 426 -11 575 -11 m 425 1103 q 369 1125 390 1103 q 347 1181 347 1147 q 369 1237 347 1215 q 425 1258 390 1258 q 481 1237 458 1258 q 503 1181 503 1215 q 481 1125 503 1147 q 425 1103 458 1103 z "},"H":{"ha":908,"x_min":131,"x_max":782,"o":"m 683 958 q 697 972 683 972 l 768 972 q 782 958 782 972 l 782 14 q 768 0 782 0 l 697 0 q 683 14 683 0 l 683 440 q 678 446 683 446 l 235 446 q 229 440 229 446 l 229 14 q 215 0 229 0 l 144 0 q 131 14 131 0 l 131 958 q 144 972 131 972 l 215 972 q 229 958 229 972 l 229 538 q 235 532 229 532 l 678 532 q 683 538 683 532 l 683 958 z "},"Ħ":{"ha":908,"x_min":46,"x_max":867,"o":"m 853 778 q 867 764 867 778 l 867 719 q 853 706 867 706 l 788 706 q 782 700 782 706 l 782 14 q 768 0 782 0 l 697 0 q 683 14 683 0 l 683 440 q 678 446 683 446 l 235 446 q 229 440 229 446 l 229 14 q 215 0 229 0 l 144 0 q 131 14 131 0 l 131 700 q 125 706 131 706 l 60 706 q 46 719 46 706 l 46 764 q 60 778 46 778 l 125 778 q 131 783 131 778 l 131 958 q 144 972 131 972 l 215 972 q 229 958 229 972 l 229 783 q 235 778 229 778 l 678 778 q 683 783 683 778 l 683 958 q 697 972 683 972 l 768 972 q 782 958 782 972 l 782 783 q 788 778 782 778 l 853 778 m 678 532 q 683 538 683 532 l 683 700 q 678 706 683 706 l 235 706 q 229 700 229 706 l 229 538 q 235 532 229 532 l 678 532 z "},"Ĥ":{"ha":908,"x_min":131,"x_max":782,"o":"m 683 958 q 697 972 683 972 l 768 972 q 782 958 782 972 l 782 14 q 768 0 782 0 l 697 0 q 683 14 683 0 l 683 440 q 678 446 683 446 l 235 446 q 229 440 229 446 l 229 14 q 215 0 229 0 l 144 0 q 131 14 131 0 l 131 958 q 144 972 131 972 l 215 972 q 229 958 229 972 l 229 538 q 235 532 229 532 l 678 532 q 683 538 683 532 l 683 958 m 294 1068 q 283 1073 286 1068 q 286 1085 281 1078 l 397 1235 q 415 1243 403 1243 l 496 1243 q 514 1235 508 1243 l 626 1085 q 629 1076 629 1082 q 626 1071 629 1074 q 618 1068 624 1068 l 563 1068 q 544 1076 550 1068 l 461 1190 q 457 1193 460 1193 q 453 1190 454 1193 l 368 1076 q 350 1068 363 1068 l 294 1068 z "},"I":{"ha":360,"x_min":131,"x_max":229,"o":"m 144 0 q 131 14 131 0 l 131 958 q 144 972 131 972 l 215 972 q 229 958 229 972 l 229 14 q 215 0 229 0 l 144 0 z "},"Í":{"ha":360,"x_min":119,"x_max":299,"o":"m 144 0 q 131 14 131 0 l 131 958 q 144 972 131 972 l 215 972 q 229 958 229 972 l 229 14 q 215 0 229 0 l 144 0 m 133 1064 q 122 1069 125 1064 q 124 1081 119 1074 l 207 1232 q 224 1242 211 1242 l 286 1242 q 297 1237 294 1242 q 294 1225 299 1232 l 200 1074 q 183 1064 193 1064 l 133 1064 z "},"Î":{"ha":360,"x_min":3,"x_max":351,"o":"m 144 0 q 131 14 131 0 l 131 958 q 144 972 131 972 l 215 972 q 229 958 229 972 l 229 14 q 215 0 229 0 l 144 0 m 17 1067 q 6 1072 8 1067 q 8 1083 3 1076 l 119 1233 q 138 1242 125 1242 l 218 1242 q 236 1233 231 1242 l 349 1083 q 351 1075 351 1081 q 349 1069 351 1072 q 340 1067 346 1067 l 285 1067 q 267 1075 272 1067 l 183 1189 q 179 1192 182 1192 q 175 1189 176 1192 l 90 1075 q 72 1067 85 1067 l 17 1067 z "},"Ï":{"ha":360,"x_min":-17,"x_max":376,"o":"m 144 0 q 131 14 131 0 l 131 958 q 144 972 131 972 l 215 972 q 229 958 229 972 l 229 14 q 215 0 229 0 l 144 0 z "},"İ":{"ha":360,"x_min":101,"x_max":257,"o":"m 144 0 q 131 14 131 0 l 131 958 q 144 972 131 972 l 215 972 q 229 958 229 972 l 229 14 q 215 0 229 0 l 144 0 m 179 1100 q 123 1122 144 1100 q 101 1178 101 1144 q 123 1234 101 1213 q 179 1256 144 1256 q 235 1234 213 1256 q 257 1178 257 1213 q 235 1122 257 1144 q 179 1100 213 1100 z "},"Ị":{"ha":360,"x_min":107,"x_max":254,"o":"m 144 0 q 131 14 131 0 l 131 958 q 144 972 131 972 l 215 972 q 229 958 229 972 l 229 14 q 215 0 229 0 l 144 0 m 181 -256 q 128 -235 149 -256 q 107 -182 107 -214 q 128 -129 107 -150 q 181 -108 149 -108 q 233 -129 213 -108 q 254 -182 254 -150 q 233 -235 254 -214 q 181 -256 211 -256 z "},"Ì":{"ha":360,"x_min":43,"x_max":229,"o":"m 144 0 q 131 14 131 0 l 131 958 q 144 972 131 972 l 215 972 q 229 958 229 972 l 229 14 q 215 0 229 0 l 144 0 m 217 1081 q 219 1072 219 1075 q 207 1064 219 1064 l 157 1064 q 140 1074 147 1064 l 46 1225 q 43 1233 43 1231 q 54 1242 43 1242 l 117 1242 q 133 1232 129 1242 l 217 1081 z "},"Ỉ":{"ha":360,"x_min":56,"x_max":303,"o":"m 144 0 q 131 14 131 0 l 131 958 q 144 972 131 972 l 215 972 q 229 958 229 972 l 229 14 q 215 0 229 0 l 144 0 m 169 1039 q 160 1045 163 1040 q 160 1056 157 1050 q 182 1093 169 1076 q 207 1122 194 1110 q 233 1153 225 1139 q 242 1188 242 1167 q 224 1222 242 1207 q 183 1238 207 1238 q 144 1226 160 1238 q 108 1188 128 1215 q 89 1185 100 1176 l 67 1199 q 63 1218 56 1207 q 115 1276 89 1258 q 186 1293 142 1293 q 270 1264 238 1293 q 303 1188 303 1235 q 290 1137 303 1157 q 251 1089 278 1117 q 213 1042 222 1063 q 194 1033 207 1032 l 169 1039 z "},"Ī":{"ha":360,"x_min":-6,"x_max":368,"o":"m 144 0 q 131 14 131 0 l 131 958 q 144 972 131 972 l 215 972 q 229 958 229 972 l 229 14 q 215 0 229 0 l 144 0 m 8 1094 q -6 1108 -6 1094 l -6 1151 q 8 1165 -6 1165 l 354 1165 q 368 1151 368 1165 l 368 1108 q 354 1094 368 1094 l 8 1094 z "},"Į":{"ha":326,"x_min":50,"x_max":242,"o":"m 129 0 q 115 14 115 0 l 115 958 q 129 972 115 972 l 200 972 q 214 958 214 972 l 214 14 q 200 0 214 0 l 129 0 m 242 -239 q 232 -251 242 -247 q 175 -258 204 -258 q 98 -239 131 -258 q 54 -175 65 -219 q 50 -143 50 -161 q 132 -6 50 -71 q 150 0 139 0 l 188 0 q 199 -7 199 0 q 192 -17 199 -10 q 122 -131 122 -76 q 124 -147 122 -142 q 147 -185 129 -172 q 189 -197 164 -197 q 221 -193 204 -197 l 225 -192 q 238 -204 235 -192 l 242 -235 l 242 -239 z "},"Ĩ":{"ha":360,"x_min":-19,"x_max":394,"o":"m 144 0 q 131 14 131 0 l 131 958 q 144 972 131 972 l 215 972 q 229 958 229 972 l 229 14 q 215 0 229 0 l 144 0 m 267 1107 q 221 1115 240 1107 q 181 1138 201 1124 q 142 1158 156 1153 q 111 1164 128 1164 q 69 1156 86 1164 q 35 1129 51 1149 q 15 1126 26 1117 l -10 1151 q -12 1171 -19 1161 q 107 1239 33 1239 q 147 1232 129 1239 q 178 1217 164 1225 q 197 1207 193 1210 q 217 1196 203 1204 q 244 1183 232 1188 q 267 1179 256 1179 q 340 1218 313 1179 q 360 1221 349 1232 l 385 1197 q 386 1176 394 1188 q 334 1125 367 1143 q 267 1107 301 1107 z "},"J":{"ha":801,"x_min":40,"x_max":671,"o":"m 356 -11 q 190 25 261 -11 q 79 127 118 61 q 40 279 40 193 l 40 385 q 54 399 40 399 l 125 399 q 139 385 139 399 l 139 279 q 198 131 139 188 q 356 75 257 75 q 513 131 453 75 q 572 279 572 188 l 572 958 q 586 972 572 972 l 657 972 q 671 958 671 972 l 671 279 q 631 127 671 193 q 520 25 592 61 q 356 -11 449 -11 z "},"Ĵ":{"ha":801,"x_min":40,"x_max":794,"o":"m 356 -11 q 190 25 261 -11 q 79 127 118 61 q 40 279 40 193 l 40 385 q 54 399 40 399 l 125 399 q 139 385 139 399 l 139 279 q 198 131 139 188 q 356 75 257 75 q 513 131 453 75 q 572 279 572 188 l 572 958 q 586 972 572 972 l 657 972 q 671 958 671 972 l 671 279 q 631 127 671 193 q 520 25 592 61 q 356 -11 449 -11 m 460 1068 q 449 1073 451 1068 q 451 1085 446 1078 l 563 1235 q 581 1243 568 1243 l 661 1243 q 679 1235 674 1243 l 792 1085 q 794 1076 794 1082 q 792 1071 794 1074 q 783 1068 789 1068 l 728 1068 q 710 1076 715 1068 l 626 1190 q 622 1193 625 1193 q 618 1190 619 1193 l 533 1076 q 515 1068 528 1068 l 460 1068 z "},"K":{"ha":849,"x_min":131,"x_max":811,"o":"m 144 0 q 131 14 131 0 l 131 958 q 144 972 131 972 l 215 972 q 229 958 229 972 l 229 488 q 232 483 229 485 q 236 485 235 482 l 675 965 q 692 972 681 972 l 772 972 q 783 967 781 972 q 779 956 785 961 l 439 571 q 439 563 436 568 l 808 17 l 811 10 q 799 0 811 0 l 718 0 q 701 8 707 0 l 372 492 q 368 494 371 494 q 364 493 365 494 l 232 353 q 229 346 229 350 l 229 14 q 215 0 229 0 l 144 0 z "},"L":{"ha":789,"x_min":131,"x_max":739,"o":"m 144 0 q 131 14 131 0 l 131 958 q 144 972 131 972 l 215 972 q 229 958 229 972 l 229 92 q 235 86 229 86 l 725 86 q 739 72 739 86 l 739 14 q 725 0 739 0 l 144 0 z "},"Ĺ":{"ha":789,"x_min":119,"x_max":739,"o":"m 144 0 q 131 14 131 0 l 131 958 q 144 972 131 972 l 215 972 q 229 958 229 972 l 229 92 q 235 86 229 86 l 725 86 q 739 72 739 86 l 739 14 q 725 0 739 0 l 144 0 m 133 1064 q 122 1069 125 1064 q 124 1081 119 1074 l 207 1232 q 224 1242 211 1242 l 286 1242 q 297 1237 294 1242 q 294 1225 299 1232 l 200 1074 q 183 1064 193 1064 l 133 1064 z "},"Ľ":{"ha":789,"x_min":131,"x_max":739,"o":"m 144 0 q 131 14 131 0 l 131 958 q 144 972 131 972 l 215 972 q 229 958 229 972 l 229 92 q 235 86 229 86 l 725 86 q 739 72 739 86 l 739 14 q 725 0 739 0 l 144 0 z "},"Ļ":{"ha":789,"x_min":131,"x_max":739,"o":"m 144 0 q 131 14 131 0 l 131 958 q 144 972 131 972 l 215 972 q 229 958 229 972 l 229 92 q 235 86 229 86 l 725 86 q 739 72 739 86 l 739 14 q 725 0 739 0 l 144 0 z "},"Ł":{"ha":832,"x_min":-31,"x_max":782,"o":"m 272 92 q 278 86 272 86 l 768 86 q 782 72 782 86 l 782 14 q 768 0 782 0 l 188 0 q 174 14 174 0 l 174 342 q 172 346 174 344 q 167 344 169 347 l 25 239 q 17 236 22 236 q 6 242 10 236 l -26 281 q -31 290 -31 285 q -25 300 -31 296 l 171 447 q 174 454 174 450 l 174 958 q 188 972 174 972 l 258 972 q 272 958 272 972 l 272 532 q 274 528 272 529 q 279 529 276 526 l 590 764 q 599 767 593 767 q 610 761 606 767 l 643 721 q 646 713 646 718 q 640 701 646 706 l 275 428 q 272 421 272 425 l 272 92 z "},"M":{"ha":993,"x_min":131,"x_max":864,"o":"m 761 963 q 778 972 768 972 l 850 972 q 864 958 864 972 l 864 14 q 850 0 864 0 l 779 0 q 765 14 765 0 l 765 786 q 763 792 765 790 q 758 789 760 793 l 532 442 q 515 432 525 432 l 479 432 q 463 440 469 432 l 236 785 q 232 788 235 789 q 229 782 229 786 l 229 14 q 215 0 229 0 l 144 0 q 131 14 131 0 l 131 958 q 144 972 131 972 l 217 972 q 233 964 228 972 l 494 568 q 499 567 496 567 q 503 568 501 567 l 761 963 z "},"N":{"ha":939,"x_min":131,"x_max":808,"o":"m 710 958 q 724 972 710 972 l 794 972 q 808 958 808 972 l 808 14 q 794 0 808 0 l 725 0 q 708 10 715 0 l 235 781 q 231 784 233 785 q 228 779 228 783 l 229 14 q 215 0 229 0 l 144 0 q 131 14 131 0 l 131 958 q 144 972 131 972 l 214 972 q 231 963 224 972 l 704 192 q 708 188 706 188 q 711 193 711 189 l 710 958 z "},"Ń":{"ha":939,"x_min":131,"x_max":808,"o":"m 710 958 q 724 972 710 972 l 794 972 q 808 958 808 972 l 808 14 q 794 0 808 0 l 725 0 q 708 10 715 0 l 235 781 q 231 784 233 785 q 228 779 228 783 l 229 14 q 215 0 229 0 l 144 0 q 131 14 131 0 l 131 958 q 144 972 131 972 l 214 972 q 231 963 224 972 l 704 192 q 708 188 706 188 q 711 193 711 189 l 710 958 m 421 1064 q 410 1069 413 1064 q 411 1081 407 1074 l 494 1232 q 511 1242 499 1242 l 574 1242 q 584 1237 582 1242 q 582 1225 586 1232 l 488 1074 q 471 1064 481 1064 l 421 1064 z "},"Ň":{"ha":939,"x_min":131,"x_max":808,"o":"m 710 958 q 724 972 710 972 l 794 972 q 808 958 808 972 l 808 14 q 794 0 808 0 l 725 0 q 708 10 715 0 l 235 781 q 231 784 233 785 q 228 779 228 783 l 229 14 q 215 0 229 0 l 144 0 q 131 14 131 0 l 131 958 q 144 972 131 972 l 214 972 q 231 963 224 972 l 704 192 q 708 188 706 188 q 711 193 711 189 l 710 958 m 300 1225 q 297 1233 297 1228 q 300 1239 297 1236 q 308 1242 303 1242 l 364 1242 q 382 1233 376 1242 l 467 1119 q 471 1118 468 1118 q 475 1119 474 1118 l 558 1233 q 576 1242 564 1242 l 632 1242 q 643 1237 640 1242 q 640 1225 646 1232 l 528 1075 q 510 1067 522 1067 l 429 1067 q 411 1075 417 1067 l 300 1225 z "},"Ŋ":{"ha":939,"x_min":131,"x_max":808,"o":"m 710 958 q 724 972 710 972 l 794 972 q 808 958 808 972 l 808 0 q 755 -167 806 -115 q 581 -218 704 -218 q 567 -204 567 -218 l 567 -147 q 581 -133 567 -133 q 679 -100 650 -133 q 710 3 708 -67 q 708 10 710 8 l 235 781 q 231 784 233 785 q 228 779 228 783 l 229 14 q 215 0 229 0 l 144 0 q 131 14 131 0 l 131 958 q 144 972 131 972 l 214 972 q 231 963 224 972 l 703 193 q 707 190 704 189 q 710 194 710 190 l 710 958 z "},"Ñ":{"ha":939,"x_min":131,"x_max":808,"o":"m 710 958 q 724 972 710 972 l 794 972 q 808 958 808 972 l 808 14 q 794 0 808 0 l 725 0 q 708 10 715 0 l 235 781 q 231 784 233 785 q 228 779 228 783 l 229 14 q 215 0 229 0 l 144 0 q 131 14 131 0 l 131 958 q 144 972 131 972 l 214 972 q 231 963 224 972 l 704 192 q 708 188 706 188 q 711 193 711 189 l 710 958 m 554 1107 q 508 1115 528 1107 q 468 1138 489 1124 q 429 1158 443 1153 q 399 1164 415 1164 q 356 1156 374 1164 q 322 1129 339 1149 q 303 1126 314 1117 l 278 1151 q 275 1171 268 1161 q 394 1239 321 1239 q 434 1232 417 1239 q 466 1217 451 1225 q 485 1207 481 1210 q 505 1196 490 1204 q 531 1183 519 1188 q 554 1179 543 1179 q 628 1218 600 1179 q 647 1221 636 1232 l 672 1197 q 674 1176 682 1188 q 622 1125 654 1143 q 554 1107 589 1107 z "},"O":{"ha":864,"x_min":100,"x_max":763,"o":"m 431 -11 q 257 29 332 -11 q 141 142 182 69 q 100 311 100 215 l 100 661 q 141 830 100 757 q 257 943 182 903 q 431 983 332 983 q 605 943 529 983 q 722 830 681 903 q 763 661 763 757 l 763 311 q 722 142 763 215 q 605 29 681 69 q 431 -11 529 -11 m 431 74 q 600 138 536 74 q 664 307 664 201 l 664 663 q 600 833 664 768 q 431 897 536 897 q 263 833 326 897 q 199 663 199 768 l 199 307 q 263 138 199 201 q 431 74 326 74 z "},"Ó":{"ha":864,"x_min":100,"x_max":763,"o":"m 431 -11 q 257 29 332 -11 q 141 142 182 69 q 100 311 100 215 l 100 661 q 141 830 100 757 q 257 943 182 903 q 431 983 332 983 q 605 943 529 983 q 722 830 681 903 q 763 661 763 757 l 763 311 q 722 142 763 215 q 605 29 681 69 q 431 -11 529 -11 m 431 74 q 600 138 536 74 q 664 307 664 201 l 664 663 q 600 833 664 768 q 431 897 536 897 q 263 833 326 897 q 199 663 199 768 l 199 307 q 263 138 199 201 q 431 74 326 74 m 385 1064 q 374 1069 376 1064 q 375 1081 371 1074 l 458 1232 q 475 1242 463 1242 l 538 1242 q 548 1237 546 1242 q 546 1225 550 1232 l 451 1074 q 435 1064 444 1064 l 385 1064 z "},"Ô":{"ha":864,"x_min":100,"x_max":763,"o":"m 431 -11 q 257 29 332 -11 q 141 142 182 69 q 100 311 100 215 l 100 661 q 141 830 100 757 q 257 943 182 903 q 431 983 332 983 q 605 943 529 983 q 722 830 681 903 q 763 661 763 757 l 763 311 q 722 142 763 215 q 605 29 681 69 q 431 -11 529 -11 m 431 74 q 600 138 536 74 q 664 307 664 201 l 664 663 q 600 833 664 768 q 431 897 536 897 q 263 833 326 897 q 199 663 199 768 l 199 307 q 263 138 199 201 q 431 74 326 74 m 268 1067 q 257 1072 260 1067 q 260 1083 254 1076 l 371 1233 q 389 1242 376 1242 l 469 1242 q 488 1233 482 1242 l 600 1083 q 603 1075 603 1081 q 600 1069 603 1072 q 592 1067 597 1067 l 536 1067 q 518 1075 524 1067 l 435 1189 q 431 1192 433 1192 q 426 1189 428 1192 l 342 1075 q 324 1067 336 1067 l 268 1067 z "},"Ố":{"ha":864,"x_min":100,"x_max":779,"o":"m 431 -11 q 257 29 332 -11 q 141 142 182 69 q 100 311 100 215 l 100 661 q 141 830 100 757 q 257 943 182 903 q 431 983 332 983 q 605 943 529 983 q 722 830 681 903 q 763 661 763 757 l 763 311 q 722 142 763 215 q 605 29 681 69 q 431 -11 529 -11 m 431 74 q 600 138 536 74 q 664 307 664 201 l 664 663 q 600 833 664 768 q 431 897 536 897 q 263 833 326 897 q 199 663 199 768 l 199 307 q 263 138 199 201 q 431 74 326 74 z "},"Ộ":{"ha":864,"x_min":100,"x_max":763,"o":"m 431 -11 q 257 29 332 -11 q 141 142 182 69 q 100 311 100 215 l 100 661 q 141 830 100 757 q 257 943 182 903 q 431 983 332 983 q 605 943 529 983 q 722 830 681 903 q 763 661 763 757 l 763 311 q 722 142 763 215 q 605 29 681 69 q 431 -11 529 -11 m 431 74 q 600 138 536 74 q 664 307 664 201 l 664 663 q 600 833 664 768 q 431 897 536 897 q 263 833 326 897 q 199 663 199 768 l 199 307 q 263 138 199 201 q 431 74 326 74 m 433 -256 q 381 -235 401 -256 q 360 -182 360 -214 q 381 -129 360 -150 q 433 -108 401 -108 q 486 -129 465 -108 q 507 -182 507 -150 q 485 -235 507 -214 q 433 -256 464 -256 m 268 1067 q 257 1072 260 1067 q 260 1083 254 1076 l 371 1233 q 389 1242 376 1242 l 469 1242 q 488 1233 482 1242 l 600 1083 q 603 1075 603 1081 q 600 1069 603 1072 q 592 1067 597 1067 l 536 1067 q 518 1075 524 1067 l 435 1189 q 431 1192 433 1192 q 426 1189 428 1192 l 342 1075 q 324 1067 336 1067 l 268 1067 z "},"Ồ":{"ha":864,"x_min":100,"x_max":763,"o":"m 431 -11 q 257 29 332 -11 q 141 142 182 69 q 100 311 100 215 l 100 661 q 141 830 100 757 q 257 943 182 903 q 431 983 332 983 q 605 943 529 983 q 722 830 681 903 q 763 661 763 757 l 763 311 q 722 142 763 215 q 605 29 681 69 q 431 -11 529 -11 m 431 74 q 600 138 536 74 q 664 307 664 201 l 664 663 q 600 833 664 768 q 431 897 536 897 q 263 833 326 897 q 199 663 199 768 l 199 307 q 263 138 199 201 q 431 74 326 74 z "},"Ổ":{"ha":864,"x_min":100,"x_max":763,"o":"m 431 -11 q 257 29 332 -11 q 141 142 182 69 q 100 311 100 215 l 100 661 q 141 830 100 757 q 257 943 182 903 q 431 983 332 983 q 605 943 529 983 q 722 830 681 903 q 763 661 763 757 l 763 311 q 722 142 763 215 q 605 29 681 69 q 431 -11 529 -11 m 431 74 q 600 138 536 74 q 664 307 664 201 l 664 663 q 600 833 664 768 q 431 897 536 897 q 263 833 326 897 q 199 663 199 768 l 199 307 q 263 138 199 201 q 431 74 326 74 z "},"Ỗ":{"ha":864,"x_min":100,"x_max":763,"o":"m 431 -11 q 257 29 332 -11 q 141 142 182 69 q 100 311 100 215 l 100 661 q 141 830 100 757 q 257 943 182 903 q 431 983 332 983 q 605 943 529 983 q 722 830 681 903 q 763 661 763 757 l 763 311 q 722 142 763 215 q 605 29 681 69 q 431 -11 529 -11 m 431 74 q 600 138 536 74 q 664 307 664 201 l 664 663 q 600 833 664 768 q 431 897 536 897 q 263 833 326 897 q 199 663 199 768 l 199 307 q 263 138 199 201 q 431 74 326 74 z "},"Ö":{"ha":864,"x_min":100,"x_max":763,"o":"m 431 -11 q 257 29 332 -11 q 141 142 182 69 q 100 311 100 215 l 100 661 q 141 830 100 757 q 257 943 182 903 q 431 983 332 983 q 605 943 529 983 q 722 830 681 903 q 763 661 763 757 l 763 311 q 722 142 763 215 q 605 29 681 69 q 431 -11 529 -11 m 431 74 q 600 138 536 74 q 664 307 664 201 l 664 663 q 600 833 664 768 q 431 897 536 897 q 263 833 326 897 q 199 663 199 768 l 199 307 q 263 138 199 201 q 431 74 326 74 z "},"Ọ":{"ha":864,"x_min":100,"x_max":763,"o":"m 431 -11 q 257 29 332 -11 q 141 142 182 69 q 100 311 100 215 l 100 661 q 141 830 100 757 q 257 943 182 903 q 431 983 332 983 q 605 943 529 983 q 722 830 681 903 q 763 661 763 757 l 763 311 q 722 142 763 215 q 605 29 681 69 q 431 -11 529 -11 m 431 74 q 600 138 536 74 q 664 307 664 201 l 664 663 q 600 833 664 768 q 431 897 536 897 q 263 833 326 897 q 199 663 199 768 l 199 307 q 263 138 199 201 q 431 74 326 74 m 433 -256 q 381 -235 401 -256 q 360 -182 360 -214 q 381 -129 360 -150 q 433 -108 401 -108 q 486 -129 465 -108 q 507 -182 507 -150 q 485 -235 507 -214 q 433 -256 464 -256 z "},"Ò":{"ha":864,"x_min":100,"x_max":763,"o":"m 431 -11 q 257 29 332 -11 q 141 142 182 69 q 100 311 100 215 l 100 661 q 141 830 100 757 q 257 943 182 903 q 431 983 332 983 q 605 943 529 983 q 722 830 681 903 q 763 661 763 757 l 763 311 q 722 142 763 215 q 605 29 681 69 q 431 -11 529 -11 m 431 74 q 600 138 536 74 q 664 307 664 201 l 664 663 q 600 833 664 768 q 431 897 536 897 q 263 833 326 897 q 199 663 199 768 l 199 307 q 263 138 199 201 q 431 74 326 74 m 468 1081 q 471 1072 471 1075 q 458 1064 471 1064 l 408 1064 q 392 1074 399 1064 l 297 1225 q 294 1233 294 1231 q 306 1242 294 1242 l 368 1242 q 385 1232 381 1242 l 468 1081 z "},"Ỏ":{"ha":864,"x_min":100,"x_max":763,"o":"m 431 -11 q 257 29 332 -11 q 141 142 182 69 q 100 311 100 215 l 100 661 q 141 830 100 757 q 257 943 182 903 q 431 983 332 983 q 605 943 529 983 q 722 830 681 903 q 763 661 763 757 l 763 311 q 722 142 763 215 q 605 29 681 69 q 431 -11 529 -11 m 431 74 q 600 138 536 74 q 664 307 664 201 l 664 663 q 600 833 664 768 q 431 897 536 897 q 263 833 326 897 q 199 663 199 768 l 199 307 q 263 138 199 201 q 431 74 326 74 m 421 1039 q 411 1045 414 1040 q 411 1056 408 1050 q 433 1093 421 1076 q 458 1122 446 1110 q 485 1153 476 1139 q 493 1188 493 1167 q 476 1222 493 1207 q 435 1238 458 1238 q 395 1226 411 1238 q 360 1188 379 1215 q 340 1185 351 1176 l 318 1199 q 314 1218 307 1207 q 367 1276 340 1258 q 438 1293 393 1293 q 522 1264 489 1293 q 554 1188 554 1235 q 542 1137 554 1157 q 503 1089 529 1117 q 464 1042 474 1063 q 446 1033 458 1032 l 421 1039 z "},"Ơ":{"ha":864,"x_min":100,"x_max":874,"o":"m 431 -11 q 257 29 332 -11 q 141 142 182 69 q 100 311 100 215 l 100 661 q 141 830 100 757 q 257 943 182 903 q 431 983 332 983 q 605 943 529 983 q 722 830 681 903 q 763 661 763 757 l 763 311 q 722 142 763 215 q 605 29 681 69 q 431 -11 529 -11 m 431 74 q 600 138 536 74 q 664 307 664 201 l 664 663 q 600 833 664 768 q 431 897 536 897 q 263 833 326 897 q 199 663 199 768 l 199 307 q 263 138 199 201 q 431 74 326 74 m 711 914 q 697 928 697 914 l 697 958 q 710 974 697 972 q 774 1001 746 976 q 807 1071 801 1026 q 821 1085 807 1085 l 860 1085 q 872 1068 874 1085 q 820 960 867 1000 q 711 914 774 919 z "},"Ớ":{"ha":864,"x_min":100,"x_max":874,"o":"m 431 -11 q 257 29 332 -11 q 141 142 182 69 q 100 311 100 215 l 100 661 q 141 830 100 757 q 257 943 182 903 q 431 983 332 983 q 605 943 529 983 q 722 830 681 903 q 763 661 763 757 l 763 311 q 722 142 763 215 q 605 29 681 69 q 431 -11 529 -11 m 431 74 q 600 138 536 74 q 664 307 664 201 l 664 663 q 600 833 664 768 q 431 897 536 897 q 263 833 326 897 q 199 663 199 768 l 199 307 q 263 138 199 201 q 431 74 326 74 m 711 914 q 697 928 697 914 l 697 958 q 710 974 697 972 q 774 1001 746 976 q 807 1071 801 1026 q 821 1085 807 1085 l 860 1085 q 872 1068 874 1085 q 820 960 867 1000 q 711 914 774 919 m 385 1064 q 374 1069 376 1064 q 375 1081 371 1074 l 458 1232 q 475 1242 463 1242 l 538 1242 q 548 1237 546 1242 q 546 1225 550 1232 l 451 1074 q 435 1064 444 1064 l 385 1064 z "},"Ợ":{"ha":864,"x_min":100,"x_max":874,"o":"m 431 -11 q 257 29 332 -11 q 141 142 182 69 q 100 311 100 215 l 100 661 q 141 830 100 757 q 257 943 182 903 q 431 983 332 983 q 605 943 529 983 q 722 830 681 903 q 763 661 763 757 l 763 311 q 722 142 763 215 q 605 29 681 69 q 431 -11 529 -11 m 431 74 q 600 138 536 74 q 664 307 664 201 l 664 663 q 600 833 664 768 q 431 897 536 897 q 263 833 326 897 q 199 663 199 768 l 199 307 q 263 138 199 201 q 431 74 326 74 m 711 914 q 697 928 697 914 l 697 958 q 710 974 697 972 q 774 1001 746 976 q 807 1071 801 1026 q 821 1085 807 1085 l 860 1085 q 872 1068 874 1085 q 820 960 867 1000 q 711 914 774 919 m 433 -256 q 381 -235 401 -256 q 360 -182 360 -214 q 381 -129 360 -150 q 433 -108 401 -108 q 486 -129 465 -108 q 507 -182 507 -150 q 485 -235 507 -214 q 433 -256 464 -256 z "},"Ờ":{"ha":864,"x_min":100,"x_max":874,"o":"m 431 -11 q 257 29 332 -11 q 141 142 182 69 q 100 311 100 215 l 100 661 q 141 830 100 757 q 257 943 182 903 q 431 983 332 983 q 605 943 529 983 q 722 830 681 903 q 763 661 763 757 l 763 311 q 722 142 763 215 q 605 29 681 69 q 431 -11 529 -11 m 431 74 q 600 138 536 74 q 664 307 664 201 l 664 663 q 600 833 664 768 q 431 897 536 897 q 263 833 326 897 q 199 663 199 768 l 199 307 q 263 138 199 201 q 431 74 326 74 m 711 914 q 697 928 697 914 l 697 958 q 710 974 697 972 q 774 1001 746 976 q 807 1071 801 1026 q 821 1085 807 1085 l 860 1085 q 872 1068 874 1085 q 820 960 867 1000 q 711 914 774 919 m 468 1081 q 471 1072 471 1075 q 458 1064 471 1064 l 408 1064 q 392 1074 399 1064 l 297 1225 q 294 1233 294 1231 q 306 1242 294 1242 l 368 1242 q 385 1232 381 1242 l 468 1081 z "},"Ở":{"ha":864,"x_min":100,"x_max":874,"o":"m 431 -11 q 257 29 332 -11 q 141 142 182 69 q 100 311 100 215 l 100 661 q 141 830 100 757 q 257 943 182 903 q 431 983 332 983 q 605 943 529 983 q 722 830 681 903 q 763 661 763 757 l 763 311 q 722 142 763 215 q 605 29 681 69 q 431 -11 529 -11 m 431 74 q 600 138 536 74 q 664 307 664 201 l 664 663 q 600 833 664 768 q 431 897 536 897 q 263 833 326 897 q 199 663 199 768 l 199 307 q 263 138 199 201 q 431 74 326 74 m 711 914 q 697 928 697 914 l 697 958 q 710 974 697 972 q 774 1001 746 976 q 807 1071 801 1026 q 821 1085 807 1085 l 860 1085 q 872 1068 874 1085 q 820 960 867 1000 q 711 914 774 919 m 421 1039 q 411 1045 414 1040 q 411 1056 408 1050 q 433 1093 421 1076 q 458 1122 446 1110 q 485 1153 476 1139 q 493 1188 493 1167 q 476 1222 493 1207 q 435 1238 458 1238 q 395 1226 411 1238 q 360 1188 379 1215 q 340 1185 351 1176 l 318 1199 q 314 1218 307 1207 q 367 1276 340 1258 q 438 1293 393 1293 q 522 1264 489 1293 q 554 1188 554 1235 q 542 1137 554 1157 q 503 1089 529 1117 q 464 1042 474 1063 q 446 1033 458 1032 l 421 1039 z "},"Ỡ":{"ha":864,"x_min":100,"x_max":874,"o":"m 431 -11 q 257 29 332 -11 q 141 142 182 69 q 100 311 100 215 l 100 661 q 141 830 100 757 q 257 943 182 903 q 431 983 332 983 q 605 943 529 983 q 722 830 681 903 q 763 661 763 757 l 763 311 q 722 142 763 215 q 605 29 681 69 q 431 -11 529 -11 m 431 74 q 600 138 536 74 q 664 307 664 201 l 664 663 q 600 833 664 768 q 431 897 536 897 q 263 833 326 897 q 199 663 199 768 l 199 307 q 263 138 199 201 q 431 74 326 74 m 711 914 q 697 928 697 914 l 697 958 q 710 974 697 972 q 774 1001 746 976 q 807 1071 801 1026 q 821 1085 807 1085 l 860 1085 q 872 1068 874 1085 q 820 960 867 1000 q 711 914 774 919 m 506 1119 q 460 1128 479 1119 q 419 1150 440 1136 q 381 1171 394 1165 q 350 1176 367 1176 q 308 1169 325 1176 q 274 1142 290 1161 q 254 1139 265 1129 l 229 1164 q 226 1183 219 1174 q 346 1251 272 1251 q 385 1244 368 1251 q 417 1230 403 1238 q 436 1219 432 1222 q 456 1208 442 1217 q 483 1196 471 1200 q 506 1192 494 1192 q 579 1231 551 1192 q 599 1233 588 1244 l 624 1210 q 625 1189 633 1200 q 573 1138 606 1156 q 506 1119 540 1119 z "},"Ő":{"ha":864,"x_min":100,"x_max":763,"o":"m 431 -11 q 257 29 332 -11 q 141 142 182 69 q 100 311 100 215 l 100 661 q 141 830 100 757 q 257 943 182 903 q 431 983 332 983 q 605 943 529 983 q 722 830 681 903 q 763 661 763 757 l 763 311 q 722 142 763 215 q 605 29 681 69 q 431 -11 529 -11 m 431 74 q 600 138 536 74 q 664 307 664 201 l 664 663 q 600 833 664 768 q 431 897 536 897 q 263 833 326 897 q 199 663 199 768 l 199 307 q 263 138 199 201 q 431 74 326 74 m 285 1064 q 275 1069 278 1064 q 275 1081 272 1074 l 353 1232 q 369 1242 357 1242 l 433 1242 q 444 1237 442 1242 q 443 1225 447 1232 l 360 1074 q 343 1064 356 1064 l 285 1064 m 513 1064 q 501 1069 504 1064 q 501 1081 497 1074 l 583 1232 q 600 1242 588 1242 l 660 1242 q 671 1237 668 1242 q 669 1225 674 1232 l 585 1074 q 568 1064 578 1064 l 513 1064 z "},"Ō":{"ha":864,"x_min":100,"x_max":763,"o":"m 431 -11 q 257 29 332 -11 q 141 142 182 69 q 100 311 100 215 l 100 661 q 141 830 100 757 q 257 943 182 903 q 431 983 332 983 q 605 943 529 983 q 722 830 681 903 q 763 661 763 757 l 763 311 q 722 142 763 215 q 605 29 681 69 q 431 -11 529 -11 m 431 74 q 600 138 536 74 q 664 307 664 201 l 664 663 q 600 833 664 768 q 431 897 536 897 q 263 833 326 897 q 199 663 199 768 l 199 307 q 263 138 199 201 q 431 74 326 74 m 258 1094 q 244 1108 244 1094 l 244 1151 q 258 1165 244 1165 l 604 1165 q 618 1151 618 1165 l 618 1108 q 604 1094 618 1094 l 258 1094 z "},"Ø":{"ha":864,"x_min":69,"x_max":793,"o":"m 782 963 q 786 943 793 954 l 719 842 q 719 833 718 838 q 764 661 764 761 l 764 311 q 722 142 764 215 q 605 29 681 69 q 431 -11 529 -11 q 214 57 304 -11 q 207 56 210 61 l 153 -26 q 135 -31 146 -37 l 81 4 q 75 22 69 13 l 144 129 q 144 138 147 133 q 101 311 101 211 l 101 661 q 142 830 101 757 q 258 943 183 903 q 431 983 333 983 q 650 915 560 983 q 657 917 654 911 l 710 996 q 718 1003 713 1001 q 729 1000 724 1004 l 782 963 m 200 307 q 208 238 200 271 q 213 235 210 235 q 217 238 215 235 l 600 826 q 599 835 603 831 q 431 897 536 897 q 263 833 326 897 q 200 663 200 768 l 200 307 m 665 663 q 657 733 665 699 q 653 736 656 736 q 649 733 651 736 l 264 143 q 265 135 261 139 q 431 74 326 74 q 601 138 536 74 q 665 307 665 201 l 665 663 z "},"Õ":{"ha":864,"x_min":100,"x_max":763,"o":"m 431 -11 q 257 29 332 -11 q 141 142 182 69 q 100 311 100 215 l 100 661 q 141 830 100 757 q 257 943 182 903 q 431 983 332 983 q 605 943 529 983 q 722 830 681 903 q 763 661 763 757 l 763 311 q 722 142 763 215 q 605 29 681 69 q 431 -11 529 -11 m 431 74 q 600 138 536 74 q 664 307 664 201 l 664 663 q 600 833 664 768 q 431 897 536 897 q 263 833 326 897 q 199 663 199 768 l 199 307 q 263 138 199 201 q 431 74 326 74 m 518 1107 q 472 1115 492 1107 q 432 1138 453 1124 q 393 1158 407 1153 q 363 1164 379 1164 q 320 1156 338 1164 q 286 1129 303 1149 q 267 1126 278 1117 l 242 1151 q 239 1171 232 1161 q 358 1239 285 1239 q 398 1232 381 1239 q 430 1217 415 1225 q 449 1207 444 1210 q 469 1196 454 1204 q 495 1183 483 1188 q 518 1179 507 1179 q 592 1218 564 1179 q 611 1221 600 1232 l 636 1197 q 638 1176 646 1188 q 585 1125 618 1143 q 518 1107 553 1107 z "},"Œ":{"ha":1278,"x_min":100,"x_max":1197,"o":"m 1197 900 q 1183 886 1197 886 l 729 886 q 724 881 724 886 l 724 538 q 729 532 724 532 l 1031 532 q 1044 518 1044 532 l 1044 460 q 1031 446 1044 446 l 729 446 q 724 440 724 446 l 724 92 q 729 86 724 86 l 1183 86 q 1197 72 1197 86 l 1197 14 q 1183 0 1197 0 l 639 0 q 625 14 625 0 l 625 82 q 618 85 625 89 q 517 14 576 39 q 390 -11 458 -11 q 241 28 307 -11 q 138 135 175 67 q 100 290 100 203 l 100 681 q 138 837 100 768 q 241 944 175 906 q 390 983 307 983 q 517 958 458 983 q 618 888 576 933 q 625 890 625 883 l 625 958 q 639 972 625 972 l 1183 972 q 1197 958 1197 972 l 1197 900 m 411 74 q 566 134 507 74 q 625 288 625 194 l 625 682 q 566 837 625 776 q 411 897 507 897 q 258 837 317 897 q 199 682 199 776 l 199 288 q 258 134 199 194 q 411 74 317 74 z "},"P":{"ha":822,"x_min":121,"x_max":771,"o":"m 500 974 q 697 899 622 974 q 771 701 771 824 q 695 507 771 581 q 496 433 619 433 l 225 433 q 219 428 219 433 l 219 14 q 206 0 219 0 l 135 0 q 121 14 121 0 l 121 960 q 135 974 121 974 l 500 974 m 489 515 q 622 566 571 515 q 674 700 674 617 q 622 836 674 785 q 489 888 571 888 l 225 888 q 219 882 219 888 l 219 521 q 225 515 219 515 l 489 515 z "},"Þ":{"ha":788,"x_min":121,"x_max":738,"o":"m 465 754 q 663 680 588 754 q 738 485 738 606 q 702 345 738 406 q 604 251 667 285 q 463 218 542 218 l 225 218 q 219 213 219 218 l 219 14 q 206 0 219 0 l 135 0 q 121 14 121 0 l 121 958 q 135 972 121 972 l 206 972 q 219 958 219 972 l 219 760 q 225 754 219 754 l 465 754 m 456 300 q 589 350 539 300 q 639 483 639 400 q 589 618 639 568 q 456 668 539 668 l 225 668 q 219 663 219 668 l 219 306 q 225 300 219 300 l 456 300 z "},"Q":{"ha":800,"x_min":81,"x_max":719,"o":"m 400 983 q 567 944 494 983 q 680 833 640 904 q 719 669 719 763 l 719 297 q 648 90 719 172 q 456 -8 576 8 q 450 -14 450 -8 l 450 -146 q 436 -160 450 -160 l 365 -160 q 351 -146 351 -160 l 351 -14 q 346 -8 351 -8 q 153 90 225 8 q 81 297 81 172 l 81 669 q 120 833 81 763 q 233 944 160 904 q 400 983 306 983 m 621 674 q 560 835 621 774 q 400 897 499 897 q 240 835 301 897 q 179 674 179 774 l 179 299 q 240 137 179 199 q 400 75 301 75 q 560 137 499 75 q 621 299 621 199 l 621 674 z "},"R":{"ha":850,"x_min":131,"x_max":782,"o":"m 697 0 q 681 10 685 0 l 476 440 q 471 444 475 444 l 235 444 q 229 439 229 444 l 229 14 q 215 0 229 0 l 144 0 q 131 14 131 0 l 131 958 q 144 972 131 972 l 504 972 q 697 898 624 972 q 771 704 771 824 q 718 539 771 607 q 575 451 665 471 q 572 444 569 449 l 781 17 q 782 10 782 14 q 771 0 782 0 l 697 0 m 235 886 q 229 881 229 886 l 229 529 q 235 524 229 524 l 493 524 q 624 574 574 524 q 674 704 674 624 q 624 835 674 785 q 493 886 574 886 l 235 886 z "},"Ŕ":{"ha":850,"x_min":131,"x_max":782,"o":"m 697 0 q 681 10 685 0 l 476 440 q 471 444 475 444 l 235 444 q 229 439 229 444 l 229 14 q 215 0 229 0 l 144 0 q 131 14 131 0 l 131 958 q 144 972 131 972 l 504 972 q 697 898 624 972 q 771 704 771 824 q 718 539 771 607 q 575 451 665 471 q 572 444 569 449 l 781 17 q 782 10 782 14 q 771 0 782 0 l 697 0 m 235 886 q 229 881 229 886 l 229 529 q 235 524 229 524 l 493 524 q 624 574 574 524 q 674 704 674 624 q 624 835 674 785 q 493 886 574 886 l 235 886 m 368 1064 q 357 1069 360 1064 q 358 1081 354 1074 l 442 1232 q 458 1242 446 1242 l 521 1242 q 531 1237 529 1242 q 529 1225 533 1232 l 435 1074 q 418 1064 428 1064 l 368 1064 z "},"Ř":{"ha":850,"x_min":131,"x_max":782,"o":"m 697 0 q 681 10 685 0 l 476 440 q 471 444 475 444 l 235 444 q 229 439 229 444 l 229 14 q 215 0 229 0 l 144 0 q 131 14 131 0 l 131 958 q 144 972 131 972 l 504 972 q 697 898 624 972 q 771 704 771 824 q 718 539 771 607 q 575 451 665 471 q 572 444 569 449 l 781 17 q 782 10 782 14 q 771 0 782 0 l 697 0 m 235 886 q 229 881 229 886 l 229 529 q 235 524 229 524 l 493 524 q 624 574 574 524 q 674 704 674 624 q 624 835 674 785 q 493 886 574 886 l 235 886 m 247 1225 q 244 1233 244 1228 q 247 1239 244 1236 q 256 1242 250 1242 l 311 1242 q 329 1233 324 1242 l 414 1119 q 418 1118 415 1118 q 422 1119 421 1118 l 506 1233 q 524 1242 511 1242 l 579 1242 q 590 1237 588 1242 q 588 1225 593 1232 l 475 1075 q 457 1067 469 1067 l 376 1067 q 358 1075 364 1067 l 247 1225 z "},"S":{"ha":811,"x_min":72,"x_max":736,"o":"m 411 -11 q 163 60 254 -11 q 72 249 72 131 l 72 292 q 86 306 72 306 l 154 306 q 168 292 168 306 l 168 254 q 235 124 168 174 q 419 75 301 75 q 582 120 526 75 q 638 240 638 165 q 612 324 638 289 q 533 389 586 358 q 382 460 479 419 q 220 533 278 501 q 127 613 163 564 q 92 738 92 663 q 173 919 92 854 q 396 983 254 983 q 639 911 550 983 q 728 719 728 839 l 728 689 q 714 675 728 675 l 644 675 q 631 689 631 675 l 631 714 q 567 846 631 794 q 392 897 504 897 q 240 857 293 897 q 188 740 188 817 q 213 658 188 690 q 287 601 239 625 q 435 538 335 576 q 598 460 536 496 q 698 372 660 424 q 736 244 736 319 q 650 58 736 128 q 411 -11 564 -11 z "},"Ś":{"ha":811,"x_min":72,"x_max":736,"o":"m 411 -11 q 163 60 254 -11 q 72 249 72 131 l 72 292 q 86 306 72 306 l 154 306 q 168 292 168 306 l 168 254 q 235 124 168 174 q 419 75 301 75 q 582 120 526 75 q 638 240 638 165 q 612 324 638 289 q 533 389 586 358 q 382 460 479 419 q 220 533 278 501 q 127 613 163 564 q 92 738 92 663 q 173 919 92 854 q 396 983 254 983 q 639 911 550 983 q 728 719 728 839 l 728 689 q 714 675 728 675 l 644 675 q 631 689 631 675 l 631 714 q 567 846 631 794 q 392 897 504 897 q 240 857 293 897 q 188 740 188 817 q 213 658 188 690 q 287 601 239 625 q 435 538 335 576 q 598 460 536 496 q 698 372 660 424 q 736 244 736 319 q 650 58 736 128 q 411 -11 564 -11 m 351 1064 q 340 1069 343 1064 q 342 1081 338 1074 l 425 1232 q 442 1242 429 1242 l 504 1242 q 515 1237 513 1242 q 513 1225 517 1232 l 418 1074 q 401 1064 411 1064 l 351 1064 z "},"Š":{"ha":811,"x_min":72,"x_max":736,"o":"m 411 -11 q 163 60 254 -11 q 72 249 72 131 l 72 292 q 86 306 72 306 l 154 306 q 168 292 168 306 l 168 254 q 235 124 168 174 q 419 75 301 75 q 582 120 526 75 q 638 240 638 165 q 612 324 638 289 q 533 389 586 358 q 382 460 479 419 q 220 533 278 501 q 127 613 163 564 q 92 738 92 663 q 173 919 92 854 q 396 983 254 983 q 639 911 550 983 q 728 719 728 839 l 728 689 q 714 675 728 675 l 644 675 q 631 689 631 675 l 631 714 q 567 846 631 794 q 392 897 504 897 q 240 857 293 897 q 188 740 188 817 q 213 658 188 690 q 287 601 239 625 q 435 538 335 576 q 598 460 536 496 q 698 372 660 424 q 736 244 736 319 q 650 58 736 128 q 411 -11 564 -11 m 231 1225 q 228 1233 228 1228 q 231 1239 228 1236 q 239 1242 233 1242 l 294 1242 q 313 1233 307 1242 l 397 1119 q 401 1118 399 1118 q 406 1119 404 1118 l 489 1233 q 507 1242 494 1242 l 563 1242 q 574 1237 571 1242 q 571 1225 576 1232 l 458 1075 q 440 1067 453 1067 l 360 1067 q 342 1075 347 1067 l 231 1225 z "},"Ş":{"ha":811,"x_min":72,"x_max":736,"o":"m 736 244 q 661 68 736 136 q 451 -10 586 0 q 449 -17 444 -10 q 518 -144 518 -76 q 515 -175 518 -165 q 471 -239 504 -219 q 393 -258 438 -258 q 336 -251 364 -258 q 326 -235 325 -247 l 332 -203 q 338 -194 333 -196 q 349 -193 343 -192 q 379 -197 365 -197 q 427 -181 408 -197 q 446 -132 446 -164 q 426 -71 446 -101 q 371 -12 406 -40 q 364 -10 369 -10 q 150 71 228 1 q 72 249 72 140 l 72 292 q 86 306 72 306 l 154 306 q 168 292 168 306 l 168 254 q 235 124 168 174 q 419 75 301 75 q 582 120 526 75 q 638 240 638 165 q 612 324 638 289 q 533 389 586 358 q 382 460 479 419 q 220 533 278 501 q 127 613 163 564 q 92 738 92 663 q 173 919 92 854 q 396 983 254 983 q 639 911 550 983 q 728 719 728 839 l 728 689 q 714 675 728 675 l 644 675 q 631 689 631 675 l 631 714 q 567 846 631 794 q 392 897 504 897 q 240 857 293 897 q 188 740 188 817 q 213 658 188 690 q 287 601 239 625 q 435 538 335 576 q 598 460 536 496 q 698 372 660 424 q 736 244 736 319 z "},"Ŝ":{"ha":811,"x_min":72,"x_max":736,"o":"m 411 -11 q 163 60 254 -11 q 72 249 72 131 l 72 292 q 86 306 72 306 l 154 306 q 168 292 168 306 l 168 254 q 235 124 168 174 q 419 75 301 75 q 582 120 526 75 q 638 240 638 165 q 612 324 638 289 q 533 389 586 358 q 382 460 479 419 q 220 533 278 501 q 127 613 163 564 q 92 738 92 663 q 173 919 92 854 q 396 983 254 983 q 639 911 550 983 q 728 719 728 839 l 728 689 q 714 675 728 675 l 644 675 q 631 689 631 675 l 631 714 q 567 846 631 794 q 392 897 504 897 q 240 857 293 897 q 188 740 188 817 q 213 658 188 690 q 287 601 239 625 q 435 538 335 576 q 598 460 536 496 q 698 372 660 424 q 736 244 736 319 q 650 58 736 128 q 411 -11 564 -11 m 235 1067 q 224 1072 226 1067 q 226 1083 221 1076 l 338 1233 q 356 1242 343 1242 l 436 1242 q 454 1233 449 1242 l 567 1083 q 569 1075 569 1081 q 567 1069 569 1072 q 558 1067 564 1067 l 503 1067 q 485 1075 490 1067 l 401 1189 q 397 1192 400 1192 q 393 1189 394 1192 l 308 1075 q 290 1067 303 1067 l 235 1067 z "},"Ə":{"ha":815,"x_min":90,"x_max":714,"o":"m 694 586 q 710 503 706 549 q 714 389 714 458 q 710 282 714 324 q 699 204 707 240 q 595 47 674 106 q 404 -12 517 -12 q 199 56 279 -12 q 97 238 118 124 q 90 344 90 276 l 90 411 q 104 425 90 425 l 611 425 q 617 431 617 425 q 604 556 614 524 q 531 669 586 628 q 389 711 475 711 q 269 676 321 710 q 189 588 217 643 q 171 581 182 574 l 115 614 q 110 633 104 621 q 219 752 146 708 q 393 796 293 796 q 586 740 507 796 q 694 586 665 685 m 404 74 q 537 116 483 74 q 607 229 590 158 q 617 333 614 261 q 611 339 617 339 l 194 339 q 189 333 189 339 q 199 232 192 254 q 268 117 214 161 q 404 74 322 74 z "},"T":{"ha":790,"x_min":60,"x_max":731,"o":"m 717 972 q 731 958 731 972 l 731 899 q 717 885 731 885 l 444 885 q 439 879 439 885 l 439 14 q 425 0 439 0 l 354 0 q 340 14 340 0 l 340 879 q 335 885 340 885 l 74 885 q 60 899 60 885 l 60 958 q 74 972 60 972 l 717 972 z "},"Ŧ":{"ha":790,"x_min":60,"x_max":731,"o":"m 731 899 q 717 885 731 885 l 444 885 q 439 879 439 885 l 439 588 q 444 582 439 582 l 597 582 q 611 568 611 582 l 611 529 q 597 515 611 515 l 444 515 q 439 510 439 515 l 439 14 q 425 0 439 0 l 354 0 q 340 14 340 0 l 340 510 q 335 515 340 515 l 185 515 q 171 529 171 515 l 171 568 q 185 582 171 582 l 335 582 q 340 588 340 582 l 340 879 q 335 885 340 885 l 74 885 q 60 899 60 885 l 60 958 q 74 972 60 972 l 717 972 q 731 958 731 972 l 731 899 z "},"Ť":{"ha":790,"x_min":60,"x_max":731,"o":"m 717 972 q 731 958 731 972 l 731 899 q 717 885 731 885 l 444 885 q 439 879 439 885 l 439 14 q 425 0 439 0 l 354 0 q 340 14 340 0 l 340 879 q 335 885 340 885 l 74 885 q 60 899 60 885 l 60 958 q 74 972 60 972 l 717 972 z "},"U":{"ha":900,"x_min":119,"x_max":781,"o":"m 450 -11 q 278 28 353 -11 q 161 137 203 67 q 119 300 119 207 l 119 958 q 133 972 119 972 l 204 972 q 218 958 218 972 l 218 297 q 282 137 218 199 q 450 75 346 75 q 618 137 554 75 q 682 297 682 199 l 682 958 q 696 972 682 972 l 767 972 q 781 958 781 972 l 781 300 q 740 137 781 207 q 624 28 699 67 q 450 -11 549 -11 z "},"Ú":{"ha":900,"x_min":119,"x_max":781,"o":"m 450 -11 q 278 28 353 -11 q 161 137 203 67 q 119 300 119 207 l 119 958 q 133 972 119 972 l 204 972 q 218 958 218 972 l 218 297 q 282 137 218 199 q 450 75 346 75 q 618 137 554 75 q 682 297 682 199 l 682 958 q 696 972 682 972 l 767 972 q 781 958 781 972 l 781 300 q 740 137 781 207 q 624 28 699 67 q 450 -11 549 -11 m 404 1064 q 393 1069 396 1064 q 394 1081 390 1074 l 478 1232 q 494 1242 482 1242 l 557 1242 q 567 1237 565 1242 q 565 1225 569 1232 l 471 1074 q 454 1064 464 1064 l 404 1064 z "},"Ŭ":{"ha":900,"x_min":119,"x_max":781,"o":"m 450 -11 q 278 28 353 -11 q 161 137 203 67 q 119 300 119 207 l 119 958 q 133 972 119 972 l 204 972 q 218 958 218 972 l 218 297 q 282 137 218 199 q 450 75 346 75 q 618 137 554 75 q 682 297 682 199 l 682 958 q 696 972 682 972 l 767 972 q 781 958 781 972 l 781 300 q 740 137 781 207 q 624 28 699 67 q 450 -11 549 -11 m 449 1078 q 333 1117 381 1078 q 279 1215 286 1157 l 279 1218 q 292 1229 279 1229 l 329 1229 q 344 1215 343 1229 q 379 1157 350 1181 q 449 1133 408 1133 q 520 1156 490 1133 q 554 1215 550 1179 q 569 1229 556 1229 l 607 1229 q 621 1217 621 1229 q 567 1117 615 1157 q 449 1078 518 1078 z "},"Û":{"ha":900,"x_min":119,"x_max":781,"o":"m 450 -11 q 278 28 353 -11 q 161 137 203 67 q 119 300 119 207 l 119 958 q 133 972 119 972 l 204 972 q 218 958 218 972 l 218 297 q 282 137 218 199 q 450 75 346 75 q 618 137 554 75 q 682 297 682 199 l 682 958 q 696 972 682 972 l 767 972 q 781 958 781 972 l 781 300 q 740 137 781 207 q 624 28 699 67 q 450 -11 549 -11 m 288 1067 q 276 1072 279 1067 q 279 1083 274 1076 l 390 1233 q 408 1242 396 1242 l 489 1242 q 507 1233 501 1242 l 619 1083 q 622 1075 622 1081 q 619 1069 622 1072 q 611 1067 617 1067 l 556 1067 q 538 1075 543 1067 l 454 1189 q 450 1192 453 1192 q 446 1189 447 1192 l 361 1075 q 343 1067 356 1067 l 288 1067 z "},"Ü":{"ha":900,"x_min":119,"x_max":781,"o":"m 450 -11 q 278 28 353 -11 q 161 137 203 67 q 119 300 119 207 l 119 958 q 133 972 119 972 l 204 972 q 218 958 218 972 l 218 297 q 282 137 218 199 q 450 75 346 75 q 618 137 554 75 q 682 297 682 199 l 682 958 q 696 972 682 972 l 767 972 q 781 958 781 972 l 781 300 q 740 137 781 207 q 624 28 699 67 q 450 -11 549 -11 z "},"Ụ":{"ha":900,"x_min":119,"x_max":781,"o":"m 450 -11 q 278 28 353 -11 q 161 137 203 67 q 119 300 119 207 l 119 958 q 133 972 119 972 l 204 972 q 218 958 218 972 l 218 297 q 282 137 218 199 q 450 75 346 75 q 618 137 554 75 q 682 297 682 199 l 682 958 q 696 972 682 972 l 767 972 q 781 958 781 972 l 781 300 q 740 137 781 207 q 624 28 699 67 q 450 -11 549 -11 m 453 -256 q 400 -235 421 -256 q 379 -182 379 -214 q 400 -129 379 -150 q 453 -108 421 -108 q 506 -129 485 -108 q 526 -182 526 -150 q 505 -235 526 -214 q 453 -256 483 -256 z "},"Ù":{"ha":900,"x_min":119,"x_max":781,"o":"m 450 -11 q 278 28 353 -11 q 161 137 203 67 q 119 300 119 207 l 119 958 q 133 972 119 972 l 204 972 q 218 958 218 972 l 218 297 q 282 137 218 199 q 450 75 346 75 q 618 137 554 75 q 682 297 682 199 l 682 958 q 696 972 682 972 l 767 972 q 781 958 781 972 l 781 300 q 740 137 781 207 q 624 28 699 67 q 450 -11 549 -11 m 488 1081 q 490 1072 490 1075 q 478 1064 490 1064 l 428 1064 q 411 1074 418 1064 l 317 1225 q 314 1233 314 1231 q 325 1242 314 1242 l 388 1242 q 404 1232 400 1242 l 488 1081 z "},"Ủ":{"ha":900,"x_min":119,"x_max":781,"o":"m 450 -11 q 278 28 353 -11 q 161 137 203 67 q 119 300 119 207 l 119 958 q 133 972 119 972 l 204 972 q 218 958 218 972 l 218 297 q 282 137 218 199 q 450 75 346 75 q 618 137 554 75 q 682 297 682 199 l 682 958 q 696 972 682 972 l 767 972 q 781 958 781 972 l 781 300 q 740 137 781 207 q 624 28 699 67 q 450 -11 549 -11 m 439 1039 q 429 1045 432 1040 q 429 1056 426 1050 q 451 1093 439 1076 q 476 1122 464 1110 q 503 1153 494 1139 q 511 1188 511 1167 q 494 1222 511 1207 q 453 1238 476 1238 q 413 1226 429 1238 q 378 1188 397 1215 q 358 1185 369 1176 l 336 1199 q 332 1218 325 1207 q 385 1276 358 1258 q 456 1293 411 1293 q 540 1264 507 1293 q 572 1188 572 1235 q 560 1137 572 1157 q 521 1089 547 1117 q 482 1042 492 1063 q 464 1033 476 1032 l 439 1039 z "},"Ư":{"ha":900,"x_min":119,"x_max":961,"o":"m 450 -11 q 278 28 353 -11 q 161 137 203 67 q 119 300 119 207 l 119 958 q 133 972 119 972 l 204 972 q 218 958 218 972 l 218 297 q 282 137 218 199 q 450 75 346 75 q 618 137 554 75 q 682 297 682 199 l 682 958 q 696 972 682 972 l 767 972 q 781 958 781 972 l 781 300 q 740 137 781 207 q 624 28 699 67 q 450 -11 549 -11 m 799 914 q 785 928 785 914 l 785 958 q 797 974 785 972 q 861 1001 833 976 q 894 1071 889 1026 q 908 1085 894 1085 l 947 1085 q 960 1068 961 1085 q 908 960 954 1000 q 799 914 861 919 z "},"Ứ":{"ha":900,"x_min":119,"x_max":961,"o":"m 450 -11 q 278 28 353 -11 q 161 137 203 67 q 119 300 119 207 l 119 958 q 133 972 119 972 l 204 972 q 218 958 218 972 l 218 297 q 282 137 218 199 q 450 75 346 75 q 618 137 554 75 q 682 297 682 199 l 682 958 q 696 972 682 972 l 767 972 q 781 958 781 972 l 781 300 q 740 137 781 207 q 624 28 699 67 q 450 -11 549 -11 m 799 914 q 785 928 785 914 l 785 958 q 797 974 785 972 q 861 1001 833 976 q 894 1071 889 1026 q 908 1085 894 1085 l 947 1085 q 960 1068 961 1085 q 908 960 954 1000 q 799 914 861 919 m 404 1064 q 393 1069 396 1064 q 394 1081 390 1074 l 478 1232 q 494 1242 482 1242 l 557 1242 q 567 1237 565 1242 q 565 1225 569 1232 l 471 1074 q 454 1064 464 1064 l 404 1064 z "},"Ự":{"ha":900,"x_min":119,"x_max":961,"o":"m 450 -11 q 278 28 353 -11 q 161 137 203 67 q 119 300 119 207 l 119 958 q 133 972 119 972 l 204 972 q 218 958 218 972 l 218 297 q 282 137 218 199 q 450 75 346 75 q 618 137 554 75 q 682 297 682 199 l 682 958 q 696 972 682 972 l 767 972 q 781 958 781 972 l 781 300 q 740 137 781 207 q 624 28 699 67 q 450 -11 549 -11 m 799 914 q 785 928 785 914 l 785 958 q 797 974 785 972 q 861 1001 833 976 q 894 1071 889 1026 q 908 1085 894 1085 l 947 1085 q 960 1068 961 1085 q 908 960 954 1000 q 799 914 861 919 m 453 -256 q 400 -235 421 -256 q 379 -182 379 -214 q 400 -129 379 -150 q 453 -108 421 -108 q 506 -129 485 -108 q 526 -182 526 -150 q 505 -235 526 -214 q 453 -256 483 -256 z "},"Ừ":{"ha":900,"x_min":119,"x_max":961,"o":"m 450 -11 q 278 28 353 -11 q 161 137 203 67 q 119 300 119 207 l 119 958 q 133 972 119 972 l 204 972 q 218 958 218 972 l 218 297 q 282 137 218 199 q 450 75 346 75 q 618 137 554 75 q 682 297 682 199 l 682 958 q 696 972 682 972 l 767 972 q 781 958 781 972 l 781 300 q 740 137 781 207 q 624 28 699 67 q 450 -11 549 -11 m 799 914 q 785 928 785 914 l 785 958 q 797 974 785 972 q 861 1001 833 976 q 894 1071 889 1026 q 908 1085 894 1085 l 947 1085 q 960 1068 961 1085 q 908 960 954 1000 q 799 914 861 919 m 488 1081 q 490 1072 490 1075 q 478 1064 490 1064 l 428 1064 q 411 1074 418 1064 l 317 1225 q 314 1233 314 1231 q 325 1242 314 1242 l 388 1242 q 404 1232 400 1242 l 488 1081 z "},"Ử":{"ha":900,"x_min":119,"x_max":961,"o":"m 450 -11 q 278 28 353 -11 q 161 137 203 67 q 119 300 119 207 l 119 958 q 133 972 119 972 l 204 972 q 218 958 218 972 l 218 297 q 282 137 218 199 q 450 75 346 75 q 618 137 554 75 q 682 297 682 199 l 682 958 q 696 972 682 972 l 767 972 q 781 958 781 972 l 781 300 q 740 137 781 207 q 624 28 699 67 q 450 -11 549 -11 m 799 914 q 785 928 785 914 l 785 958 q 797 974 785 972 q 861 1001 833 976 q 894 1071 889 1026 q 908 1085 894 1085 l 947 1085 q 960 1068 961 1085 q 908 960 954 1000 q 799 914 861 919 m 439 1039 q 429 1045 432 1040 q 429 1056 426 1050 q 451 1093 439 1076 q 476 1122 464 1110 q 503 1153 494 1139 q 511 1188 511 1167 q 494 1222 511 1207 q 453 1238 476 1238 q 413 1226 429 1238 q 378 1188 397 1215 q 358 1185 369 1176 l 336 1199 q 332 1218 325 1207 q 385 1276 358 1258 q 456 1293 411 1293 q 540 1264 507 1293 q 572 1188 572 1235 q 560 1137 572 1157 q 521 1089 547 1117 q 482 1042 492 1063 q 464 1033 476 1032 l 439 1039 z "},"Ữ":{"ha":900,"x_min":119,"x_max":961,"o":"m 450 -11 q 278 28 353 -11 q 161 137 203 67 q 119 300 119 207 l 119 958 q 133 972 119 972 l 204 972 q 218 958 218 972 l 218 297 q 282 137 218 199 q 450 75 346 75 q 618 137 554 75 q 682 297 682 199 l 682 958 q 696 972 682 972 l 767 972 q 781 958 781 972 l 781 300 q 740 137 781 207 q 624 28 699 67 q 450 -11 549 -11 m 799 914 q 785 928 785 914 l 785 958 q 797 974 785 972 q 861 1001 833 976 q 894 1071 889 1026 q 908 1085 894 1085 l 947 1085 q 960 1068 961 1085 q 908 960 954 1000 q 799 914 861 919 m 538 1107 q 492 1115 511 1107 q 451 1138 472 1124 q 413 1158 426 1153 q 382 1164 399 1164 q 340 1156 357 1164 q 306 1129 322 1149 q 286 1126 297 1117 l 261 1151 q 258 1171 251 1161 q 378 1239 304 1239 q 417 1232 400 1239 q 449 1217 435 1225 q 468 1207 464 1210 q 488 1196 474 1204 q 515 1183 503 1188 q 538 1179 526 1179 q 611 1218 583 1179 q 631 1221 619 1232 l 656 1197 q 657 1176 665 1188 q 605 1125 638 1143 q 538 1107 572 1107 z "},"Ű":{"ha":900,"x_min":119,"x_max":781,"o":"m 450 -11 q 278 28 353 -11 q 161 137 203 67 q 119 300 119 207 l 119 958 q 133 972 119 972 l 204 972 q 218 958 218 972 l 218 297 q 282 137 218 199 q 450 75 346 75 q 618 137 554 75 q 682 297 682 199 l 682 958 q 696 972 682 972 l 767 972 q 781 958 781 972 l 781 300 q 740 137 781 207 q 624 28 699 67 q 450 -11 549 -11 m 304 1064 q 294 1069 297 1064 q 294 1081 292 1074 l 372 1232 q 389 1242 376 1242 l 453 1242 q 464 1237 461 1242 q 463 1225 467 1232 l 379 1074 q 363 1064 375 1064 l 304 1064 m 532 1064 q 520 1069 524 1064 q 521 1081 517 1074 l 603 1232 q 619 1242 607 1242 l 679 1242 q 690 1237 688 1242 q 689 1225 693 1232 l 604 1074 q 588 1064 597 1064 l 532 1064 z "},"Ū":{"ha":900,"x_min":119,"x_max":781,"o":"m 450 -11 q 278 28 353 -11 q 161 137 203 67 q 119 300 119 207 l 119 958 q 133 972 119 972 l 204 972 q 218 958 218 972 l 218 297 q 282 137 218 199 q 450 75 346 75 q 618 137 554 75 q 682 297 682 199 l 682 958 q 696 972 682 972 l 767 972 q 781 958 781 972 l 781 300 q 740 137 781 207 q 624 28 699 67 q 450 -11 549 -11 m 278 1094 q 264 1108 264 1094 l 264 1151 q 278 1165 264 1165 l 624 1165 q 638 1151 638 1165 l 638 1108 q 624 1094 638 1094 l 278 1094 z "},"Ų":{"ha":900,"x_min":119,"x_max":781,"o":"m 682 958 q 696 972 682 972 l 767 972 q 781 958 781 972 l 781 300 q 699 83 781 167 q 481 -10 617 -1 q 474 -12 476 -10 q 428 -65 444 -37 q 411 -119 411 -93 q 413 -136 411 -131 q 435 -174 418 -161 q 478 -186 453 -186 q 508 -182 492 -186 l 514 -181 q 525 -192 522 -181 l 531 -224 l 531 -228 q 521 -240 531 -236 q 464 -247 493 -247 q 387 -228 421 -247 q 342 -164 353 -208 q 339 -135 339 -154 q 397 -14 339 -72 q 396 -7 404 -10 q 195 91 271 8 q 119 300 119 174 l 119 958 q 133 972 119 972 l 204 972 q 218 958 218 972 l 218 297 q 282 137 218 199 q 450 75 346 75 q 618 137 554 75 q 682 297 682 199 l 682 958 z "},"Ů":{"ha":900,"x_min":119,"x_max":781,"o":"m 450 -11 q 278 28 353 -11 q 161 137 203 67 q 119 300 119 207 l 119 958 q 133 972 119 972 l 204 972 q 218 958 218 972 l 218 297 q 282 137 218 199 q 450 75 346 75 q 618 137 554 75 q 682 297 682 199 l 682 958 q 696 972 682 972 l 767 972 q 781 958 781 972 l 781 300 q 740 137 781 207 q 624 28 699 67 q 450 -11 549 -11 m 450 1074 q 341 1117 385 1074 q 297 1224 297 1160 q 342 1330 297 1286 q 450 1374 386 1374 q 558 1330 514 1374 q 601 1224 601 1286 q 558 1117 601 1160 q 450 1074 514 1074 m 450 1133 q 515 1159 488 1133 q 542 1224 542 1185 q 515 1289 542 1263 q 450 1315 488 1315 q 384 1289 411 1315 q 357 1224 357 1263 q 384 1159 357 1185 q 450 1133 411 1133 z "},"Ũ":{"ha":900,"x_min":119,"x_max":781,"o":"m 450 -11 q 278 28 353 -11 q 161 137 203 67 q 119 300 119 207 l 119 958 q 133 972 119 972 l 204 972 q 218 958 218 972 l 218 297 q 282 137 218 199 q 450 75 346 75 q 618 137 554 75 q 682 297 682 199 l 682 958 q 696 972 682 972 l 767 972 q 781 958 781 972 l 781 300 q 740 137 781 207 q 624 28 699 67 q 450 -11 549 -11 m 538 1107 q 492 1115 511 1107 q 451 1138 472 1124 q 413 1158 426 1153 q 382 1164 399 1164 q 340 1156 357 1164 q 306 1129 322 1149 q 286 1126 297 1117 l 261 1151 q 258 1171 251 1161 q 378 1239 304 1239 q 417 1232 400 1239 q 449 1217 435 1225 q 468 1207 464 1210 q 488 1196 474 1204 q 515 1183 503 1188 q 538 1179 526 1179 q 611 1218 583 1179 q 631 1221 619 1232 l 656 1197 q 657 1176 665 1188 q 605 1125 638 1143 q 538 1107 572 1107 z "},"V":{"ha":818,"x_min":49,"x_max":772,"o":"m 369 0 q 353 11 357 0 l 50 957 l 49 963 q 61 972 49 972 l 136 972 q 153 961 149 972 l 406 147 q 410 144 407 144 q 414 147 413 144 l 667 961 q 683 972 671 972 l 757 972 q 768 957 772 972 l 463 11 q 446 0 458 0 l 369 0 z "},"W":{"ha":1219,"x_min":38,"x_max":1182,"o":"m 321 0 q 306 11 310 0 l 39 957 l 38 961 q 51 972 38 972 l 125 972 q 140 961 138 972 l 351 200 q 355 197 353 197 q 358 200 357 197 l 554 960 q 569 972 557 972 l 644 972 q 660 960 657 972 l 864 200 q 867 197 865 197 q 871 200 869 197 l 1082 961 q 1097 972 1085 972 l 1168 972 q 1178 968 1175 972 q 1181 957 1182 964 l 918 11 q 903 0 915 0 l 829 0 q 814 13 817 0 l 611 790 q 608 793 610 793 q 604 790 606 793 l 406 13 q 390 0 404 0 l 321 0 z "},"Ẃ":{"ha":1244,"x_min":38,"x_max":1182,"o":"m 321 0 q 306 11 310 0 l 39 957 l 38 961 q 51 972 38 972 l 125 972 q 140 961 138 972 l 351 200 q 355 197 353 197 q 358 200 357 197 l 554 960 q 569 972 557 972 l 644 972 q 660 960 657 972 l 864 200 q 867 197 865 197 q 871 200 869 197 l 1082 961 q 1097 972 1085 972 l 1168 972 q 1178 968 1175 972 q 1181 957 1182 964 l 918 11 q 903 0 915 0 l 829 0 q 814 13 817 0 l 611 790 q 608 793 610 793 q 604 790 606 793 l 406 13 q 390 0 404 0 l 321 0 m 575 1064 q 564 1069 567 1064 q 565 1081 561 1074 l 649 1232 q 665 1242 653 1242 l 728 1242 q 738 1237 736 1242 q 736 1225 740 1232 l 642 1074 q 625 1064 635 1064 l 575 1064 z "},"Ŵ":{"ha":1244,"x_min":38,"x_max":1182,"o":"m 321 0 q 306 11 310 0 l 39 957 l 38 961 q 51 972 38 972 l 125 972 q 140 961 138 972 l 351 200 q 355 197 353 197 q 358 200 357 197 l 554 960 q 569 972 557 972 l 644 972 q 660 960 657 972 l 864 200 q 867 197 865 197 q 871 200 869 197 l 1082 961 q 1097 972 1085 972 l 1168 972 q 1178 968 1175 972 q 1181 957 1182 964 l 918 11 q 903 0 915 0 l 829 0 q 814 13 817 0 l 611 790 q 608 793 610 793 q 604 790 606 793 l 406 13 q 390 0 404 0 l 321 0 m 458 1067 q 447 1072 450 1067 q 450 1083 444 1076 l 561 1233 q 579 1242 567 1242 l 660 1242 q 678 1233 672 1242 l 790 1083 q 793 1075 793 1081 q 790 1069 793 1072 q 782 1067 788 1067 l 726 1067 q 708 1075 714 1067 l 625 1189 q 621 1192 624 1192 q 617 1189 618 1192 l 532 1075 q 514 1067 526 1067 l 458 1067 z "},"Ẅ":{"ha":1244,"x_min":38,"x_max":1182,"o":"m 321 0 q 306 11 310 0 l 39 957 l 38 961 q 51 972 38 972 l 125 972 q 140 961 138 972 l 351 200 q 355 197 353 197 q 358 200 357 197 l 554 960 q 569 972 557 972 l 644 972 q 660 960 657 972 l 864 200 q 867 197 865 197 q 871 200 869 197 l 1082 961 q 1097 972 1085 972 l 1168 972 q 1178 968 1175 972 q 1181 957 1182 964 l 918 11 q 903 0 915 0 l 829 0 q 814 13 817 0 l 611 790 q 608 793 610 793 q 604 790 606 793 l 406 13 q 390 0 404 0 l 321 0 z "},"Ẁ":{"ha":1244,"x_min":38,"x_max":1182,"o":"m 321 0 q 306 11 310 0 l 39 957 l 38 961 q 51 972 38 972 l 125 972 q 140 961 138 972 l 351 200 q 355 197 353 197 q 358 200 357 197 l 554 960 q 569 972 557 972 l 644 972 q 660 960 657 972 l 864 200 q 867 197 865 197 q 871 200 869 197 l 1082 961 q 1097 972 1085 972 l 1168 972 q 1178 968 1175 972 q 1181 957 1182 964 l 918 11 q 903 0 915 0 l 829 0 q 814 13 817 0 l 611 790 q 608 793 610 793 q 604 790 606 793 l 406 13 q 390 0 404 0 l 321 0 m 658 1081 q 661 1072 661 1075 q 649 1064 661 1064 l 599 1064 q 582 1074 589 1064 l 488 1225 q 485 1233 485 1231 q 496 1242 485 1242 l 558 1242 q 575 1232 571 1242 l 658 1081 z "},"X":{"ha":818,"x_min":51,"x_max":765,"o":"m 64 0 q 53 5 56 0 q 56 17 51 10 l 347 482 q 347 490 350 486 l 56 956 q 53 964 53 961 q 64 972 53 972 l 142 972 q 158 963 151 972 l 406 567 q 410 565 407 565 q 414 567 413 565 l 660 963 q 676 972 667 972 l 753 972 q 763 967 761 972 q 761 956 765 963 l 471 489 q 471 481 469 485 l 761 17 q 764 8 764 11 q 753 0 764 0 l 676 0 q 660 10 667 0 l 414 404 q 410 407 413 407 q 406 404 407 407 l 158 10 q 142 0 151 0 l 64 0 z "},"Y":{"ha":788,"x_min":51,"x_max":738,"o":"m 358 1 q 344 15 344 1 l 344 426 q 343 433 344 432 l 54 956 q 51 964 51 961 q 64 972 51 972 l 139 972 q 156 963 151 972 l 389 539 q 393 538 390 538 q 397 539 396 538 l 632 963 q 649 972 638 972 l 724 972 q 735 967 732 972 q 733 956 738 963 l 444 433 q 443 426 443 432 l 443 15 q 429 1 443 1 l 358 1 z "},"Ý":{"ha":788,"x_min":51,"x_max":738,"o":"m 358 1 q 344 15 344 1 l 344 426 q 343 433 344 432 l 54 956 q 51 964 51 961 q 64 972 51 972 l 139 972 q 156 963 151 972 l 389 539 q 393 538 390 538 q 397 539 396 538 l 632 963 q 649 972 638 972 l 724 972 q 735 967 732 972 q 733 956 738 963 l 444 433 q 443 426 443 432 l 443 15 q 429 1 443 1 l 358 1 m 347 1063 q 336 1067 339 1063 q 338 1079 333 1072 l 421 1231 q 438 1240 425 1240 l 500 1240 q 510 1235 508 1240 q 508 1224 513 1231 l 414 1072 q 397 1063 407 1063 l 347 1063 z "},"Ŷ":{"ha":788,"x_min":51,"x_max":738,"o":"m 358 1 q 344 15 344 1 l 344 426 q 343 433 344 432 l 54 956 q 51 964 51 961 q 64 972 51 972 l 139 972 q 156 963 151 972 l 389 539 q 393 538 390 538 q 397 539 396 538 l 632 963 q 649 972 638 972 l 724 972 q 735 967 732 972 q 733 956 738 963 l 444 433 q 443 426 443 432 l 443 15 q 429 1 443 1 l 358 1 m 231 1065 q 219 1070 222 1065 q 222 1082 217 1075 l 333 1232 q 351 1240 339 1240 l 432 1240 q 450 1232 444 1240 l 563 1082 q 565 1074 565 1079 q 563 1068 565 1071 q 554 1065 560 1065 l 499 1065 q 481 1074 486 1065 l 397 1188 q 393 1190 396 1190 q 389 1188 390 1190 l 304 1074 q 286 1065 299 1065 l 231 1065 z "},"Ÿ":{"ha":788,"x_min":51,"x_max":738,"o":"m 358 1 q 344 15 344 1 l 344 426 q 343 433 344 432 l 54 956 q 51 964 51 961 q 64 972 51 972 l 139 972 q 156 963 151 972 l 389 539 q 393 538 390 538 q 397 539 396 538 l 632 963 q 649 972 638 972 l 724 972 q 735 967 732 972 q 733 956 738 963 l 444 433 q 443 426 443 432 l 443 15 q 429 1 443 1 l 358 1 z "},"Ỵ":{"ha":788,"x_min":51,"x_max":738,"o":"m 358 1 q 344 15 344 1 l 344 426 q 343 433 344 432 l 54 956 q 51 964 51 961 q 64 972 51 972 l 139 972 q 156 963 151 972 l 389 539 q 393 538 390 538 q 397 539 396 538 l 632 963 q 649 972 638 972 l 724 972 q 735 967 732 972 q 733 956 738 963 l 444 433 q 443 426 443 432 l 443 15 q 429 1 443 1 l 358 1 m 394 -256 q 342 -235 363 -256 q 321 -182 321 -214 q 342 -129 321 -150 q 394 -108 363 -108 q 447 -129 426 -108 q 468 -182 468 -150 q 447 -235 468 -214 q 394 -256 425 -256 z "},"Ỳ":{"ha":788,"x_min":51,"x_max":738,"o":"m 358 1 q 344 15 344 1 l 344 426 q 343 433 344 432 l 54 956 q 51 964 51 961 q 64 972 51 972 l 139 972 q 156 963 151 972 l 389 539 q 393 538 390 538 q 397 539 396 538 l 632 963 q 649 972 638 972 l 724 972 q 735 967 732 972 q 733 956 738 963 l 444 433 q 443 426 443 432 l 443 15 q 429 1 443 1 l 358 1 m 431 1079 q 433 1071 433 1074 q 421 1063 433 1063 l 371 1063 q 354 1072 361 1063 l 260 1224 q 257 1232 257 1229 q 268 1240 257 1240 l 331 1240 q 347 1231 343 1240 l 431 1079 z "},"Ỷ":{"ha":788,"x_min":51,"x_max":738,"o":"m 358 1 q 344 15 344 1 l 344 426 q 343 433 344 432 l 54 956 q 51 964 51 961 q 64 972 51 972 l 139 972 q 156 963 151 972 l 389 539 q 393 538 390 538 q 397 539 396 538 l 632 963 q 649 972 638 972 l 724 972 q 735 967 732 972 q 733 956 738 963 l 444 433 q 443 426 443 432 l 443 15 q 429 1 443 1 l 358 1 m 383 1038 q 374 1044 376 1039 q 374 1054 371 1049 q 396 1092 383 1075 q 421 1121 408 1108 q 447 1151 439 1138 q 456 1186 456 1165 q 438 1221 456 1206 q 397 1236 421 1236 q 358 1225 374 1236 q 322 1186 342 1214 q 303 1183 314 1175 l 281 1197 q 276 1217 269 1206 q 329 1274 303 1257 q 400 1292 356 1292 q 484 1263 451 1292 q 517 1186 517 1233 q 504 1135 517 1156 q 465 1088 492 1115 q 426 1040 436 1061 q 408 1032 421 1031 l 383 1038 z "},"Ỹ":{"ha":788,"x_min":51,"x_max":738,"o":"m 358 1 q 344 15 344 1 l 344 426 q 343 433 344 432 l 54 956 q 51 964 51 961 q 64 972 51 972 l 139 972 q 156 963 151 972 l 389 539 q 393 538 390 538 q 397 539 396 538 l 632 963 q 649 972 638 972 l 724 972 q 735 967 732 972 q 733 956 738 963 l 444 433 q 443 426 443 432 l 443 15 q 429 1 443 1 l 358 1 m 481 1106 q 435 1114 454 1106 q 394 1136 415 1122 q 356 1157 369 1151 q 325 1163 342 1163 q 283 1155 300 1163 q 249 1128 265 1147 q 229 1125 240 1115 l 204 1150 q 201 1169 194 1160 q 321 1238 247 1238 q 360 1231 343 1238 q 392 1216 378 1224 q 411 1206 407 1208 q 431 1194 417 1203 q 458 1182 446 1186 q 481 1178 469 1178 q 554 1217 526 1178 q 574 1219 563 1231 l 599 1196 q 600 1175 608 1186 q 548 1124 581 1142 q 481 1106 515 1106 z "},"Z":{"ha":763,"x_min":63,"x_max":689,"o":"m 76 0 q 63 14 63 0 l 63 81 q 68 99 63 88 l 576 879 q 576 883 578 881 q 572 886 575 886 l 76 886 q 63 900 63 886 l 63 958 q 76 972 63 972 l 675 972 q 689 958 689 972 l 689 892 q 683 874 689 885 l 176 93 q 176 89 175 92 q 181 86 178 86 l 675 86 q 689 72 689 86 l 689 14 q 675 0 689 0 l 76 0 z "},"Ź":{"ha":763,"x_min":63,"x_max":689,"o":"m 76 0 q 63 14 63 0 l 63 81 q 68 99 63 88 l 576 879 q 576 883 578 881 q 572 886 575 886 l 76 886 q 63 900 63 886 l 63 958 q 76 972 63 972 l 675 972 q 689 958 689 972 l 689 892 q 683 874 689 885 l 176 93 q 176 89 175 92 q 181 86 178 86 l 675 86 q 689 72 689 86 l 689 14 q 675 0 689 0 l 76 0 m 326 1064 q 315 1069 318 1064 q 317 1081 313 1074 l 400 1232 q 417 1242 404 1242 l 479 1242 q 490 1237 488 1242 q 488 1225 492 1232 l 393 1074 q 376 1064 386 1064 l 326 1064 z "},"Ž":{"ha":763,"x_min":63,"x_max":689,"o":"m 76 0 q 63 14 63 0 l 63 81 q 68 99 63 88 l 576 879 q 576 883 578 881 q 572 886 575 886 l 76 886 q 63 900 63 886 l 63 958 q 76 972 63 972 l 675 972 q 689 958 689 972 l 689 892 q 683 874 689 885 l 176 93 q 176 89 175 92 q 181 86 178 86 l 675 86 q 689 72 689 86 l 689 14 q 675 0 689 0 l 76 0 m 206 1225 q 203 1233 203 1228 q 206 1239 203 1236 q 214 1242 208 1242 l 269 1242 q 288 1233 282 1242 l 372 1119 q 376 1118 374 1118 q 381 1119 379 1118 l 464 1233 q 482 1242 469 1242 l 538 1242 q 549 1237 546 1242 q 546 1225 551 1232 l 433 1075 q 415 1067 428 1067 l 335 1067 q 317 1075 322 1067 l 206 1225 z "},"Ż":{"ha":763,"x_min":63,"x_max":689,"o":"m 76 0 q 63 14 63 0 l 63 81 q 68 99 63 88 l 576 879 q 576 883 578 881 q 572 886 575 886 l 76 886 q 63 900 63 886 l 63 958 q 76 972 63 972 l 675 972 q 689 958 689 972 l 689 892 q 683 874 689 885 l 176 93 q 176 89 175 92 q 181 86 178 86 l 675 86 q 689 72 689 86 l 689 14 q 675 0 689 0 l 76 0 m 372 1100 q 316 1122 338 1100 q 294 1178 294 1144 q 316 1234 294 1213 q 372 1256 338 1256 q 428 1234 406 1256 q 450 1178 450 1213 q 428 1122 450 1144 q 372 1100 406 1100 z "},"Ģ":{"ha":851,"x_min":100,"x_max":751,"o":"m 426 -11 q 256 27 329 -11 q 141 135 182 65 q 100 294 100 204 l 100 678 q 141 838 100 768 q 256 945 182 907 q 426 983 329 983 q 597 946 522 983 q 711 841 671 908 q 751 689 751 774 l 751 671 q 738 657 751 657 l 667 657 q 653 671 653 657 l 653 688 q 591 839 653 781 q 426 897 529 897 q 261 838 324 897 q 199 681 199 778 l 199 292 q 263 135 199 194 q 431 75 326 75 q 592 131 532 75 q 653 279 653 186 l 653 406 q 647 411 653 411 l 443 411 q 429 425 429 411 l 429 483 q 443 497 429 497 l 738 497 q 751 483 751 497 l 751 304 q 663 72 751 156 q 426 -11 575 -11 z "},"Ķ":{"ha":849,"x_min":131,"x_max":811,"o":"m 144 0 q 131 14 131 0 l 131 958 q 144 972 131 972 l 215 972 q 229 958 229 972 l 229 488 q 232 483 229 485 q 236 485 235 482 l 675 965 q 692 972 681 972 l 772 972 q 783 967 781 972 q 779 956 785 961 l 439 571 q 439 563 436 568 l 808 17 l 811 10 q 799 0 811 0 l 718 0 q 701 8 707 0 l 372 492 q 368 494 371 494 q 364 493 365 494 l 232 353 q 229 346 229 350 l 229 14 q 215 0 229 0 l 144 0 z "},"Ņ":{"ha":939,"x_min":131,"x_max":808,"o":"m 710 958 q 724 972 710 972 l 794 972 q 808 958 808 972 l 808 14 q 794 0 808 0 l 725 0 q 708 10 715 0 l 235 781 q 231 784 233 785 q 228 779 228 783 l 229 14 q 215 0 229 0 l 144 0 q 131 14 131 0 l 131 958 q 144 972 131 972 l 214 972 q 231 963 224 972 l 704 192 q 708 188 706 188 q 711 193 711 189 l 710 958 z "},"Ŗ":{"ha":850,"x_min":131,"x_max":782,"o":"m 697 0 q 681 10 685 0 l 476 440 q 471 444 475 444 l 235 444 q 229 439 229 444 l 229 14 q 215 0 229 0 l 144 0 q 131 14 131 0 l 131 958 q 144 972 131 972 l 504 972 q 697 898 624 972 q 771 704 771 824 q 718 539 771 607 q 575 451 665 471 q 572 444 569 449 l 781 17 q 782 10 782 14 q 771 0 782 0 l 697 0 m 235 886 q 229 881 229 886 l 229 529 q 235 524 229 524 l 493 524 q 624 574 574 524 q 674 704 674 624 q 624 835 674 785 q 493 886 574 886 l 235 886 z "},"Ţ":{"ha":790,"x_min":60,"x_max":731,"o":"m 717 972 q 731 958 731 972 l 731 899 q 717 885 731 885 l 444 885 q 439 879 439 885 l 439 14 q 425 0 439 0 l 354 0 q 340 14 340 0 l 340 879 q 335 885 340 885 l 74 885 q 60 899 60 885 l 60 958 q 74 972 60 972 l 717 972 m 347 -251 q 338 -235 336 -247 l 343 -203 q 349 -194 344 -196 q 360 -193 354 -192 q 390 -197 376 -197 q 433 -185 415 -197 q 456 -147 450 -172 q 457 -132 457 -142 q 388 -17 457 -79 q 382 -7 382 -12 q 393 0 382 0 l 429 0 q 446 -6 440 0 q 529 -147 529 -71 q 526 -175 529 -156 q 481 -239 515 -219 q 404 -258 447 -258 q 347 -251 375 -258 z "},"Ș":{"ha":811,"x_min":72,"x_max":736,"o":"m 411 -11 q 163 60 254 -11 q 72 249 72 131 l 72 292 q 86 306 72 306 l 154 306 q 168 292 168 306 l 168 254 q 235 124 168 174 q 419 75 301 75 q 582 120 526 75 q 638 240 638 165 q 612 324 638 289 q 533 389 586 358 q 382 460 479 419 q 220 533 278 501 q 127 613 163 564 q 92 738 92 663 q 173 919 92 854 q 396 983 254 983 q 639 911 550 983 q 728 719 728 839 l 728 689 q 714 675 728 675 l 644 675 q 631 689 631 675 l 631 714 q 567 846 631 794 q 392 897 504 897 q 240 857 293 897 q 188 740 188 817 q 213 658 188 690 q 287 601 239 625 q 435 538 335 576 q 598 460 536 496 q 698 372 660 424 q 736 244 736 319 q 650 58 736 128 q 411 -11 564 -11 z "},"Ț":{"ha":790,"x_min":60,"x_max":731,"o":"m 717 972 q 731 958 731 972 l 731 899 q 717 885 731 885 l 444 885 q 439 879 439 885 l 439 14 q 425 0 439 0 l 354 0 q 340 14 340 0 l 340 879 q 335 885 340 885 l 74 885 q 60 899 60 885 l 60 958 q 74 972 60 972 l 717 972 z "},"a":{"ha":710,"x_min":64,"x_max":615,"o":"m 354 714 q 547 650 479 714 q 615 481 615 586 l 615 14 q 601 0 615 0 l 531 0 q 517 14 517 0 l 517 71 q 515 75 517 74 q 510 74 513 76 q 419 10 475 32 q 296 -11 364 -11 q 131 39 197 -11 q 64 192 64 89 q 140 356 64 296 q 350 417 215 417 l 511 417 q 517 422 517 417 l 517 475 q 477 587 517 546 q 354 628 438 628 q 246 602 288 628 q 194 531 204 576 q 178 518 190 517 l 103 528 q 90 539 88 531 q 174 665 101 617 q 354 714 246 714 m 315 74 q 457 115 397 74 q 517 225 517 156 l 517 333 q 511 339 517 339 l 365 339 q 218 301 274 339 q 163 197 163 264 q 205 105 163 136 q 315 74 247 74 z "},"á":{"ha":708,"x_min":64,"x_max":615,"o":"m 354 714 q 547 650 479 714 q 615 481 615 586 l 615 14 q 601 0 615 0 l 531 0 q 517 14 517 0 l 517 71 q 515 75 517 74 q 510 74 513 76 q 419 10 475 32 q 296 -11 364 -11 q 131 39 197 -11 q 64 192 64 89 q 140 356 64 296 q 350 417 215 417 l 511 417 q 517 422 517 417 l 517 475 q 477 587 517 546 q 354 628 438 628 q 246 602 288 628 q 194 531 204 576 q 178 518 190 517 l 103 528 q 90 539 88 531 q 174 665 101 617 q 354 714 246 714 m 315 74 q 457 115 397 74 q 517 225 517 156 l 517 333 q 511 339 517 339 l 365 339 q 218 301 274 339 q 163 197 163 264 q 205 105 163 136 q 315 74 247 74 m 308 794 q 297 799 300 794 q 299 811 294 804 l 382 963 q 399 972 386 972 l 461 972 q 472 967 469 972 q 469 956 474 963 l 375 804 q 358 794 368 794 l 308 794 z "},"ă":{"ha":708,"x_min":64,"x_max":615,"o":"m 354 714 q 547 650 479 714 q 615 481 615 586 l 615 14 q 601 0 615 0 l 531 0 q 517 14 517 0 l 517 71 q 515 75 517 74 q 510 74 513 76 q 419 10 475 32 q 296 -11 364 -11 q 131 39 197 -11 q 64 192 64 89 q 140 356 64 296 q 350 417 215 417 l 511 417 q 517 422 517 417 l 517 475 q 477 587 517 546 q 354 628 438 628 q 246 602 288 628 q 194 531 204 576 q 178 518 190 517 l 103 528 q 90 539 88 531 q 174 665 101 617 q 354 714 246 714 m 315 74 q 457 115 397 74 q 517 225 517 156 l 517 333 q 511 339 517 339 l 365 339 q 218 301 274 339 q 163 197 163 264 q 205 105 163 136 q 315 74 247 74 m 354 781 q 238 820 286 781 q 183 921 190 860 q 197 935 183 935 l 239 935 q 254 921 253 935 q 287 862 258 885 q 354 839 315 839 q 423 862 394 839 q 456 921 451 885 q 471 935 457 935 l 513 935 q 526 922 526 935 q 472 821 521 861 q 354 781 424 781 z "},"ắ":{"ha":708,"x_min":64,"x_max":615,"o":"m 354 714 q 547 650 479 714 q 615 481 615 586 l 615 14 q 601 0 615 0 l 531 0 q 517 14 517 0 l 517 71 q 515 75 517 74 q 510 74 513 76 q 419 10 475 32 q 296 -11 364 -11 q 131 39 197 -11 q 64 192 64 89 q 140 356 64 296 q 350 417 215 417 l 511 417 q 517 422 517 417 l 517 475 q 477 587 517 546 q 354 628 438 628 q 246 602 288 628 q 194 531 204 576 q 178 518 190 517 l 103 528 q 90 539 88 531 q 174 665 101 617 q 354 714 246 714 m 315 74 q 457 115 397 74 q 517 225 517 156 l 517 333 q 511 339 517 339 l 365 339 q 218 301 274 339 q 163 197 163 264 q 205 105 163 136 q 315 74 247 74 z "},"ặ":{"ha":708,"x_min":64,"x_max":615,"o":"m 354 714 q 547 650 479 714 q 615 481 615 586 l 615 14 q 601 0 615 0 l 531 0 q 517 14 517 0 l 517 71 q 515 75 517 74 q 510 74 513 76 q 419 10 475 32 q 296 -11 364 -11 q 131 39 197 -11 q 64 192 64 89 q 140 356 64 296 q 350 417 215 417 l 511 417 q 517 422 517 417 l 517 475 q 477 587 517 546 q 354 628 438 628 q 246 602 288 628 q 194 531 204 576 q 178 518 190 517 l 103 528 q 90 539 88 531 q 174 665 101 617 q 354 714 246 714 m 315 74 q 457 115 397 74 q 517 225 517 156 l 517 333 q 511 339 517 339 l 365 339 q 218 301 274 339 q 163 197 163 264 q 205 105 163 136 q 315 74 247 74 m 356 -256 q 303 -235 324 -256 q 282 -182 282 -214 q 303 -129 282 -150 q 356 -108 324 -108 q 408 -129 388 -108 q 429 -182 429 -150 q 408 -235 429 -214 q 356 -256 386 -256 m 353 807 q 238 847 285 807 q 183 944 190 886 l 183 947 q 196 958 183 958 l 233 958 q 249 944 247 958 q 283 886 254 910 q 353 863 313 863 q 424 885 394 863 q 458 944 454 908 q 474 958 460 958 l 511 958 q 525 946 525 958 q 471 847 519 886 q 353 807 422 807 z "},"ằ":{"ha":708,"x_min":64,"x_max":615,"o":"m 354 714 q 547 650 479 714 q 615 481 615 586 l 615 14 q 601 0 615 0 l 531 0 q 517 14 517 0 l 517 71 q 515 75 517 74 q 510 74 513 76 q 419 10 475 32 q 296 -11 364 -11 q 131 39 197 -11 q 64 192 64 89 q 140 356 64 296 q 350 417 215 417 l 511 417 q 517 422 517 417 l 517 475 q 477 587 517 546 q 354 628 438 628 q 246 602 288 628 q 194 531 204 576 q 178 518 190 517 l 103 528 q 90 539 88 531 q 174 665 101 617 q 354 714 246 714 m 315 74 q 457 115 397 74 q 517 225 517 156 l 517 333 q 511 339 517 339 l 365 339 q 218 301 274 339 q 163 197 163 264 q 205 105 163 136 q 315 74 247 74 z "},"ẳ":{"ha":708,"x_min":64,"x_max":615,"o":"m 354 714 q 547 650 479 714 q 615 481 615 586 l 615 14 q 601 0 615 0 l 531 0 q 517 14 517 0 l 517 71 q 515 75 517 74 q 510 74 513 76 q 419 10 475 32 q 296 -11 364 -11 q 131 39 197 -11 q 64 192 64 89 q 140 356 64 296 q 350 417 215 417 l 511 417 q 517 422 517 417 l 517 475 q 477 587 517 546 q 354 628 438 628 q 246 602 288 628 q 194 531 204 576 q 178 518 190 517 l 103 528 q 90 539 88 531 q 174 665 101 617 q 354 714 246 714 m 315 74 q 457 115 397 74 q 517 225 517 156 l 517 333 q 511 339 517 339 l 365 339 q 218 301 274 339 q 163 197 163 264 q 205 105 163 136 q 315 74 247 74 z "},"ẵ":{"ha":708,"x_min":64,"x_max":615,"o":"m 354 714 q 547 650 479 714 q 615 481 615 586 l 615 14 q 601 0 615 0 l 531 0 q 517 14 517 0 l 517 71 q 515 75 517 74 q 510 74 513 76 q 419 10 475 32 q 296 -11 364 -11 q 131 39 197 -11 q 64 192 64 89 q 140 356 64 296 q 350 417 215 417 l 511 417 q 517 422 517 417 l 517 475 q 477 587 517 546 q 354 628 438 628 q 246 602 288 628 q 194 531 204 576 q 178 518 190 517 l 103 528 q 90 539 88 531 q 174 665 101 617 q 354 714 246 714 m 315 74 q 457 115 397 74 q 517 225 517 156 l 517 333 q 511 339 517 339 l 365 339 q 218 301 274 339 q 163 197 163 264 q 205 105 163 136 q 315 74 247 74 m 442 1010 q 360 1038 401 1010 q 322 1058 335 1053 q 294 1064 310 1064 q 254 1056 271 1064 q 222 1031 238 1049 q 203 1028 214 1018 l 179 1050 q 176 1069 169 1060 q 290 1135 217 1135 q 327 1128 311 1135 q 356 1115 343 1122 q 375 1104 369 1107 q 394 1094 379 1101 q 420 1082 408 1086 q 442 1078 432 1078 q 479 1086 463 1078 q 511 1115 496 1094 q 531 1117 521 1126 l 553 1096 q 554 1075 563 1086 q 506 1026 536 1043 q 442 1010 475 1010 m 354 807 q 238 847 286 807 q 185 944 190 886 l 185 947 q 197 958 185 958 l 235 958 q 250 944 249 958 q 285 886 256 910 q 354 863 314 863 q 424 885 394 863 q 460 944 454 908 q 475 958 461 958 l 513 958 q 526 946 526 958 q 472 847 521 886 q 354 807 424 807 z "},"ǎ":{"ha":708,"x_min":64,"x_max":615,"o":"m 354 714 q 547 650 479 714 q 615 481 615 586 l 615 14 q 601 0 615 0 l 531 0 q 517 14 517 0 l 517 71 q 515 75 517 74 q 510 74 513 76 q 419 10 475 32 q 296 -11 364 -11 q 131 39 197 -11 q 64 192 64 89 q 140 356 64 296 q 350 417 215 417 l 511 417 q 517 422 517 417 l 517 475 q 477 587 517 546 q 354 628 438 628 q 246 602 288 628 q 194 531 204 576 q 178 518 190 517 l 103 528 q 90 539 88 531 q 174 665 101 617 q 354 714 246 714 m 315 74 q 457 115 397 74 q 517 225 517 156 l 517 333 q 511 339 517 339 l 365 339 q 218 301 274 339 q 163 197 163 264 q 205 105 163 136 q 315 74 247 74 z "},"â":{"ha":708,"x_min":64,"x_max":615,"o":"m 354 714 q 547 650 479 714 q 615 481 615 586 l 615 14 q 601 0 615 0 l 531 0 q 517 14 517 0 l 517 71 q 515 75 517 74 q 510 74 513 76 q 419 10 475 32 q 296 -11 364 -11 q 131 39 197 -11 q 64 192 64 89 q 140 356 64 296 q 350 417 215 417 l 511 417 q 517 422 517 417 l 517 475 q 477 587 517 546 q 354 628 438 628 q 246 602 288 628 q 194 531 204 576 q 178 518 190 517 l 103 528 q 90 539 88 531 q 174 665 101 617 q 354 714 246 714 m 315 74 q 457 115 397 74 q 517 225 517 156 l 517 333 q 511 339 517 339 l 365 339 q 218 301 274 339 q 163 197 163 264 q 205 105 163 136 q 315 74 247 74 m 192 797 q 181 802 183 797 q 183 814 178 807 l 294 964 q 313 972 300 972 l 393 972 q 411 964 406 972 l 524 814 q 526 806 526 811 q 524 800 526 803 q 515 797 521 797 l 460 797 q 442 806 447 797 l 358 919 q 354 922 357 922 q 350 919 351 922 l 265 806 q 247 797 260 797 l 192 797 z "},"ấ":{"ha":708,"x_min":64,"x_max":703,"o":"m 354 714 q 547 650 479 714 q 615 481 615 586 l 615 14 q 601 0 615 0 l 531 0 q 517 14 517 0 l 517 71 q 515 75 517 74 q 510 74 513 76 q 419 10 475 32 q 296 -11 364 -11 q 131 39 197 -11 q 64 192 64 89 q 140 356 64 296 q 350 417 215 417 l 511 417 q 517 422 517 417 l 517 475 q 477 587 517 546 q 354 628 438 628 q 246 602 288 628 q 194 531 204 576 q 178 518 190 517 l 103 528 q 90 539 88 531 q 174 665 101 617 q 354 714 246 714 m 315 74 q 457 115 397 74 q 517 225 517 156 l 517 333 q 511 339 517 339 l 365 339 q 218 301 274 339 q 163 197 163 264 q 205 105 163 136 q 315 74 247 74 z "},"ậ":{"ha":708,"x_min":64,"x_max":615,"o":"m 354 714 q 547 650 479 714 q 615 481 615 586 l 615 14 q 601 0 615 0 l 531 0 q 517 14 517 0 l 517 71 q 515 75 517 74 q 510 74 513 76 q 419 10 475 32 q 296 -11 364 -11 q 131 39 197 -11 q 64 192 64 89 q 140 356 64 296 q 350 417 215 417 l 511 417 q 517 422 517 417 l 517 475 q 477 587 517 546 q 354 628 438 628 q 246 602 288 628 q 194 531 204 576 q 178 518 190 517 l 103 528 q 90 539 88 531 q 174 665 101 617 q 354 714 246 714 m 315 74 q 457 115 397 74 q 517 225 517 156 l 517 333 q 511 339 517 339 l 365 339 q 218 301 274 339 q 163 197 163 264 q 205 105 163 136 q 315 74 247 74 m 356 -256 q 303 -235 324 -256 q 282 -182 282 -214 q 303 -129 282 -150 q 356 -108 324 -108 q 408 -129 388 -108 q 429 -182 429 -150 q 408 -235 429 -214 q 356 -256 386 -256 m 192 797 q 181 802 183 797 q 183 814 178 807 l 294 964 q 313 972 300 972 l 393 972 q 411 964 406 972 l 524 814 q 526 806 526 811 q 524 800 526 803 q 515 797 521 797 l 460 797 q 442 806 447 797 l 358 919 q 354 922 357 922 q 350 919 351 922 l 265 806 q 247 797 260 797 l 192 797 z "},"ầ":{"ha":708,"x_min":64,"x_max":615,"o":"m 354 714 q 547 650 479 714 q 615 481 615 586 l 615 14 q 601 0 615 0 l 531 0 q 517 14 517 0 l 517 71 q 515 75 517 74 q 510 74 513 76 q 419 10 475 32 q 296 -11 364 -11 q 131 39 197 -11 q 64 192 64 89 q 140 356 64 296 q 350 417 215 417 l 511 417 q 517 422 517 417 l 517 475 q 477 587 517 546 q 354 628 438 628 q 246 602 288 628 q 194 531 204 576 q 178 518 190 517 l 103 528 q 90 539 88 531 q 174 665 101 617 q 354 714 246 714 m 315 74 q 457 115 397 74 q 517 225 517 156 l 517 333 q 511 339 517 339 l 365 339 q 218 301 274 339 q 163 197 163 264 q 205 105 163 136 q 315 74 247 74 z "},"ẩ":{"ha":708,"x_min":64,"x_max":639,"o":"m 354 714 q 547 650 479 714 q 615 481 615 586 l 615 14 q 601 0 615 0 l 531 0 q 517 14 517 0 l 517 71 q 515 75 517 74 q 510 74 513 76 q 419 10 475 32 q 296 -11 364 -11 q 131 39 197 -11 q 64 192 64 89 q 140 356 64 296 q 350 417 215 417 l 511 417 q 517 422 517 417 l 517 475 q 477 587 517 546 q 354 628 438 628 q 246 602 288 628 q 194 531 204 576 q 178 518 190 517 l 103 528 q 90 539 88 531 q 174 665 101 617 q 354 714 246 714 m 315 74 q 457 115 397 74 q 517 225 517 156 l 517 333 q 511 339 517 339 l 365 339 q 218 301 274 339 q 163 197 163 264 q 205 105 163 136 q 315 74 247 74 z "},"ẫ":{"ha":708,"x_min":64,"x_max":615,"o":"m 354 714 q 547 650 479 714 q 615 481 615 586 l 615 14 q 601 0 615 0 l 531 0 q 517 14 517 0 l 517 71 q 515 75 517 74 q 510 74 513 76 q 419 10 475 32 q 296 -11 364 -11 q 131 39 197 -11 q 64 192 64 89 q 140 356 64 296 q 350 417 215 417 l 511 417 q 517 422 517 417 l 517 475 q 477 587 517 546 q 354 628 438 628 q 246 602 288 628 q 194 531 204 576 q 178 518 190 517 l 103 528 q 90 539 88 531 q 174 665 101 617 q 354 714 246 714 m 315 74 q 457 115 397 74 q 517 225 517 156 l 517 333 q 511 339 517 339 l 365 339 q 218 301 274 339 q 163 197 163 264 q 205 105 163 136 q 315 74 247 74 z "},"ä":{"ha":708,"x_min":64,"x_max":615,"o":"m 354 714 q 547 650 479 714 q 615 481 615 586 l 615 14 q 601 0 615 0 l 531 0 q 517 14 517 0 l 517 71 q 515 75 517 74 q 510 74 513 76 q 419 10 475 32 q 296 -11 364 -11 q 131 39 197 -11 q 64 192 64 89 q 140 356 64 296 q 350 417 215 417 l 511 417 q 517 422 517 417 l 517 475 q 477 587 517 546 q 354 628 438 628 q 246 602 288 628 q 194 531 204 576 q 178 518 190 517 l 103 528 q 90 539 88 531 q 174 665 101 617 q 354 714 246 714 m 315 74 q 457 115 397 74 q 517 225 517 156 l 517 333 q 511 339 517 339 l 365 339 q 218 301 274 339 q 163 197 163 264 q 205 105 163 136 q 315 74 247 74 z "},"ạ":{"ha":708,"x_min":64,"x_max":615,"o":"m 354 714 q 547 650 479 714 q 615 481 615 586 l 615 14 q 601 0 615 0 l 531 0 q 517 14 517 0 l 517 71 q 515 75 517 74 q 510 74 513 76 q 419 10 475 32 q 296 -11 364 -11 q 131 39 197 -11 q 64 192 64 89 q 140 356 64 296 q 350 417 215 417 l 511 417 q 517 422 517 417 l 517 475 q 477 587 517 546 q 354 628 438 628 q 246 602 288 628 q 194 531 204 576 q 178 518 190 517 l 103 528 q 90 539 88 531 q 174 665 101 617 q 354 714 246 714 m 315 74 q 457 115 397 74 q 517 225 517 156 l 517 333 q 511 339 517 339 l 365 339 q 218 301 274 339 q 163 197 163 264 q 205 105 163 136 q 315 74 247 74 m 356 -256 q 303 -235 324 -256 q 282 -182 282 -214 q 303 -129 282 -150 q 356 -108 324 -108 q 408 -129 388 -108 q 429 -182 429 -150 q 408 -235 429 -214 q 356 -256 386 -256 z "},"à":{"ha":708,"x_min":64,"x_max":615,"o":"m 354 714 q 547 650 479 714 q 615 481 615 586 l 615 14 q 601 0 615 0 l 531 0 q 517 14 517 0 l 517 71 q 515 75 517 74 q 510 74 513 76 q 419 10 475 32 q 296 -11 364 -11 q 131 39 197 -11 q 64 192 64 89 q 140 356 64 296 q 350 417 215 417 l 511 417 q 517 422 517 417 l 517 475 q 477 587 517 546 q 354 628 438 628 q 246 602 288 628 q 194 531 204 576 q 178 518 190 517 l 103 528 q 90 539 88 531 q 174 665 101 617 q 354 714 246 714 m 315 74 q 457 115 397 74 q 517 225 517 156 l 517 333 q 511 339 517 339 l 365 339 q 218 301 274 339 q 163 197 163 264 q 205 105 163 136 q 315 74 247 74 m 392 811 q 394 803 394 806 q 382 794 394 794 l 332 794 q 315 804 322 794 l 221 956 q 218 964 218 961 q 229 972 218 972 l 292 972 q 308 963 304 972 l 392 811 z "},"ả":{"ha":708,"x_min":64,"x_max":615,"o":"m 354 714 q 547 650 479 714 q 615 481 615 586 l 615 14 q 601 0 615 0 l 531 0 q 517 14 517 0 l 517 71 q 515 75 517 74 q 510 74 513 76 q 419 10 475 32 q 296 -11 364 -11 q 131 39 197 -11 q 64 192 64 89 q 140 356 64 296 q 350 417 215 417 l 511 417 q 517 422 517 417 l 517 475 q 477 587 517 546 q 354 628 438 628 q 246 602 288 628 q 194 531 204 576 q 178 518 190 517 l 103 528 q 90 539 88 531 q 174 665 101 617 q 354 714 246 714 m 315 74 q 457 115 397 74 q 517 225 517 156 l 517 333 q 511 339 517 339 l 365 339 q 218 301 274 339 q 163 197 163 264 q 205 105 163 136 q 315 74 247 74 m 344 769 q 335 776 338 771 q 335 786 332 781 q 357 824 344 807 q 382 853 369 840 q 408 883 400 869 q 417 918 417 897 q 399 953 417 938 q 358 968 382 968 q 319 957 335 968 q 283 918 303 946 q 264 915 275 907 l 242 929 q 238 949 231 938 q 290 1006 264 989 q 361 1024 317 1024 q 445 994 413 1024 q 478 918 478 965 q 465 867 478 888 q 426 819 453 847 q 388 772 397 793 q 369 764 382 763 l 344 769 z "},"ā":{"ha":708,"x_min":64,"x_max":615,"o":"m 354 714 q 547 650 479 714 q 615 481 615 586 l 615 14 q 601 0 615 0 l 531 0 q 517 14 517 0 l 517 71 q 515 75 517 74 q 510 74 513 76 q 419 10 475 32 q 296 -11 364 -11 q 131 39 197 -11 q 64 192 64 89 q 140 356 64 296 q 350 417 215 417 l 511 417 q 517 422 517 417 l 517 475 q 477 587 517 546 q 354 628 438 628 q 246 602 288 628 q 194 531 204 576 q 178 518 190 517 l 103 528 q 90 539 88 531 q 174 665 101 617 q 354 714 246 714 m 315 74 q 457 115 397 74 q 517 225 517 156 l 517 333 q 511 339 517 339 l 365 339 q 218 301 274 339 q 163 197 163 264 q 205 105 163 136 q 315 74 247 74 m 182 825 q 168 839 168 825 l 168 882 q 182 896 168 896 l 528 896 q 542 882 542 896 l 542 839 q 528 825 542 825 l 182 825 z "},"ą":{"ha":708,"x_min":64,"x_max":644,"o":"m 628 -192 q 639 -203 636 -192 l 644 -235 l 644 -239 q 635 -251 644 -247 q 578 -258 607 -258 q 501 -239 535 -258 q 456 -175 467 -219 q 453 -146 453 -165 q 535 -7 453 -71 q 536 -3 538 -6 q 532 0 535 0 l 531 0 q 517 14 517 0 l 517 71 q 515 75 517 74 q 510 74 513 76 q 419 10 475 32 q 296 -11 364 -11 q 131 39 197 -11 q 64 192 64 89 q 140 356 64 296 q 350 417 215 417 l 511 417 q 517 422 517 417 l 517 475 q 477 587 517 546 q 354 628 438 628 q 246 602 288 628 q 194 531 204 576 q 178 518 190 517 l 103 528 q 90 543 89 531 q 176 667 104 619 q 354 714 247 714 q 547 650 479 714 q 615 481 615 586 l 615 0 l 608 -7 q 548 -68 571 -36 q 525 -131 525 -100 q 526 -147 525 -142 q 549 -185 532 -172 q 592 -197 567 -197 q 622 -193 606 -197 l 628 -192 m 315 74 q 457 115 397 74 q 517 225 517 156 l 517 333 q 511 339 517 339 l 365 339 q 218 301 274 339 q 163 197 163 264 q 205 105 163 136 q 315 74 247 74 z "},"å":{"ha":708,"x_min":64,"x_max":615,"o":"m 354 714 q 547 650 479 714 q 615 481 615 586 l 615 14 q 601 0 615 0 l 531 0 q 517 14 517 0 l 517 71 q 515 75 517 74 q 510 74 513 76 q 419 10 475 32 q 296 -11 364 -11 q 131 39 197 -11 q 64 192 64 89 q 140 356 64 296 q 350 417 215 417 l 511 417 q 517 422 517 417 l 517 475 q 477 587 517 546 q 354 628 438 628 q 246 602 288 628 q 194 531 204 576 q 178 518 190 517 l 103 528 q 90 539 88 531 q 174 665 101 617 q 354 714 246 714 m 315 74 q 457 115 397 74 q 517 225 517 156 l 517 333 q 511 339 517 339 l 365 339 q 218 301 274 339 q 163 197 163 264 q 205 105 163 136 q 315 74 247 74 m 356 804 q 247 847 290 804 q 203 954 203 890 q 247 1060 203 1017 q 356 1104 292 1104 q 463 1060 419 1104 q 507 954 507 1017 q 463 847 507 890 q 356 804 419 804 m 356 864 q 420 890 393 864 q 447 954 447 915 q 420 1019 447 993 q 356 1046 393 1046 q 290 1019 317 1046 q 263 954 263 993 q 290 890 263 915 q 356 864 317 864 z "},"ã":{"ha":708,"x_min":64,"x_max":615,"o":"m 354 714 q 547 650 479 714 q 615 481 615 586 l 615 14 q 601 0 615 0 l 531 0 q 517 14 517 0 l 517 71 q 515 75 517 74 q 510 74 513 76 q 419 10 475 32 q 296 -11 364 -11 q 131 39 197 -11 q 64 192 64 89 q 140 356 64 296 q 350 417 215 417 l 511 417 q 517 422 517 417 l 517 475 q 477 587 517 546 q 354 628 438 628 q 246 602 288 628 q 194 531 204 576 q 178 518 190 517 l 103 528 q 90 539 88 531 q 174 665 101 617 q 354 714 246 714 m 315 74 q 457 115 397 74 q 517 225 517 156 l 517 333 q 511 339 517 339 l 365 339 q 218 301 274 339 q 163 197 163 264 q 205 105 163 136 q 315 74 247 74 m 442 838 q 396 846 415 838 q 356 868 376 854 q 317 889 331 883 q 286 894 303 894 q 244 887 261 894 q 210 860 226 879 q 190 857 201 847 l 165 882 q 163 901 156 892 q 282 969 208 969 q 322 963 304 969 q 353 948 339 956 q 372 938 368 940 q 392 926 378 935 q 419 914 407 918 q 442 910 431 910 q 515 949 488 910 q 535 951 524 963 l 560 928 q 561 907 569 918 q 509 856 542 874 q 442 838 476 838 z "},"æ":{"ha":1156,"x_min":64,"x_max":1072,"o":"m 308 -11 q 133 36 203 -11 q 64 183 64 83 q 139 344 64 286 q 350 403 214 403 l 511 403 q 517 408 517 403 l 517 468 q 476 584 517 540 q 350 628 435 628 q 243 601 286 628 q 190 531 200 575 q 174 518 186 517 l 103 528 q 90 543 89 531 q 174 667 103 619 q 349 714 246 714 q 490 680 431 714 q 572 592 549 646 q 579 590 575 583 q 665 678 606 642 q 796 714 724 714 q 963 662 890 714 q 1058 522 1036 610 q 1069 453 1067 493 q 1072 335 1072 414 q 1058 319 1072 319 l 624 319 q 618 314 618 319 q 619 226 618 261 q 677 119 624 157 q 810 82 731 82 q 983 183 936 82 q 1001 190 989 196 l 1050 164 q 1057 146 1061 157 q 960 33 1029 78 q 799 -11 892 -11 q 659 21 719 -11 q 571 107 599 53 q 568 110 569 110 q 565 108 567 110 q 466 21 536 53 q 308 -11 396 -11 m 617 408 q 622 403 617 403 l 968 403 q 974 408 974 403 q 968 492 974 468 q 908 590 956 551 q 794 628 861 628 q 681 590 726 628 q 624 492 635 553 q 617 408 619 471 m 318 68 q 458 108 399 68 q 517 222 517 147 l 517 314 q 511 319 517 319 l 364 319 q 217 287 271 319 q 163 192 163 254 q 206 101 163 133 q 318 68 249 68 z "},"b":{"ha":758,"x_min":111,"x_max":668,"o":"m 651 524 q 668 351 668 461 q 649 175 668 238 q 557 39 622 89 q 394 -11 492 -11 q 293 11 339 -11 q 217 75 247 33 q 213 77 215 78 q 210 74 210 76 l 210 14 q 196 0 210 0 l 125 0 q 111 14 111 0 l 111 958 q 125 972 111 972 l 196 972 q 210 958 210 972 l 210 631 q 212 627 210 628 q 217 629 214 626 q 293 692 247 669 q 394 714 339 714 q 560 663 493 714 q 651 524 626 613 m 544 183 q 564 249 558 213 q 569 351 569 286 q 562 458 569 419 q 538 526 554 496 q 479 600 519 572 q 383 628 439 628 q 292 599 331 628 q 238 524 254 571 q 217 457 224 494 q 211 351 211 419 q 217 248 211 285 q 236 182 224 211 q 292 104 254 133 q 385 75 329 75 q 485 104 443 75 q 544 183 528 133 z "},"c":{"ha":722,"x_min":89,"x_max":657,"o":"m 376 -11 q 205 41 276 -11 q 107 182 133 93 q 89 354 89 243 q 107 524 89 454 q 204 662 132 610 q 376 714 276 714 q 552 663 478 714 q 649 535 626 611 q 657 493 656 510 l 657 490 q 644 478 657 481 l 575 468 l 572 468 q 560 481 563 468 l 556 501 q 494 591 543 554 q 376 628 446 628 q 260 591 307 628 q 200 493 214 554 q 188 353 188 440 q 200 211 188 261 q 260 112 214 149 q 376 75 307 75 q 494 110 444 75 q 556 201 543 146 l 556 207 l 557 213 q 574 224 558 226 l 642 213 q 654 197 656 210 l 649 169 q 553 39 628 89 q 376 -11 478 -11 z "},"ć":{"ha":722,"x_min":89,"x_max":657,"o":"m 376 -11 q 205 41 276 -11 q 107 182 133 93 q 89 354 89 243 q 107 524 89 454 q 204 662 132 610 q 376 714 276 714 q 552 663 478 714 q 649 535 626 611 q 657 493 656 510 l 657 490 q 644 478 657 481 l 575 468 l 572 468 q 560 481 563 468 l 556 501 q 494 591 543 554 q 376 628 446 628 q 260 591 307 628 q 200 493 214 554 q 188 353 188 440 q 200 211 188 261 q 260 112 214 149 q 376 75 307 75 q 494 110 444 75 q 556 201 543 146 l 556 207 l 557 213 q 574 224 558 226 l 642 213 q 654 197 656 210 l 649 169 q 553 39 628 89 q 376 -11 478 -11 m 329 794 q 318 799 321 794 q 319 811 315 804 l 403 963 q 419 972 407 972 l 482 972 q 492 967 490 972 q 490 956 494 963 l 396 804 q 379 794 389 794 l 329 794 z "},"č":{"ha":722,"x_min":89,"x_max":657,"o":"m 376 -11 q 205 41 276 -11 q 107 182 133 93 q 89 354 89 243 q 107 524 89 454 q 204 662 132 610 q 376 714 276 714 q 552 663 478 714 q 649 535 626 611 q 657 493 656 510 l 657 490 q 644 478 657 481 l 575 468 l 572 468 q 560 481 563 468 l 556 501 q 494 591 543 554 q 376 628 446 628 q 260 591 307 628 q 200 493 214 554 q 188 353 188 440 q 200 211 188 261 q 260 112 214 149 q 376 75 307 75 q 494 110 444 75 q 556 201 543 146 l 556 207 l 557 213 q 574 224 558 226 l 642 213 q 654 197 656 210 l 649 169 q 553 39 628 89 q 376 -11 478 -11 m 208 956 q 206 964 206 958 q 208 969 206 967 q 217 972 211 972 l 272 972 q 290 964 285 972 l 375 850 q 379 849 376 849 q 383 850 382 849 l 467 964 q 485 972 472 972 l 540 972 q 551 967 549 972 q 549 956 554 963 l 436 806 q 418 797 431 797 l 338 797 q 319 806 325 797 l 208 956 z "},"ç":{"ha":722,"x_min":89,"x_max":657,"o":"m 556 207 l 557 213 q 574 224 558 226 l 642 213 q 654 197 656 210 l 649 169 q 565 47 629 96 q 410 -10 500 -1 q 407 -15 401 -10 q 478 -146 478 -76 q 475 -175 478 -165 q 430 -239 464 -219 q 353 -258 396 -258 q 296 -251 324 -258 q 286 -235 285 -247 l 292 -203 q 298 -194 293 -196 q 308 -193 303 -192 q 339 -197 325 -197 q 381 -185 364 -197 q 404 -147 399 -172 q 406 -131 406 -142 q 384 -69 406 -101 q 326 -10 363 -37 q 319 -7 325 -7 q 186 56 242 7 q 107 182 131 106 q 89 354 89 243 q 107 524 89 454 q 204 662 132 610 q 376 714 276 714 q 552 663 478 714 q 649 535 626 611 q 657 493 656 510 l 657 490 q 644 478 657 481 l 575 468 l 572 468 q 560 481 563 468 l 556 501 q 494 591 543 554 q 376 628 446 628 q 260 591 307 628 q 200 493 214 554 q 188 353 188 440 q 200 211 188 261 q 260 112 214 149 q 376 75 307 75 q 494 110 444 75 q 556 201 543 146 l 556 207 z "},"ĉ":{"ha":722,"x_min":89,"x_max":657,"o":"m 376 -11 q 205 41 276 -11 q 107 182 133 93 q 89 354 89 243 q 107 524 89 454 q 204 662 132 610 q 376 714 276 714 q 552 663 478 714 q 649 535 626 611 q 657 493 656 510 l 657 490 q 644 478 657 481 l 575 468 l 572 468 q 560 481 563 468 l 556 501 q 494 591 543 554 q 376 628 446 628 q 260 591 307 628 q 200 493 214 554 q 188 353 188 440 q 200 211 188 261 q 260 112 214 149 q 376 75 307 75 q 494 110 444 75 q 556 201 543 146 l 556 207 l 557 213 q 574 224 558 226 l 642 213 q 654 197 656 210 l 649 169 q 553 39 628 89 q 376 -11 478 -11 m 213 797 q 201 802 204 797 q 204 814 199 807 l 315 964 q 333 972 321 972 l 414 972 q 432 964 426 972 l 544 814 q 547 806 547 811 q 544 800 547 803 q 536 797 542 797 l 481 797 q 463 806 468 797 l 379 919 q 375 922 378 922 q 371 919 372 922 l 286 806 q 268 797 281 797 l 213 797 z "},"ċ":{"ha":722,"x_min":89,"x_max":657,"o":"m 376 -11 q 205 41 276 -11 q 107 182 133 93 q 89 354 89 243 q 107 524 89 454 q 204 662 132 610 q 376 714 276 714 q 552 663 478 714 q 649 535 626 611 q 657 493 656 510 l 657 490 q 644 478 657 481 l 575 468 l 572 468 q 560 481 563 468 l 556 501 q 494 591 543 554 q 376 628 446 628 q 260 591 307 628 q 200 493 214 554 q 188 353 188 440 q 200 211 188 261 q 260 112 214 149 q 376 75 307 75 q 494 110 444 75 q 556 201 543 146 l 556 207 l 557 213 q 574 224 558 226 l 642 213 q 654 197 656 210 l 649 169 q 553 39 628 89 q 376 -11 478 -11 m 375 831 q 319 853 340 831 q 297 908 297 875 q 319 965 297 943 q 375 986 340 986 q 431 965 408 986 q 453 908 453 943 q 431 853 453 875 q 375 831 408 831 z "},"d":{"ha":758,"x_min":90,"x_max":646,"o":"m 547 958 q 561 972 547 972 l 632 972 q 646 958 646 972 l 646 14 q 632 0 646 0 l 561 0 q 547 14 547 0 l 547 72 q 545 76 547 75 q 540 74 543 76 q 465 11 510 33 q 364 -11 419 -11 q 201 39 267 -11 q 110 175 135 89 q 90 351 90 238 q 107 524 90 467 q 199 663 132 613 q 364 714 265 714 q 464 692 418 714 q 540 631 510 671 q 545 628 543 628 q 547 632 547 629 l 547 958 m 522 182 q 540 247 535 210 q 546 351 546 285 q 540 456 546 418 q 521 524 535 494 q 466 599 504 571 q 375 628 428 628 q 279 600 319 628 q 221 526 239 572 q 197 458 204 496 q 189 351 189 419 q 194 249 189 286 q 214 183 200 213 q 273 104 231 133 q 374 75 315 75 q 467 104 429 75 q 522 182 504 133 z "},"ð":{"ha":738,"x_min":89,"x_max":644,"o":"m 636 493 q 644 339 644 440 q 642 239 644 275 q 631 174 639 203 q 535 40 606 90 q 365 -11 464 -11 q 198 40 268 -11 q 103 174 128 90 q 92 242 94 204 q 89 339 89 279 q 92 436 89 400 q 103 503 94 472 q 174 616 121 571 q 303 668 228 661 q 351 672 325 672 q 439 660 397 672 q 508 626 481 649 q 513 624 511 624 q 513 629 514 625 q 421 792 486 710 q 414 794 418 797 l 286 757 l 281 756 q 268 767 272 756 l 260 797 l 258 803 q 269 815 258 811 l 367 844 q 368 851 375 847 q 260 956 317 906 q 254 964 254 960 q 267 972 254 972 l 344 972 q 361 965 354 972 q 454 874 422 907 q 461 872 457 871 l 568 904 l 574 906 q 586 894 582 906 l 594 863 l 594 858 q 585 846 594 850 l 508 822 q 504 817 503 821 q 593 672 558 750 q 636 493 628 594 m 536 200 q 544 336 544 233 q 536 469 544 438 q 478 566 524 529 q 365 603 432 603 q 255 566 300 603 q 197 469 210 529 q 188 336 188 438 q 197 200 188 239 q 255 103 210 140 q 365 67 300 67 q 478 103 432 67 q 536 200 524 140 z "},"ď":{"ha":758,"x_min":90,"x_max":886,"o":"m 547 958 q 561 972 547 972 l 632 972 q 646 958 646 972 l 646 14 q 632 0 646 0 l 561 0 q 547 14 547 0 l 547 72 q 545 76 547 75 q 540 74 543 76 q 465 11 510 33 q 364 -11 419 -11 q 201 39 267 -11 q 110 175 135 89 q 90 351 90 238 q 107 524 90 467 q 199 663 132 613 q 364 714 265 714 q 464 692 418 714 q 540 631 510 671 q 545 628 543 628 q 547 632 547 629 l 547 958 m 522 182 q 540 247 535 210 q 546 351 546 285 q 540 456 546 418 q 521 524 535 494 q 466 599 504 571 q 375 628 428 628 q 279 600 319 628 q 221 526 239 572 q 197 458 204 496 q 189 351 189 419 q 194 249 189 286 q 214 183 200 213 q 273 104 231 133 q 374 75 315 75 q 467 104 429 75 q 522 182 504 133 z "},"đ":{"ha":758,"x_min":90,"x_max":749,"o":"m 735 861 q 749 847 749 861 l 749 810 q 735 796 749 796 l 651 796 q 646 790 646 796 l 646 14 q 632 0 646 0 l 561 0 q 547 14 547 0 l 547 72 q 545 76 547 75 q 540 74 543 76 q 465 11 510 33 q 364 -11 419 -11 q 201 39 267 -11 q 110 175 135 89 q 90 351 90 238 q 107 524 90 467 q 199 663 132 613 q 364 714 265 714 q 464 692 418 714 q 540 631 510 671 q 545 628 543 628 q 547 632 547 629 l 547 790 q 542 796 547 796 l 321 796 q 307 810 307 796 l 307 847 q 321 861 307 861 l 542 861 q 547 867 547 861 l 547 958 q 561 972 547 972 l 632 972 q 646 958 646 972 l 646 867 q 651 861 646 861 l 735 861 m 522 182 q 540 247 535 210 q 546 351 546 285 q 540 456 546 418 q 521 524 535 494 q 466 599 504 571 q 375 628 428 628 q 279 600 319 628 q 221 526 239 572 q 197 458 204 496 q 189 351 189 419 q 194 249 189 286 q 214 183 200 213 q 273 104 231 133 q 374 75 315 75 q 467 104 429 75 q 522 182 504 133 z "},"e":{"ha":740,"x_min":90,"x_max":656,"o":"m 650 469 q 656 372 656 431 l 656 328 q 642 314 656 314 l 193 314 q 188 308 188 314 q 196 210 190 232 q 261 111 211 147 q 389 75 311 75 q 492 101 447 75 q 561 176 536 128 q 581 182 569 189 l 635 150 q 640 131 646 143 q 536 26 606 64 q 376 -12 467 -12 q 211 35 278 -11 q 115 163 144 81 q 90 354 90 229 q 92 449 90 413 q 103 515 94 486 q 198 660 126 606 q 371 714 269 714 q 565 650 497 714 q 650 469 633 586 m 371 628 q 258 592 303 628 q 199 497 213 557 q 188 403 190 468 q 193 397 188 397 l 553 397 q 558 403 558 397 q 550 492 556 465 q 488 591 535 554 q 371 628 442 628 z "},"é":{"ha":740,"x_min":90,"x_max":656,"o":"m 650 469 q 656 372 656 431 l 656 328 q 642 314 656 314 l 193 314 q 188 308 188 314 q 196 210 190 232 q 261 111 211 147 q 389 75 311 75 q 492 101 447 75 q 561 176 536 128 q 581 182 569 189 l 635 150 q 640 131 646 143 q 536 26 606 64 q 376 -12 467 -12 q 211 35 278 -11 q 115 163 144 81 q 90 354 90 229 q 92 449 90 413 q 103 515 94 486 q 198 660 126 606 q 371 714 269 714 q 565 650 497 714 q 650 469 633 586 m 371 628 q 258 592 303 628 q 199 497 213 557 q 188 403 190 468 q 193 397 188 397 l 553 397 q 558 403 558 397 q 550 492 556 465 q 488 591 535 554 q 371 628 442 628 m 324 794 q 313 799 315 794 q 314 811 310 804 l 397 963 q 414 972 401 972 l 476 972 q 487 967 485 972 q 485 956 489 963 l 390 804 q 374 794 383 794 l 324 794 z "},"ě":{"ha":740,"x_min":90,"x_max":656,"o":"m 650 469 q 656 372 656 431 l 656 328 q 642 314 656 314 l 193 314 q 188 308 188 314 q 196 210 190 232 q 261 111 211 147 q 389 75 311 75 q 492 101 447 75 q 561 176 536 128 q 581 182 569 189 l 635 150 q 640 131 646 143 q 536 26 606 64 q 376 -12 467 -12 q 211 35 278 -11 q 115 163 144 81 q 90 354 90 229 q 92 449 90 413 q 103 515 94 486 q 198 660 126 606 q 371 714 269 714 q 565 650 497 714 q 650 469 633 586 m 371 628 q 258 592 303 628 q 199 497 213 557 q 188 403 190 468 q 193 397 188 397 l 553 397 q 558 403 558 397 q 550 492 556 465 q 488 591 535 554 q 371 628 442 628 z "},"ȩ":{"ha":740,"x_min":90,"x_max":656,"o":"m 650 469 q 656 372 656 431 l 656 328 q 642 314 656 314 l 193 314 q 188 308 188 314 q 196 210 190 232 q 261 111 211 147 q 389 75 311 75 q 492 101 447 75 q 561 176 536 128 q 581 182 569 189 l 635 150 q 640 131 646 143 q 552 35 610 72 q 421 -10 494 -1 q 418 -17 413 -11 q 489 -146 489 -76 q 486 -176 489 -167 q 441 -240 475 -221 q 363 -260 407 -260 q 307 -253 335 -260 q 297 -236 296 -249 l 303 -204 q 308 -195 304 -199 q 319 -193 313 -192 q 351 -197 336 -197 q 399 -181 381 -197 q 417 -132 417 -165 q 340 -12 417 -74 q 333 -10 339 -10 q 197 46 253 1 q 115 163 142 90 q 90 354 90 229 q 92 449 90 413 q 103 515 94 486 q 198 660 126 606 q 371 714 269 714 q 565 650 497 714 q 650 469 633 586 m 371 628 q 258 592 303 628 q 199 497 213 557 q 188 403 190 468 q 193 397 188 397 l 553 397 q 558 403 558 397 q 550 492 556 465 q 488 591 535 554 q 371 628 442 628 z "},"ê":{"ha":740,"x_min":90,"x_max":656,"o":"m 650 469 q 656 372 656 431 l 656 328 q 642 314 656 314 l 193 314 q 188 308 188 314 q 196 210 190 232 q 261 111 211 147 q 389 75 311 75 q 492 101 447 75 q 561 176 536 128 q 581 182 569 189 l 635 150 q 640 131 646 143 q 536 26 606 64 q 376 -12 467 -12 q 211 35 278 -11 q 115 163 144 81 q 90 354 90 229 q 92 449 90 413 q 103 515 94 486 q 198 660 126 606 q 371 714 269 714 q 565 650 497 714 q 650 469 633 586 m 371 628 q 258 592 303 628 q 199 497 213 557 q 188 403 190 468 q 193 397 188 397 l 553 397 q 558 403 558 397 q 550 492 556 465 q 488 591 535 554 q 371 628 442 628 m 207 797 q 196 802 199 797 q 199 814 193 807 l 310 964 q 328 972 315 972 l 408 972 q 426 964 421 972 l 539 814 q 542 806 542 811 q 539 800 542 803 q 531 797 536 797 l 475 797 q 457 806 463 797 l 374 919 q 369 922 372 922 q 365 919 367 922 l 281 806 q 263 797 275 797 l 207 797 z "},"ế":{"ha":740,"x_min":90,"x_max":718,"o":"m 650 469 q 656 372 656 431 l 656 328 q 642 314 656 314 l 193 314 q 188 308 188 314 q 196 210 190 232 q 261 111 211 147 q 389 75 311 75 q 492 101 447 75 q 561 176 536 128 q 581 182 569 189 l 635 150 q 640 131 646 143 q 536 26 606 64 q 376 -12 467 -12 q 211 35 278 -11 q 115 163 144 81 q 90 354 90 229 q 92 449 90 413 q 103 515 94 486 q 198 660 126 606 q 371 714 269 714 q 565 650 497 714 q 650 469 633 586 m 371 628 q 258 592 303 628 q 199 497 213 557 q 188 403 190 468 q 193 397 188 397 l 553 397 q 558 403 558 397 q 550 492 556 465 q 488 591 535 554 q 371 628 442 628 z "},"ệ":{"ha":740,"x_min":90,"x_max":656,"o":"m 650 469 q 656 372 656 431 l 656 328 q 642 314 656 314 l 193 314 q 188 308 188 314 q 196 210 190 232 q 261 111 211 147 q 389 75 311 75 q 492 101 447 75 q 561 176 536 128 q 581 182 569 189 l 635 150 q 640 131 646 143 q 536 26 606 64 q 376 -12 467 -12 q 211 35 278 -11 q 115 163 144 81 q 90 354 90 229 q 92 449 90 413 q 103 515 94 486 q 198 660 126 606 q 371 714 269 714 q 565 650 497 714 q 650 469 633 586 m 371 628 q 258 592 303 628 q 199 497 213 557 q 188 403 190 468 q 193 397 188 397 l 553 397 q 558 403 558 397 q 550 492 556 465 q 488 591 535 554 q 371 628 442 628 m 376 -268 q 324 -247 344 -268 q 303 -194 303 -226 q 324 -142 303 -162 q 376 -121 344 -121 q 429 -142 408 -121 q 450 -194 450 -162 q 428 -247 450 -226 q 376 -268 407 -268 m 207 797 q 196 802 199 797 q 199 814 193 807 l 310 964 q 328 972 315 972 l 408 972 q 426 964 421 972 l 539 814 q 542 806 542 811 q 539 800 542 803 q 531 797 536 797 l 475 797 q 457 806 463 797 l 374 919 q 369 922 372 922 q 365 919 367 922 l 281 806 q 263 797 275 797 l 207 797 z "},"ề":{"ha":740,"x_min":90,"x_max":656,"o":"m 650 469 q 656 372 656 431 l 656 328 q 642 314 656 314 l 193 314 q 188 308 188 314 q 196 210 190 232 q 261 111 211 147 q 389 75 311 75 q 492 101 447 75 q 561 176 536 128 q 581 182 569 189 l 635 150 q 640 131 646 143 q 536 26 606 64 q 376 -12 467 -12 q 211 35 278 -11 q 115 163 144 81 q 90 354 90 229 q 92 449 90 413 q 103 515 94 486 q 198 660 126 606 q 371 714 269 714 q 565 650 497 714 q 650 469 633 586 m 371 628 q 258 592 303 628 q 199 497 213 557 q 188 403 190 468 q 193 397 188 397 l 553 397 q 558 403 558 397 q 550 492 556 465 q 488 591 535 554 q 371 628 442 628 z "},"ể":{"ha":740,"x_min":90,"x_max":656,"o":"m 650 469 q 656 372 656 431 l 656 328 q 642 314 656 314 l 193 314 q 188 308 188 314 q 196 210 190 232 q 261 111 211 147 q 389 75 311 75 q 492 101 447 75 q 561 176 536 128 q 581 182 569 189 l 635 150 q 640 131 646 143 q 536 26 606 64 q 376 -12 467 -12 q 211 35 278 -11 q 115 163 144 81 q 90 354 90 229 q 92 449 90 413 q 103 515 94 486 q 198 660 126 606 q 371 714 269 714 q 565 650 497 714 q 650 469 633 586 m 371 628 q 258 592 303 628 q 199 497 213 557 q 188 403 190 468 q 193 397 188 397 l 553 397 q 558 403 558 397 q 550 492 556 465 q 488 591 535 554 q 371 628 442 628 z "},"ễ":{"ha":740,"x_min":90,"x_max":656,"o":"m 650 469 q 656 372 656 431 l 656 328 q 642 314 656 314 l 193 314 q 188 308 188 314 q 196 210 190 232 q 261 111 211 147 q 389 75 311 75 q 492 101 447 75 q 561 176 536 128 q 581 182 569 189 l 635 150 q 640 131 646 143 q 536 26 606 64 q 376 -12 467 -12 q 211 35 278 -11 q 115 163 144 81 q 90 354 90 229 q 92 449 90 413 q 103 515 94 486 q 198 660 126 606 q 371 714 269 714 q 565 650 497 714 q 650 469 633 586 m 371 628 q 258 592 303 628 q 199 497 213 557 q 188 403 190 468 q 193 397 188 397 l 553 397 q 558 403 558 397 q 550 492 556 465 q 488 591 535 554 q 371 628 442 628 z "},"ë":{"ha":740,"x_min":90,"x_max":656,"o":"m 650 469 q 656 372 656 431 l 656 328 q 642 314 656 314 l 193 314 q 188 308 188 314 q 196 210 190 232 q 261 111 211 147 q 389 75 311 75 q 492 101 447 75 q 561 176 536 128 q 581 182 569 189 l 635 150 q 640 131 646 143 q 536 26 606 64 q 376 -12 467 -12 q 211 35 278 -11 q 115 163 144 81 q 90 354 90 229 q 92 449 90 413 q 103 515 94 486 q 198 660 126 606 q 371 714 269 714 q 565 650 497 714 q 650 469 633 586 m 371 628 q 258 592 303 628 q 199 497 213 557 q 188 403 190 468 q 193 397 188 397 l 553 397 q 558 403 558 397 q 550 492 556 465 q 488 591 535 554 q 371 628 442 628 z "},"ė":{"ha":740,"x_min":90,"x_max":656,"o":"m 650 469 q 656 372 656 431 l 656 328 q 642 314 656 314 l 193 314 q 188 308 188 314 q 196 210 190 232 q 261 111 211 147 q 389 75 311 75 q 492 101 447 75 q 561 176 536 128 q 581 182 569 189 l 635 150 q 640 131 646 143 q 536 26 606 64 q 376 -12 467 -12 q 211 35 278 -11 q 115 163 144 81 q 90 354 90 229 q 92 449 90 413 q 103 515 94 486 q 198 660 126 606 q 371 714 269 714 q 565 650 497 714 q 650 469 633 586 m 371 628 q 258 592 303 628 q 199 497 213 557 q 188 403 190 468 q 193 397 188 397 l 553 397 q 558 403 558 397 q 550 492 556 465 q 488 591 535 554 q 371 628 442 628 m 369 831 q 313 853 335 831 q 292 908 292 875 q 313 965 292 943 q 369 986 335 986 q 425 965 403 986 q 447 908 447 943 q 425 853 447 875 q 369 831 403 831 z "},"ẹ":{"ha":740,"x_min":90,"x_max":656,"o":"m 650 469 q 656 372 656 431 l 656 328 q 642 314 656 314 l 193 314 q 188 308 188 314 q 196 210 190 232 q 261 111 211 147 q 389 75 311 75 q 492 101 447 75 q 561 176 536 128 q 581 182 569 189 l 635 150 q 640 131 646 143 q 536 26 606 64 q 376 -12 467 -12 q 211 35 278 -11 q 115 163 144 81 q 90 354 90 229 q 92 449 90 413 q 103 515 94 486 q 198 660 126 606 q 371 714 269 714 q 565 650 497 714 q 650 469 633 586 m 371 628 q 258 592 303 628 q 199 497 213 557 q 188 403 190 468 q 193 397 188 397 l 553 397 q 558 403 558 397 q 550 492 556 465 q 488 591 535 554 q 371 628 442 628 m 376 -268 q 324 -247 344 -268 q 303 -194 303 -226 q 324 -142 303 -162 q 376 -121 344 -121 q 429 -142 408 -121 q 450 -194 450 -162 q 428 -247 450 -226 q 376 -268 407 -268 z "},"è":{"ha":740,"x_min":90,"x_max":656,"o":"m 650 469 q 656 372 656 431 l 656 328 q 642 314 656 314 l 193 314 q 188 308 188 314 q 196 210 190 232 q 261 111 211 147 q 389 75 311 75 q 492 101 447 75 q 561 176 536 128 q 581 182 569 189 l 635 150 q 640 131 646 143 q 536 26 606 64 q 376 -12 467 -12 q 211 35 278 -11 q 115 163 144 81 q 90 354 90 229 q 92 449 90 413 q 103 515 94 486 q 198 660 126 606 q 371 714 269 714 q 565 650 497 714 q 650 469 633 586 m 371 628 q 258 592 303 628 q 199 497 213 557 q 188 403 190 468 q 193 397 188 397 l 553 397 q 558 403 558 397 q 550 492 556 465 q 488 591 535 554 q 371 628 442 628 m 407 811 q 410 803 410 806 q 397 794 410 794 l 347 794 q 331 804 338 794 l 236 956 q 233 964 233 961 q 244 972 233 972 l 307 972 q 324 963 319 972 l 407 811 z "},"ẻ":{"ha":740,"x_min":90,"x_max":656,"o":"m 650 469 q 656 372 656 431 l 656 328 q 642 314 656 314 l 193 314 q 188 308 188 314 q 196 210 190 232 q 261 111 211 147 q 389 75 311 75 q 492 101 447 75 q 561 176 536 128 q 581 182 569 189 l 635 150 q 640 131 646 143 q 536 26 606 64 q 376 -12 467 -12 q 211 35 278 -11 q 115 163 144 81 q 90 354 90 229 q 92 449 90 413 q 103 515 94 486 q 198 660 126 606 q 371 714 269 714 q 565 650 497 714 q 650 469 633 586 m 371 628 q 258 592 303 628 q 199 497 213 557 q 188 403 190 468 q 193 397 188 397 l 553 397 q 558 403 558 397 q 550 492 556 465 q 488 591 535 554 q 371 628 442 628 m 358 769 q 349 776 351 771 q 349 786 346 781 q 371 824 358 807 q 396 853 383 840 q 422 883 414 869 q 431 918 431 897 q 413 953 431 938 q 372 968 396 968 q 333 957 349 968 q 297 918 317 946 q 278 915 289 907 l 256 929 q 251 949 244 938 q 304 1006 278 989 q 375 1024 331 1024 q 459 994 426 1024 q 492 918 492 965 q 479 867 492 888 q 440 819 467 847 q 401 772 411 793 q 383 764 396 763 l 358 769 z "},"ē":{"ha":740,"x_min":90,"x_max":656,"o":"m 650 469 q 656 372 656 431 l 656 328 q 642 314 656 314 l 193 314 q 188 308 188 314 q 196 210 190 232 q 261 111 211 147 q 389 75 311 75 q 492 101 447 75 q 561 176 536 128 q 581 182 569 189 l 635 150 q 640 131 646 143 q 536 26 606 64 q 376 -12 467 -12 q 211 35 278 -11 q 115 163 144 81 q 90 354 90 229 q 92 449 90 413 q 103 515 94 486 q 198 660 126 606 q 371 714 269 714 q 565 650 497 714 q 650 469 633 586 m 371 628 q 258 592 303 628 q 199 497 213 557 q 188 403 190 468 q 193 397 188 397 l 553 397 q 558 403 558 397 q 550 492 556 465 q 488 591 535 554 q 371 628 442 628 m 197 863 q 183 876 183 863 l 183 921 q 197 935 183 935 l 543 935 q 557 921 557 935 l 557 876 q 543 863 557 863 l 197 863 z "},"ę":{"ha":740,"x_min":90,"x_max":656,"o":"m 650 469 q 656 372 656 431 l 656 328 q 642 314 656 314 l 193 314 q 188 308 188 314 q 196 210 190 232 q 261 111 211 147 q 389 75 311 75 q 492 101 447 75 q 561 176 536 128 q 581 182 569 189 l 635 150 q 640 131 646 143 q 550 35 608 72 q 415 -11 492 -3 q 408 -14 411 -11 q 333 -132 333 -75 q 352 -181 333 -165 q 401 -197 371 -197 q 432 -193 415 -197 l 438 -192 q 449 -203 446 -192 l 454 -235 l 454 -237 q 443 -251 454 -247 q 385 -258 413 -258 q 308 -240 340 -258 q 265 -176 276 -221 q 261 -144 261 -160 q 332 -15 261 -76 q 331 -8 339 -11 q 195 46 250 1 q 115 163 140 90 q 90 354 90 229 q 92 449 90 413 q 103 515 94 486 q 198 660 126 606 q 371 714 269 714 q 565 650 497 714 q 650 469 633 586 m 371 628 q 258 592 303 628 q 199 497 213 557 q 188 403 190 468 q 193 397 188 397 l 553 397 q 558 403 558 397 q 550 492 556 465 q 488 591 535 554 q 371 628 442 628 z "},"ẽ":{"ha":740,"x_min":90,"x_max":656,"o":"m 650 469 q 656 372 656 431 l 656 328 q 642 314 656 314 l 193 314 q 188 308 188 314 q 196 210 190 232 q 261 111 211 147 q 389 75 311 75 q 492 101 447 75 q 561 176 536 128 q 581 182 569 189 l 635 150 q 640 131 646 143 q 536 26 606 64 q 376 -12 467 -12 q 211 35 278 -11 q 115 163 144 81 q 90 354 90 229 q 92 449 90 413 q 103 515 94 486 q 198 660 126 606 q 371 714 269 714 q 565 650 497 714 q 650 469 633 586 m 371 628 q 258 592 303 628 q 199 497 213 557 q 188 403 190 468 q 193 397 188 397 l 553 397 q 558 403 558 397 q 550 492 556 465 q 488 591 535 554 q 371 628 442 628 m 457 838 q 411 846 431 838 q 371 868 392 854 q 332 889 346 883 q 301 894 318 894 q 259 887 276 894 q 225 860 242 879 q 206 857 217 847 l 181 882 q 178 901 171 892 q 297 969 224 969 q 337 963 319 969 q 369 948 354 956 q 388 938 383 940 q 408 926 393 935 q 434 914 422 918 q 457 910 446 910 q 531 949 503 910 q 550 951 539 963 l 575 928 q 576 907 585 918 q 524 856 557 874 q 457 838 492 838 z "},"ə":{"ha":740,"x_min":85,"x_max":650,"o":"m 625 540 q 650 349 650 474 q 648 253 650 290 q 638 188 646 217 q 542 43 614 97 q 369 -11 471 -11 q 175 53 243 -11 q 90 233 107 117 q 85 331 85 272 l 85 375 q 99 389 85 389 l 547 389 q 553 394 553 389 q 544 493 550 471 q 479 592 529 556 q 351 628 429 628 q 249 601 293 628 q 179 526 204 575 q 160 521 171 514 l 106 553 q 100 572 94 560 q 204 677 135 639 q 364 715 274 715 q 529 668 463 714 q 625 540 596 622 m 369 75 q 483 110 438 75 q 542 206 528 146 q 553 300 550 235 q 547 306 553 306 l 188 306 q 182 300 182 306 q 190 211 185 238 q 252 112 206 149 q 369 75 299 75 z "},"ʒ":{"ha":744,"x_min":86,"x_max":658,"o":"m 304 379 q 307 372 297 372 q 506 328 426 372 q 622 212 585 283 q 658 53 658 140 q 609 -125 658 -51 q 475 -235 560 -199 q 285 -272 390 -272 q 97 -244 189 -272 q 86 -228 86 -240 l 89 -168 q 94 -158 89 -161 q 106 -157 99 -154 q 285 -183 197 -183 q 484 -125 408 -183 q 560 49 560 -67 q 532 170 560 114 q 446 260 504 226 q 301 294 388 294 q 151 272 235 294 q 144 271 149 271 q 133 279 138 271 l 114 317 q 113 324 113 319 q 118 336 113 331 l 447 606 q 449 610 450 608 q 444 613 447 613 l 104 613 q 90 626 90 613 l 90 689 q 104 703 90 703 l 579 703 q 593 689 593 703 l 593 626 q 585 610 593 618 l 304 379 z "},"ǯ":{"ha":744,"x_min":86,"x_max":658,"o":"m 304 379 q 307 372 297 372 q 506 328 426 372 q 622 212 585 283 q 658 53 658 140 q 609 -125 658 -51 q 475 -235 560 -199 q 285 -272 390 -272 q 97 -244 189 -272 q 86 -228 86 -240 l 89 -168 q 94 -158 89 -161 q 106 -157 99 -154 q 285 -183 197 -183 q 484 -125 408 -183 q 560 49 560 -67 q 532 170 560 114 q 446 260 504 226 q 301 294 388 294 q 151 272 235 294 q 144 271 149 271 q 133 279 138 271 l 114 317 q 113 324 113 319 q 118 336 113 331 l 447 606 q 449 610 450 608 q 444 613 447 613 l 104 613 q 90 626 90 613 l 90 689 q 104 703 90 703 l 579 703 q 593 689 593 703 l 593 626 q 585 610 593 618 l 304 379 z "},"f":{"ha":494,"x_min":47,"x_max":435,"o":"m 389 886 q 285 852 313 886 q 257 736 257 818 l 257 708 q 263 703 257 703 l 418 703 q 432 689 432 703 l 432 626 q 418 613 432 613 l 263 613 q 257 607 257 613 l 257 14 q 243 0 257 0 l 174 0 q 160 14 160 0 l 160 607 q 154 613 160 613 l 61 613 q 47 626 47 613 l 47 689 q 61 703 47 703 l 154 703 q 160 708 160 703 l 160 742 q 179 877 160 828 q 247 949 199 926 q 381 972 294 972 l 421 972 q 435 958 435 972 l 435 900 q 421 886 435 886 l 389 886 z "},"g":{"ha":743,"x_min":85,"x_max":643,"o":"m 544 689 q 558 703 544 703 l 629 703 q 643 689 643 703 l 643 24 q 553 -204 643 -132 q 307 -276 464 -276 q 258 -275 275 -276 q 244 -260 244 -274 l 247 -196 q 251 -185 247 -189 q 261 -183 256 -182 l 299 -185 q 486 -134 428 -185 q 544 26 544 -83 l 544 78 q 542 81 544 81 q 538 79 540 82 q 356 -4 474 -4 q 195 44 265 -4 q 101 182 125 93 q 85 351 85 239 q 88 454 85 413 q 103 529 92 496 q 193 663 128 613 q 350 714 258 714 q 538 632 474 714 q 542 631 540 629 q 544 635 544 632 l 544 689 m 538 213 q 543 264 542 233 q 544 353 544 294 q 543 448 544 424 q 536 493 542 472 q 481 590 525 551 q 371 628 438 628 q 260 590 306 628 q 197 493 215 553 q 183 354 183 449 q 197 214 183 253 q 258 117 211 156 q 371 79 304 79 q 483 117 439 79 q 538 213 526 154 z "},"ğ":{"ha":743,"x_min":85,"x_max":643,"o":"m 544 689 q 558 703 544 703 l 629 703 q 643 689 643 703 l 643 24 q 553 -204 643 -132 q 307 -276 464 -276 q 258 -275 275 -276 q 244 -260 244 -274 l 247 -196 q 251 -185 247 -189 q 261 -183 256 -182 l 299 -185 q 486 -134 428 -185 q 544 26 544 -83 l 544 78 q 542 81 544 81 q 538 79 540 82 q 356 -4 474 -4 q 195 44 265 -4 q 101 182 125 93 q 85 351 85 239 q 88 454 85 413 q 103 529 92 496 q 193 663 128 613 q 350 714 258 714 q 538 632 474 714 q 542 631 540 629 q 544 635 544 632 l 544 689 m 538 213 q 543 264 542 233 q 544 353 544 294 q 543 448 544 424 q 536 493 542 472 q 481 590 525 551 q 371 628 438 628 q 260 590 306 628 q 197 493 215 553 q 183 354 183 449 q 197 214 183 253 q 258 117 211 156 q 371 79 304 79 q 483 117 439 79 q 538 213 526 154 m 382 781 q 266 820 314 781 q 211 921 218 860 q 225 935 211 935 l 267 935 q 282 921 281 935 q 315 862 286 885 q 382 839 343 839 q 451 862 422 839 q 483 921 479 885 q 499 935 485 935 l 540 935 q 554 922 554 935 q 500 821 549 861 q 382 781 451 781 z "},"ǧ":{"ha":743,"x_min":85,"x_max":643,"o":"m 544 689 q 558 703 544 703 l 629 703 q 643 689 643 703 l 643 24 q 553 -204 643 -132 q 307 -276 464 -276 q 258 -275 275 -276 q 244 -260 244 -274 l 247 -196 q 251 -185 247 -189 q 261 -183 256 -182 l 299 -185 q 486 -134 428 -185 q 544 26 544 -83 l 544 78 q 542 81 544 81 q 538 79 540 82 q 356 -4 474 -4 q 195 44 265 -4 q 101 182 125 93 q 85 351 85 239 q 88 454 85 413 q 103 529 92 496 q 193 663 128 613 q 350 714 258 714 q 538 632 474 714 q 542 631 540 629 q 544 635 544 632 l 544 689 m 538 213 q 543 264 542 233 q 544 353 544 294 q 543 448 544 424 q 536 493 542 472 q 481 590 525 551 q 371 628 438 628 q 260 590 306 628 q 197 493 215 553 q 183 354 183 449 q 197 214 183 253 q 258 117 211 156 q 371 79 304 79 q 483 117 439 79 q 538 213 526 154 z "},"ĝ":{"ha":743,"x_min":85,"x_max":643,"o":"m 544 689 q 558 703 544 703 l 629 703 q 643 689 643 703 l 643 24 q 553 -204 643 -132 q 307 -276 464 -276 q 258 -275 275 -276 q 244 -260 244 -274 l 247 -196 q 251 -185 247 -189 q 261 -183 256 -182 l 299 -185 q 486 -134 428 -185 q 544 26 544 -83 l 544 78 q 542 81 544 81 q 538 79 540 82 q 356 -4 474 -4 q 195 44 265 -4 q 101 182 125 93 q 85 351 85 239 q 88 454 85 413 q 103 529 92 496 q 193 663 128 613 q 350 714 258 714 q 538 632 474 714 q 542 631 540 629 q 544 635 544 632 l 544 689 m 538 213 q 543 264 542 233 q 544 353 544 294 q 543 448 544 424 q 536 493 542 472 q 481 590 525 551 q 371 628 438 628 q 260 590 306 628 q 197 493 215 553 q 183 354 183 449 q 197 214 183 253 q 258 117 211 156 q 371 79 304 79 q 483 117 439 79 q 538 213 526 154 m 221 797 q 210 802 213 797 q 213 814 207 807 l 324 964 q 342 972 329 972 l 422 972 q 440 964 435 972 l 553 814 q 556 806 556 811 q 553 800 556 803 q 544 797 550 797 l 489 797 q 471 806 476 797 l 388 919 q 383 922 386 922 q 379 919 381 922 l 294 806 q 276 797 289 797 l 221 797 z "},"ġ":{"ha":743,"x_min":85,"x_max":643,"o":"m 544 689 q 558 703 544 703 l 629 703 q 643 689 643 703 l 643 24 q 553 -204 643 -132 q 307 -276 464 -276 q 258 -275 275 -276 q 244 -260 244 -274 l 247 -196 q 251 -185 247 -189 q 261 -183 256 -182 l 299 -185 q 486 -134 428 -185 q 544 26 544 -83 l 544 78 q 542 81 544 81 q 538 79 540 82 q 356 -4 474 -4 q 195 44 265 -4 q 101 182 125 93 q 85 351 85 239 q 88 454 85 413 q 103 529 92 496 q 193 663 128 613 q 350 714 258 714 q 538 632 474 714 q 542 631 540 629 q 544 635 544 632 l 544 689 m 538 213 q 543 264 542 233 q 544 353 544 294 q 543 448 544 424 q 536 493 542 472 q 481 590 525 551 q 371 628 438 628 q 260 590 306 628 q 197 493 215 553 q 183 354 183 449 q 197 214 183 253 q 258 117 211 156 q 371 79 304 79 q 483 117 439 79 q 538 213 526 154 m 383 831 q 327 853 349 831 q 306 908 306 875 q 327 965 306 943 q 383 986 349 986 q 439 965 417 986 q 461 908 461 943 q 439 853 461 875 q 383 831 417 831 z "},"ǥ":{"ha":776,"x_min":85,"x_max":779,"o":"m 765 389 q 779 375 779 389 l 779 338 q 765 324 779 324 l 649 324 q 643 318 643 324 l 643 24 q 553 -204 643 -132 q 307 -276 464 -276 q 258 -275 275 -276 q 244 -260 244 -274 l 247 -196 q 251 -185 247 -189 q 261 -183 256 -182 l 299 -185 q 486 -134 428 -185 q 544 26 544 -83 l 544 78 q 542 81 544 81 q 538 79 540 82 q 356 -4 474 -4 q 195 44 265 -4 q 101 182 125 93 q 85 351 85 239 q 88 454 85 413 q 103 529 92 496 q 193 663 128 613 q 350 714 258 714 q 538 632 474 714 q 542 631 540 629 q 544 635 544 632 l 544 689 q 558 703 544 703 l 629 703 q 643 689 643 703 l 643 394 q 649 389 643 389 l 765 389 m 371 79 q 483 117 439 79 q 538 213 526 154 q 543 253 542 231 q 544 318 544 276 q 539 324 544 324 l 365 324 q 351 338 351 324 l 351 375 q 365 389 351 389 l 539 389 q 544 394 544 389 q 542 456 544 438 q 536 493 540 474 q 481 590 525 551 q 371 628 438 628 q 260 590 306 628 q 197 493 215 553 q 183 354 183 449 q 197 214 183 253 q 258 117 211 156 q 371 79 304 79 z "},"h":{"ha":749,"x_min":111,"x_max":646,"o":"m 403 713 q 580 647 514 713 q 646 472 646 582 l 646 14 q 632 0 646 0 l 561 0 q 547 14 547 0 l 547 453 q 501 578 547 529 q 381 626 454 626 q 257 579 304 626 q 210 456 210 532 l 210 14 q 196 0 210 0 l 125 0 q 111 14 111 0 l 111 958 q 125 972 111 972 l 196 972 q 210 958 210 972 l 210 629 q 212 625 210 626 q 215 626 214 624 q 403 713 276 713 z "},"ħ":{"ha":749,"x_min":11,"x_max":646,"o":"m 403 713 q 580 647 514 713 q 646 472 646 582 l 646 14 q 632 0 646 0 l 561 0 q 547 14 547 0 l 547 453 q 501 578 547 529 q 381 626 454 626 q 257 579 304 626 q 210 456 210 532 l 210 14 q 196 0 210 0 l 125 0 q 111 14 111 0 l 111 769 q 106 775 111 775 l 25 775 q 11 789 11 775 l 11 826 q 25 840 11 840 l 106 840 q 111 846 111 840 l 111 958 q 125 972 111 972 l 196 972 q 210 958 210 972 l 210 846 q 215 840 210 840 l 438 840 q 451 826 451 840 l 451 789 q 438 775 451 775 l 215 775 q 210 769 210 775 l 210 629 q 212 625 210 626 q 215 626 214 624 q 403 713 276 713 z "},"ȟ":{"ha":749,"x_min":111,"x_max":646,"o":"m 403 713 q 580 647 514 713 q 646 472 646 582 l 646 14 q 632 0 646 0 l 561 0 q 547 14 547 0 l 547 453 q 501 578 547 529 q 381 626 454 626 q 257 579 304 626 q 210 456 210 532 l 210 14 q 196 0 210 0 l 125 0 q 111 14 111 0 l 111 958 q 125 972 111 972 l 196 972 q 210 958 210 972 l 210 629 q 212 625 210 626 q 215 626 214 624 q 403 713 276 713 z "},"ĥ":{"ha":749,"x_min":111,"x_max":646,"o":"m 403 713 q 580 647 514 713 q 646 472 646 582 l 646 14 q 632 0 646 0 l 561 0 q 547 14 547 0 l 547 453 q 501 578 547 529 q 381 626 454 626 q 257 579 304 626 q 210 456 210 532 l 210 14 q 196 0 210 0 l 125 0 q 111 14 111 0 l 111 958 q 125 972 111 972 l 196 972 q 210 958 210 972 l 210 629 q 212 625 210 626 q 215 626 214 624 q 403 713 276 713 m 221 1043 q 210 1048 213 1043 q 213 1060 207 1053 l 324 1210 q 342 1218 329 1218 l 422 1218 q 440 1210 435 1218 l 553 1060 q 556 1051 556 1057 q 553 1046 556 1049 q 544 1043 550 1043 l 489 1043 q 471 1051 476 1043 l 388 1165 q 383 1168 386 1168 q 379 1165 381 1168 l 294 1051 q 276 1043 289 1043 l 221 1043 z "},"i":{"ha":354,"x_min":100,"x_max":256,"o":"m 178 831 q 122 853 144 831 q 100 908 100 875 q 122 965 100 943 q 178 986 144 986 q 233 965 211 986 q 256 908 256 943 q 233 853 256 875 q 178 831 211 831 m 139 1 q 125 15 125 1 l 125 690 q 139 704 125 704 l 210 704 q 224 690 224 704 l 224 15 q 210 1 224 1 l 139 1 z "},"ı":{"ha":294,"x_min":97,"x_max":196,"o":"m 111 0 q 97 14 97 0 l 97 689 q 111 703 97 703 l 182 703 q 196 689 196 703 l 196 14 q 182 0 196 0 l 111 0 z "},"í":{"ha":294,"x_min":88,"x_max":267,"o":"m 111 0 q 97 14 97 0 l 97 689 q 111 703 97 703 l 182 703 q 196 689 196 703 l 196 14 q 182 0 196 0 l 111 0 m 101 794 q 90 799 93 794 q 92 811 88 804 l 175 963 q 192 972 179 972 l 254 972 q 265 967 263 972 q 263 956 267 963 l 168 804 q 151 794 161 794 l 101 794 z "},"ĭ":{"ha":294,"x_min":-24,"x_max":318,"o":"m 111 0 q 97 14 97 0 l 97 689 q 111 703 97 703 l 182 703 q 196 689 196 703 l 196 14 q 182 0 196 0 l 111 0 m 146 807 q 31 847 78 807 q -24 944 -17 886 l -24 947 q -11 958 -24 958 l 26 958 q 42 944 40 958 q 76 886 47 910 q 146 863 106 863 q 217 885 188 863 q 251 944 247 908 q 267 958 253 958 l 304 958 q 318 946 318 958 q 264 847 313 886 q 146 807 215 807 z "},"î":{"ha":294,"x_min":-29,"x_max":319,"o":"m 111 0 q 97 14 97 0 l 97 689 q 111 703 97 703 l 182 703 q 196 689 196 703 l 196 14 q 182 0 196 0 l 111 0 m -15 797 q -26 802 -24 797 q -24 814 -29 807 l 88 964 q 106 972 93 972 l 186 972 q 204 964 199 972 l 317 814 q 319 806 319 811 q 317 800 319 803 q 308 797 314 797 l 253 797 q 235 806 240 797 l 151 919 q 147 922 150 922 q 143 919 144 922 l 58 806 q 40 797 53 797 l -15 797 z "},"ï":{"ha":294,"x_min":-49,"x_max":344,"o":"m 111 0 q 97 14 97 0 l 97 689 q 111 703 97 703 l 182 703 q 196 689 196 703 l 196 14 q 182 0 196 0 l 111 0 z "},"ị":{"ha":354,"x_min":100,"x_max":256,"o":"m 178 831 q 122 853 144 831 q 100 908 100 875 q 122 965 100 943 q 178 986 144 986 q 233 965 211 986 q 256 908 256 943 q 233 853 256 875 q 178 831 211 831 m 139 1 q 125 15 125 1 l 125 690 q 139 704 125 704 l 210 704 q 224 690 224 704 l 224 15 q 210 1 224 1 l 139 1 m 178 -256 q 125 -235 146 -256 q 104 -182 104 -214 q 125 -129 104 -150 q 178 -108 146 -108 q 231 -129 210 -108 q 251 -182 251 -150 q 230 -235 251 -214 q 178 -256 208 -256 z "},"ì":{"ha":294,"x_min":11,"x_max":196,"o":"m 111 0 q 97 14 97 0 l 97 689 q 111 703 97 703 l 182 703 q 196 689 196 703 l 196 14 q 182 0 196 0 l 111 0 m 185 811 q 188 803 188 806 q 175 794 188 794 l 125 794 q 108 804 115 794 l 14 956 q 11 964 11 961 q 22 972 11 972 l 85 972 q 101 963 97 972 l 185 811 z "},"ỉ":{"ha":294,"x_min":24,"x_max":271,"o":"m 111 0 q 97 14 97 0 l 97 689 q 111 703 97 703 l 182 703 q 196 689 196 703 l 196 14 q 182 0 196 0 l 111 0 m 138 769 q 128 776 131 771 q 128 786 125 781 q 150 824 138 807 q 175 853 163 840 q 201 883 193 869 q 210 918 210 897 q 192 953 210 938 q 151 968 175 968 q 112 957 128 968 q 76 918 96 946 q 57 915 68 907 l 35 929 q 31 949 24 938 q 83 1006 57 989 q 154 1024 110 1024 q 238 994 206 1024 q 271 918 271 965 q 258 867 271 888 q 219 819 246 847 q 181 772 190 793 q 163 764 175 763 l 138 769 z "},"ĳ":{"ha":683,"x_min":100,"x_max":583,"o":"m 178 831 q 122 853 144 831 q 100 908 100 875 q 122 965 100 943 q 178 986 144 986 q 233 965 211 986 q 256 908 256 943 q 233 853 256 875 q 178 831 211 831 m 139 1 q 125 15 125 1 l 125 690 q 139 704 125 704 l 210 704 q 224 690 224 704 l 224 15 q 210 1 224 1 l 139 1 m 506 831 q 449 853 471 831 q 428 908 428 875 q 449 965 428 943 q 506 986 471 986 q 561 965 539 986 q 583 908 583 943 q 561 853 583 875 q 506 831 539 831 m 307 -289 q 293 -275 293 -289 l 293 -218 q 307 -204 293 -204 q 456 -61 456 -203 l 456 689 q 469 703 456 703 l 540 703 q 554 689 554 703 l 554 -61 q 496 -233 554 -179 q 307 -289 438 -287 z "},"ī":{"ha":294,"x_min":-39,"x_max":335,"o":"m 111 0 q 97 14 97 0 l 97 689 q 111 703 97 703 l 182 703 q 196 689 196 703 l 196 14 q 182 0 196 0 l 111 0 m -25 825 q -39 839 -39 825 l -39 882 q -25 896 -39 896 l 321 896 q 335 882 335 896 l 335 839 q 321 825 335 825 l -25 825 z "},"į":{"ha":394,"x_min":100,"x_max":293,"o":"m 178 0 q 164 14 164 0 l 164 689 q 178 703 164 703 l 249 703 q 263 689 263 703 l 263 14 q 249 0 263 0 l 178 0 m 215 831 q 159 853 181 831 q 138 908 138 875 q 159 965 138 943 q 215 986 181 986 q 271 965 249 986 q 293 908 293 943 q 271 853 293 875 q 215 831 249 831 m 292 -239 q 282 -251 292 -247 q 225 -258 254 -258 q 148 -239 181 -258 q 104 -175 115 -219 q 100 -143 100 -161 q 182 -6 100 -71 q 200 0 189 0 l 238 0 q 249 -7 249 0 q 242 -17 249 -10 q 172 -131 172 -76 q 174 -147 172 -142 q 197 -185 179 -172 q 239 -197 214 -197 q 271 -193 254 -197 l 275 -192 q 288 -204 285 -192 l 292 -235 l 292 -239 z "},"ĩ":{"ha":294,"x_min":-51,"x_max":363,"o":"m 111 0 q 97 14 97 0 l 97 689 q 111 703 97 703 l 182 703 q 196 689 196 703 l 196 14 q 182 0 196 0 l 111 0 m 235 838 q 189 846 208 838 q 149 868 169 854 q 110 889 124 883 q 79 894 96 894 q 37 887 54 894 q 3 860 19 879 q -17 857 -6 847 l -42 882 q -44 901 -51 892 q 75 969 1 969 q 115 963 97 969 q 147 948 132 956 q 165 938 161 940 q 185 926 171 935 q 212 914 200 918 q 235 910 224 910 q 308 949 281 910 q 328 951 317 963 l 353 928 q 354 907 363 918 q 302 856 335 874 q 235 838 269 838 z "},"j":{"ha":340,"x_min":-49,"x_max":242,"o":"m 164 831 q 108 853 129 831 q 86 908 86 875 q 108 965 86 943 q 164 986 129 986 q 219 965 197 986 q 242 908 242 943 q 219 853 242 875 q 164 831 197 831 m -35 -289 q -49 -275 -49 -289 l -49 -218 q -35 -204 -49 -204 q 114 -61 114 -203 l 114 689 q 128 703 114 703 l 199 703 q 213 689 213 703 l 213 -61 q 154 -233 213 -179 q -35 -289 96 -287 z "},"ȷ":{"ha":335,"x_min":-49,"x_max":213,"o":"m -35 -289 q -49 -275 -49 -289 l -49 -218 q -35 -204 -49 -204 q 114 -61 114 -203 l 114 689 q 128 703 114 703 l 199 703 q 213 689 213 703 l 213 -61 q 154 -233 213 -179 q -35 -289 96 -287 z "},"ĵ":{"ha":335,"x_min":-49,"x_max":336,"o":"m -35 -289 q -49 -275 -49 -289 l -49 -218 q -35 -204 -49 -204 q 114 -61 114 -203 l 114 689 q 128 703 114 703 l 199 703 q 213 689 213 703 l 213 -61 q 154 -233 213 -179 q -35 -289 96 -287 m 1 797 q -10 802 -7 797 q -7 814 -12 807 l 104 964 q 122 972 110 972 l 203 972 q 221 964 215 972 l 333 814 q 336 806 336 811 q 333 800 336 803 q 325 797 331 797 l 269 797 q 251 806 257 797 l 168 919 q 164 922 167 922 q 160 919 161 922 l 75 806 q 57 797 69 797 l 1 797 z "},"k":{"ha":696,"x_min":111,"x_max":654,"o":"m 125 0 q 111 14 111 0 l 111 958 q 125 972 111 972 l 196 972 q 210 958 210 972 l 210 390 q 212 386 210 388 q 217 388 214 385 l 511 696 q 528 703 518 703 l 611 703 q 622 697 619 703 q 619 686 625 692 l 442 489 q 440 482 439 486 l 653 17 l 654 11 q 642 0 654 0 l 567 0 q 551 11 556 0 l 372 417 q 365 418 369 422 l 213 257 q 210 250 210 254 l 210 14 q 196 0 210 0 l 125 0 z "},"ǩ":{"ha":696,"x_min":111,"x_max":654,"o":"m 125 0 q 111 14 111 0 l 111 958 q 125 972 111 972 l 196 972 q 210 958 210 972 l 210 390 q 212 386 210 388 q 217 388 214 385 l 511 696 q 528 703 518 703 l 611 703 q 622 697 619 703 q 619 686 625 692 l 442 489 q 440 482 439 486 l 653 17 l 654 11 q 642 0 654 0 l 567 0 q 551 11 556 0 l 372 417 q 365 418 369 422 l 213 257 q 210 250 210 254 l 210 14 q 196 0 210 0 l 125 0 z "},"l":{"ha":319,"x_min":111,"x_max":210,"o":"m 125 0 q 111 14 111 0 l 111 958 q 125 972 111 972 l 196 972 q 210 958 210 972 l 210 14 q 196 0 210 0 l 125 0 z "},"ĺ":{"ha":319,"x_min":101,"x_max":281,"o":"m 125 0 q 111 14 111 0 l 111 958 q 125 972 111 972 l 196 972 q 210 958 210 972 l 210 14 q 196 0 210 0 l 125 0 m 115 1064 q 104 1069 107 1064 q 106 1081 101 1074 l 189 1232 q 206 1242 193 1242 l 268 1242 q 278 1237 276 1242 q 276 1225 281 1232 l 182 1074 q 165 1064 175 1064 l 115 1064 z "},"ľ":{"ha":501,"x_min":111,"x_max":451,"o":"m 125 0 q 111 14 111 0 l 111 958 q 125 972 111 972 l 196 972 q 210 958 210 972 l 210 14 q 196 0 210 0 l 125 0 z "},"ļ":{"ha":319,"x_min":18,"x_max":210,"o":"m 125 0 q 111 14 111 0 l 111 958 q 125 972 111 972 l 196 972 q 210 958 210 972 l 210 14 q 196 0 210 0 l 125 0 z "},"ŀ":{"ha":376,"x_min":113,"x_max":268,"o":"m 153 0 q 139 14 139 0 l 139 958 q 153 972 139 972 l 224 972 q 238 958 238 972 l 238 14 q 224 0 238 0 l 153 0 z "},"ł":{"ha":475,"x_min":35,"x_max":440,"o":"m 440 571 q 432 558 440 565 l 283 469 q 279 463 279 468 l 279 14 q 265 0 279 0 l 194 0 q 181 14 181 0 l 181 400 q 178 404 181 403 q 174 404 176 406 l 79 347 l 72 344 q 60 353 65 344 l 38 394 q 35 403 35 400 q 42 414 35 411 l 176 494 q 181 501 181 497 l 181 958 q 194 972 181 972 l 265 972 q 279 958 279 972 l 279 564 q 281 560 279 561 q 286 560 283 558 l 393 625 q 401 628 399 628 q 413 619 408 628 l 438 578 l 440 571 z "},"m":{"ha":1149,"x_min":111,"x_max":1047,"o":"m 822 713 q 987 650 926 713 q 1047 479 1047 588 l 1047 14 q 1033 0 1047 0 l 964 0 q 950 14 950 0 l 950 460 q 906 581 950 536 q 792 626 863 626 q 673 582 718 626 q 628 463 628 538 l 628 14 q 614 0 628 0 l 543 0 q 529 14 529 0 l 529 460 q 486 581 529 536 q 371 626 443 626 q 253 582 297 626 q 210 463 210 538 l 210 14 q 196 0 210 0 l 125 0 q 111 14 111 0 l 111 689 q 125 703 111 703 l 196 703 q 210 689 210 703 l 210 633 q 212 630 210 631 q 217 632 214 629 q 295 692 247 672 q 401 713 343 713 q 525 683 474 713 q 603 599 576 654 q 610 599 606 592 q 696 684 640 656 q 822 713 751 713 z "},"n":{"ha":749,"x_min":111,"x_max":646,"o":"m 403 713 q 580 647 514 713 q 646 472 646 582 l 646 14 q 632 0 646 0 l 561 0 q 547 14 547 0 l 547 453 q 501 578 547 529 q 381 626 454 626 q 257 579 304 626 q 210 456 210 532 l 210 14 q 196 0 210 0 l 125 0 q 111 14 111 0 l 111 689 q 125 703 111 703 l 196 703 q 210 689 210 703 l 210 629 q 212 625 210 626 q 215 626 214 624 q 403 713 276 713 z "},"ń":{"ha":749,"x_min":111,"x_max":646,"o":"m 403 713 q 580 647 514 713 q 646 472 646 582 l 646 14 q 632 0 646 0 l 561 0 q 547 14 547 0 l 547 453 q 501 578 547 529 q 381 626 454 626 q 257 579 304 626 q 210 456 210 532 l 210 14 q 196 0 210 0 l 125 0 q 111 14 111 0 l 111 689 q 125 703 111 703 l 196 703 q 210 689 210 703 l 210 629 q 212 625 210 626 q 215 626 214 624 q 403 713 276 713 m 331 794 q 319 799 322 794 q 321 811 317 804 l 404 963 q 421 972 408 972 l 483 972 q 494 967 492 972 q 492 956 496 963 l 397 804 q 381 794 390 794 l 331 794 z "},"ň":{"ha":749,"x_min":111,"x_max":646,"o":"m 403 713 q 580 647 514 713 q 646 472 646 582 l 646 14 q 632 0 646 0 l 561 0 q 547 14 547 0 l 547 453 q 501 578 547 529 q 381 626 454 626 q 257 579 304 626 q 210 456 210 532 l 210 14 q 196 0 210 0 l 125 0 q 111 14 111 0 l 111 689 q 125 703 111 703 l 196 703 q 210 689 210 703 l 210 629 q 212 625 210 626 q 215 626 214 624 q 403 713 276 713 m 210 956 q 207 964 207 958 q 210 969 207 967 q 218 972 213 972 l 274 972 q 292 964 286 972 l 376 850 q 381 849 378 849 q 385 850 383 849 l 468 964 q 486 972 474 972 l 542 972 q 553 967 550 972 q 550 956 556 963 l 438 806 q 419 797 432 797 l 339 797 q 321 806 326 797 l 210 956 z "},"ŋ":{"ha":750,"x_min":111,"x_max":649,"o":"m 647 286 l 649 286 l 649 -11 q 599 -181 649 -125 q 432 -240 550 -237 q 418 -226 418 -240 l 418 -172 q 432 -158 418 -158 q 550 -14 550 -150 l 550 -4 l 549 3 q 547 14 547 6 l 547 453 q 501 578 547 529 q 381 626 454 626 q 257 579 304 626 q 210 456 210 532 l 210 14 q 196 0 210 0 l 125 0 q 111 14 111 0 l 111 689 q 125 703 111 703 l 196 703 q 210 689 210 703 l 210 629 q 213 625 210 626 q 217 626 215 624 q 403 713 276 713 q 580 647 514 713 q 646 472 646 582 l 646 292 l 647 286 z "},"ñ":{"ha":749,"x_min":111,"x_max":646,"o":"m 403 713 q 580 647 514 713 q 646 472 646 582 l 646 14 q 632 0 646 0 l 561 0 q 547 14 547 0 l 547 453 q 501 578 547 529 q 381 626 454 626 q 257 579 304 626 q 210 456 210 532 l 210 14 q 196 0 210 0 l 125 0 q 111 14 111 0 l 111 689 q 125 703 111 703 l 196 703 q 210 689 210 703 l 210 629 q 212 625 210 626 q 215 626 214 624 q 403 713 276 713 m 464 838 q 418 846 438 838 q 378 868 399 854 q 339 889 353 883 q 308 894 325 894 q 266 887 283 894 q 232 860 249 879 q 213 857 224 847 l 188 882 q 185 901 178 892 q 304 969 231 969 q 344 963 326 969 q 376 948 361 956 q 394 938 390 940 q 415 926 400 935 q 441 914 429 918 q 464 910 453 910 q 538 949 510 910 q 557 951 546 963 l 582 928 q 583 907 592 918 q 531 856 564 874 q 464 838 499 838 z "},"o":{"ha":757,"x_min":88,"x_max":668,"o":"m 379 -11 q 207 40 279 -11 q 107 182 135 92 q 88 353 88 246 q 107 522 88 460 q 206 663 133 611 q 381 714 278 714 q 551 663 479 714 q 649 524 622 611 q 668 353 668 464 q 649 182 668 240 q 551 40 622 92 q 379 -11 479 -11 m 379 75 q 493 112 446 75 q 557 211 540 149 q 569 351 569 261 q 558 492 569 443 q 494 591 542 554 q 378 628 446 628 q 263 591 310 628 q 199 492 215 554 q 188 351 188 443 q 199 211 188 260 q 262 112 214 149 q 379 75 310 75 z "},"ó":{"ha":744,"x_min":88,"x_max":668,"o":"m 379 -11 q 207 40 279 -11 q 107 182 135 92 q 88 353 88 246 q 107 522 88 460 q 206 663 133 611 q 381 714 278 714 q 551 663 479 714 q 649 524 622 611 q 668 353 668 464 q 649 182 668 240 q 551 40 622 92 q 379 -11 479 -11 m 379 75 q 493 112 446 75 q 557 211 540 149 q 569 351 569 261 q 558 492 569 443 q 494 591 542 554 q 378 628 446 628 q 263 591 310 628 q 199 492 215 554 q 188 351 188 443 q 199 211 188 260 q 262 112 214 149 q 379 75 310 75 m 326 794 q 315 799 318 794 q 317 811 313 804 l 400 963 q 417 972 404 972 l 479 972 q 490 967 488 972 q 488 956 492 963 l 393 804 q 376 794 386 794 l 326 794 z "},"ŏ":{"ha":744,"x_min":88,"x_max":668,"o":"m 379 -11 q 207 40 279 -11 q 107 182 135 92 q 88 353 88 246 q 107 522 88 460 q 206 663 133 611 q 381 714 278 714 q 551 663 479 714 q 649 524 622 611 q 668 353 668 464 q 649 182 668 240 q 551 40 622 92 q 379 -11 479 -11 m 379 75 q 493 112 446 75 q 557 211 540 149 q 569 351 569 261 q 558 492 569 443 q 494 591 542 554 q 378 628 446 628 q 263 591 310 628 q 199 492 215 554 q 188 351 188 443 q 199 211 188 260 q 262 112 214 149 q 379 75 310 75 m 371 807 q 256 847 303 807 q 201 944 208 886 l 201 947 q 214 958 201 958 l 251 958 q 267 944 265 958 q 301 886 272 910 q 371 863 331 863 q 442 885 413 863 q 476 944 472 908 q 492 958 478 958 l 529 958 q 543 946 543 958 q 489 847 538 886 q 371 807 440 807 z "},"ô":{"ha":744,"x_min":88,"x_max":668,"o":"m 379 -11 q 207 40 279 -11 q 107 182 135 92 q 88 353 88 246 q 107 522 88 460 q 206 663 133 611 q 381 714 278 714 q 551 663 479 714 q 649 524 622 611 q 668 353 668 464 q 649 182 668 240 q 551 40 622 92 q 379 -11 479 -11 m 379 75 q 493 112 446 75 q 557 211 540 149 q 569 351 569 261 q 558 492 569 443 q 494 591 542 554 q 378 628 446 628 q 263 591 310 628 q 199 492 215 554 q 188 351 188 443 q 199 211 188 260 q 262 112 214 149 q 379 75 310 75 m 210 797 q 199 802 201 797 q 201 814 196 807 l 313 964 q 331 972 318 972 l 411 972 q 429 964 424 972 l 542 814 q 544 806 544 811 q 542 800 544 803 q 533 797 539 797 l 478 797 q 460 806 465 797 l 376 919 q 372 922 375 922 q 368 919 369 922 l 283 806 q 265 797 278 797 l 210 797 z "},"ố":{"ha":744,"x_min":88,"x_max":721,"o":"m 379 -11 q 207 40 279 -11 q 107 182 135 92 q 88 353 88 246 q 107 522 88 460 q 206 663 133 611 q 381 714 278 714 q 551 663 479 714 q 649 524 622 611 q 668 353 668 464 q 649 182 668 240 q 551 40 622 92 q 379 -11 479 -11 m 379 75 q 493 112 446 75 q 557 211 540 149 q 569 351 569 261 q 558 492 569 443 q 494 591 542 554 q 378 628 446 628 q 263 591 310 628 q 199 492 215 554 q 188 351 188 443 q 199 211 188 260 q 262 112 214 149 q 379 75 310 75 z "},"ộ":{"ha":744,"x_min":88,"x_max":668,"o":"m 379 -11 q 207 40 279 -11 q 107 182 135 92 q 88 353 88 246 q 107 522 88 460 q 206 663 133 611 q 381 714 278 714 q 551 663 479 714 q 649 524 622 611 q 668 353 668 464 q 649 182 668 240 q 551 40 622 92 q 379 -11 479 -11 m 379 75 q 493 112 446 75 q 557 211 540 149 q 569 351 569 261 q 558 492 569 443 q 494 591 542 554 q 378 628 446 628 q 263 591 310 628 q 199 492 215 554 q 188 351 188 443 q 199 211 188 260 q 262 112 214 149 q 379 75 310 75 m 374 -256 q 321 -235 342 -256 q 300 -182 300 -214 q 321 -129 300 -150 q 374 -108 342 -108 q 426 -129 406 -108 q 447 -182 447 -150 q 426 -235 447 -214 q 374 -256 404 -256 m 210 797 q 199 802 201 797 q 201 814 196 807 l 313 964 q 331 972 318 972 l 411 972 q 429 964 424 972 l 542 814 q 544 806 544 811 q 542 800 544 803 q 533 797 539 797 l 478 797 q 460 806 465 797 l 376 919 q 372 922 375 922 q 368 919 369 922 l 283 806 q 265 797 278 797 l 210 797 z "},"ồ":{"ha":744,"x_min":88,"x_max":668,"o":"m 379 -11 q 207 40 279 -11 q 107 182 135 92 q 88 353 88 246 q 107 522 88 460 q 206 663 133 611 q 381 714 278 714 q 551 663 479 714 q 649 524 622 611 q 668 353 668 464 q 649 182 668 240 q 551 40 622 92 q 379 -11 479 -11 m 379 75 q 493 112 446 75 q 557 211 540 149 q 569 351 569 261 q 558 492 569 443 q 494 591 542 554 q 378 628 446 628 q 263 591 310 628 q 199 492 215 554 q 188 351 188 443 q 199 211 188 260 q 262 112 214 149 q 379 75 310 75 z "},"ổ":{"ha":744,"x_min":88,"x_max":668,"o":"m 379 -11 q 207 40 279 -11 q 107 182 135 92 q 88 353 88 246 q 107 522 88 460 q 206 663 133 611 q 381 714 278 714 q 551 663 479 714 q 649 524 622 611 q 668 353 668 464 q 649 182 668 240 q 551 40 622 92 q 379 -11 479 -11 m 379 75 q 493 112 446 75 q 557 211 540 149 q 569 351 569 261 q 558 492 569 443 q 494 591 542 554 q 378 628 446 628 q 263 591 310 628 q 199 492 215 554 q 188 351 188 443 q 199 211 188 260 q 262 112 214 149 q 379 75 310 75 z "},"ỗ":{"ha":744,"x_min":88,"x_max":668,"o":"m 379 -11 q 207 40 279 -11 q 107 182 135 92 q 88 353 88 246 q 107 522 88 460 q 206 663 133 611 q 381 714 278 714 q 551 663 479 714 q 649 524 622 611 q 668 353 668 464 q 649 182 668 240 q 551 40 622 92 q 379 -11 479 -11 m 379 75 q 493 112 446 75 q 557 211 540 149 q 569 351 569 261 q 558 492 569 443 q 494 591 542 554 q 378 628 446 628 q 263 591 310 628 q 199 492 215 554 q 188 351 188 443 q 199 211 188 260 q 262 112 214 149 q 379 75 310 75 z "},"ö":{"ha":744,"x_min":88,"x_max":668,"o":"m 379 -11 q 207 40 279 -11 q 107 182 135 92 q 88 353 88 246 q 107 522 88 460 q 206 663 133 611 q 381 714 278 714 q 551 663 479 714 q 649 524 622 611 q 668 353 668 464 q 649 182 668 240 q 551 40 622 92 q 379 -11 479 -11 m 379 75 q 493 112 446 75 q 557 211 540 149 q 569 351 569 261 q 558 492 569 443 q 494 591 542 554 q 378 628 446 628 q 263 591 310 628 q 199 492 215 554 q 188 351 188 443 q 199 211 188 260 q 262 112 214 149 q 379 75 310 75 z "},"ọ":{"ha":744,"x_min":88,"x_max":668,"o":"m 379 -11 q 207 40 279 -11 q 107 182 135 92 q 88 353 88 246 q 107 522 88 460 q 206 663 133 611 q 381 714 278 714 q 551 663 479 714 q 649 524 622 611 q 668 353 668 464 q 649 182 668 240 q 551 40 622 92 q 379 -11 479 -11 m 379 75 q 493 112 446 75 q 557 211 540 149 q 569 351 569 261 q 558 492 569 443 q 494 591 542 554 q 378 628 446 628 q 263 591 310 628 q 199 492 215 554 q 188 351 188 443 q 199 211 188 260 q 262 112 214 149 q 379 75 310 75 m 374 -256 q 321 -235 342 -256 q 300 -182 300 -214 q 321 -129 300 -150 q 374 -108 342 -108 q 426 -129 406 -108 q 447 -182 447 -150 q 426 -235 447 -214 q 374 -256 404 -256 z "},"ò":{"ha":744,"x_min":88,"x_max":668,"o":"m 379 -11 q 207 40 279 -11 q 107 182 135 92 q 88 353 88 246 q 107 522 88 460 q 206 663 133 611 q 381 714 278 714 q 551 663 479 714 q 649 524 622 611 q 668 353 668 464 q 649 182 668 240 q 551 40 622 92 q 379 -11 479 -11 m 379 75 q 493 112 446 75 q 557 211 540 149 q 569 351 569 261 q 558 492 569 443 q 494 591 542 554 q 378 628 446 628 q 263 591 310 628 q 199 492 215 554 q 188 351 188 443 q 199 211 188 260 q 262 112 214 149 q 379 75 310 75 m 410 811 q 413 803 413 806 q 400 794 413 794 l 350 794 q 333 804 340 794 l 239 956 q 236 964 236 961 q 247 972 236 972 l 310 972 q 326 963 322 972 l 410 811 z "},"ỏ":{"ha":744,"x_min":88,"x_max":668,"o":"m 379 -11 q 207 40 279 -11 q 107 182 135 92 q 88 353 88 246 q 107 522 88 460 q 206 663 133 611 q 381 714 278 714 q 551 663 479 714 q 649 524 622 611 q 668 353 668 464 q 649 182 668 240 q 551 40 622 92 q 379 -11 479 -11 m 379 75 q 493 112 446 75 q 557 211 540 149 q 569 351 569 261 q 558 492 569 443 q 494 591 542 554 q 378 628 446 628 q 263 591 310 628 q 199 492 215 554 q 188 351 188 443 q 199 211 188 260 q 262 112 214 149 q 379 75 310 75 m 361 769 q 351 776 354 771 q 351 786 349 781 q 374 824 361 807 q 399 853 386 840 q 425 883 417 869 q 433 918 433 897 q 416 953 433 938 q 375 968 399 968 q 335 957 351 968 q 300 918 319 946 q 281 915 292 907 l 258 929 q 254 949 247 938 q 307 1006 281 989 q 378 1024 333 1024 q 462 994 429 1024 q 494 918 494 965 q 482 867 494 888 q 443 819 469 847 q 404 772 414 793 q 386 764 399 763 l 361 769 z "},"ơ":{"ha":744,"x_min":88,"x_max":668,"o":"m 649 524 q 668 353 668 464 q 649 182 668 240 q 551 40 622 92 q 379 -11 479 -11 q 207 40 279 -11 q 107 182 135 92 q 88 353 88 246 q 107 522 88 460 q 206 663 133 611 q 381 714 278 714 q 461 704 415 714 q 468 703 463 703 q 533 733 506 708 q 564 801 560 758 q 578 815 564 815 l 617 815 q 631 801 631 815 q 606 724 626 757 q 551 671 585 690 q 550 663 546 667 q 649 524 621 613 m 557 211 q 569 351 569 261 q 558 492 569 443 q 494 591 542 554 q 378 628 446 628 q 263 591 310 628 q 199 492 215 554 q 188 351 188 443 q 199 211 188 260 q 262 112 214 149 q 379 75 310 75 q 493 112 446 75 q 557 211 540 149 z "},"ớ":{"ha":744,"x_min":88,"x_max":668,"o":"m 649 524 q 668 353 668 464 q 649 182 668 240 q 551 40 622 92 q 379 -11 479 -11 q 207 40 279 -11 q 107 182 135 92 q 88 353 88 246 q 107 522 88 460 q 206 663 133 611 q 381 714 278 714 q 461 704 415 714 q 468 703 463 703 q 533 733 506 708 q 564 801 560 758 q 578 815 564 815 l 617 815 q 631 801 631 815 q 606 724 626 757 q 551 671 585 690 q 550 663 546 667 q 649 524 621 613 m 557 211 q 569 351 569 261 q 558 492 569 443 q 494 591 542 554 q 378 628 446 628 q 263 591 310 628 q 199 492 215 554 q 188 351 188 443 q 199 211 188 260 q 262 112 214 149 q 379 75 310 75 q 493 112 446 75 q 557 211 540 149 m 326 794 q 315 799 318 794 q 317 811 313 804 l 400 963 q 417 972 404 972 l 479 972 q 490 967 488 972 q 488 956 492 963 l 393 804 q 376 794 386 794 l 326 794 z "},"ợ":{"ha":744,"x_min":88,"x_max":668,"o":"m 649 524 q 668 353 668 464 q 649 182 668 240 q 551 40 622 92 q 379 -11 479 -11 q 207 40 279 -11 q 107 182 135 92 q 88 353 88 246 q 107 522 88 460 q 206 663 133 611 q 381 714 278 714 q 461 704 415 714 q 468 703 463 703 q 533 733 506 708 q 564 801 560 758 q 578 815 564 815 l 617 815 q 631 801 631 815 q 606 724 626 757 q 551 671 585 690 q 550 663 546 667 q 649 524 621 613 m 557 211 q 569 351 569 261 q 558 492 569 443 q 494 591 542 554 q 378 628 446 628 q 263 591 310 628 q 199 492 215 554 q 188 351 188 443 q 199 211 188 260 q 262 112 214 149 q 379 75 310 75 q 493 112 446 75 q 557 211 540 149 m 374 -256 q 321 -235 342 -256 q 300 -182 300 -214 q 321 -129 300 -150 q 374 -108 342 -108 q 426 -129 406 -108 q 447 -182 447 -150 q 426 -235 447 -214 q 374 -256 404 -256 z "},"ờ":{"ha":744,"x_min":88,"x_max":668,"o":"m 649 524 q 668 353 668 464 q 649 182 668 240 q 551 40 622 92 q 379 -11 479 -11 q 207 40 279 -11 q 107 182 135 92 q 88 353 88 246 q 107 522 88 460 q 206 663 133 611 q 381 714 278 714 q 461 704 415 714 q 468 703 463 703 q 533 733 506 708 q 564 801 560 758 q 578 815 564 815 l 617 815 q 631 801 631 815 q 606 724 626 757 q 551 671 585 690 q 550 663 546 667 q 649 524 621 613 m 557 211 q 569 351 569 261 q 558 492 569 443 q 494 591 542 554 q 378 628 446 628 q 263 591 310 628 q 199 492 215 554 q 188 351 188 443 q 199 211 188 260 q 262 112 214 149 q 379 75 310 75 q 493 112 446 75 q 557 211 540 149 m 410 811 q 413 803 413 806 q 400 794 413 794 l 350 794 q 333 804 340 794 l 239 956 q 236 964 236 961 q 247 972 236 972 l 310 972 q 326 963 322 972 l 410 811 z "},"ở":{"ha":744,"x_min":88,"x_max":668,"o":"m 649 524 q 668 353 668 464 q 649 182 668 240 q 551 40 622 92 q 379 -11 479 -11 q 207 40 279 -11 q 107 182 135 92 q 88 353 88 246 q 107 522 88 460 q 206 663 133 611 q 381 714 278 714 q 461 704 415 714 q 468 703 463 703 q 533 733 506 708 q 564 801 560 758 q 578 815 564 815 l 617 815 q 631 801 631 815 q 606 724 626 757 q 551 671 585 690 q 550 663 546 667 q 649 524 621 613 m 557 211 q 569 351 569 261 q 558 492 569 443 q 494 591 542 554 q 378 628 446 628 q 263 591 310 628 q 199 492 215 554 q 188 351 188 443 q 199 211 188 260 q 262 112 214 149 q 379 75 310 75 q 493 112 446 75 q 557 211 540 149 m 361 769 q 351 776 354 771 q 351 786 349 781 q 374 824 361 807 q 399 853 386 840 q 425 883 417 869 q 433 918 433 897 q 416 953 433 938 q 375 968 399 968 q 335 957 351 968 q 300 918 319 946 q 281 915 292 907 l 258 929 q 254 949 247 938 q 307 1006 281 989 q 378 1024 333 1024 q 462 994 429 1024 q 494 918 494 965 q 482 867 494 888 q 443 819 469 847 q 404 772 414 793 q 386 764 399 763 l 361 769 z "},"ỡ":{"ha":744,"x_min":88,"x_max":668,"o":"m 649 524 q 668 353 668 464 q 649 182 668 240 q 551 40 622 92 q 379 -11 479 -11 q 207 40 279 -11 q 107 182 135 92 q 88 353 88 246 q 107 522 88 460 q 206 663 133 611 q 381 714 278 714 q 461 704 415 714 q 468 703 463 703 q 533 733 506 708 q 564 801 560 758 q 578 815 564 815 l 617 815 q 631 801 631 815 q 606 724 626 757 q 551 671 585 690 q 550 663 546 667 q 649 524 621 613 m 557 211 q 569 351 569 261 q 558 492 569 443 q 494 591 542 554 q 378 628 446 628 q 263 591 310 628 q 199 492 215 554 q 188 351 188 443 q 199 211 188 260 q 262 112 214 149 q 379 75 310 75 q 493 112 446 75 q 557 211 540 149 m 442 843 q 396 851 415 843 q 356 874 376 860 q 317 894 331 889 q 286 900 303 900 q 244 892 261 900 q 210 865 226 885 q 190 863 201 853 l 165 888 q 163 907 156 897 q 282 975 208 975 q 322 968 304 975 q 353 953 339 961 q 372 943 368 946 q 392 932 378 940 q 419 919 407 924 q 442 915 431 915 q 515 954 488 915 q 535 957 524 968 l 560 933 q 561 913 569 924 q 509 861 542 879 q 442 843 476 843 z "},"ő":{"ha":744,"x_min":88,"x_max":668,"o":"m 379 -11 q 207 40 279 -11 q 107 182 135 92 q 88 353 88 246 q 107 522 88 460 q 206 663 133 611 q 381 714 278 714 q 551 663 479 714 q 649 524 622 611 q 668 353 668 464 q 649 182 668 240 q 551 40 622 92 q 379 -11 479 -11 m 379 75 q 493 112 446 75 q 557 211 540 149 q 569 351 569 261 q 558 492 569 443 q 494 591 542 554 q 378 628 446 628 q 263 591 310 628 q 199 492 215 554 q 188 351 188 443 q 199 211 188 260 q 262 112 214 149 q 379 75 310 75 m 226 794 q 217 799 219 794 q 217 811 214 804 l 294 963 q 311 972 299 972 l 375 972 q 386 967 383 972 q 385 956 389 963 l 301 804 q 285 794 297 794 l 226 794 m 454 794 q 442 799 446 794 q 443 811 439 804 l 525 963 q 542 972 529 972 l 601 972 q 613 967 610 972 q 611 956 615 963 l 526 804 q 510 794 519 794 l 454 794 z "},"ō":{"ha":744,"x_min":88,"x_max":668,"o":"m 379 -11 q 207 40 279 -11 q 107 182 135 92 q 88 353 88 246 q 107 522 88 460 q 206 663 133 611 q 381 714 278 714 q 551 663 479 714 q 649 524 622 611 q 668 353 668 464 q 649 182 668 240 q 551 40 622 92 q 379 -11 479 -11 m 379 75 q 493 112 446 75 q 557 211 540 149 q 569 351 569 261 q 558 492 569 443 q 494 591 542 554 q 378 628 446 628 q 263 591 310 628 q 199 492 215 554 q 188 351 188 443 q 199 211 188 260 q 262 112 214 149 q 379 75 310 75 m 200 825 q 186 839 186 825 l 186 882 q 200 896 186 896 l 546 896 q 560 882 560 896 l 560 839 q 546 825 560 825 l 200 825 z "},"ø":{"ha":733,"x_min":75,"x_max":660,"o":"m 642 524 q 660 353 660 463 q 642 182 660 242 q 542 40 614 92 q 371 -11 471 -11 q 207 35 275 -11 q 200 33 201 38 l 156 -32 q 136 -36 147 -44 l 86 3 q 82 22 75 11 l 135 99 q 135 107 138 103 q 100 182 113 139 q 81 353 81 246 q 99 522 81 464 q 197 663 125 611 q 372 714 269 714 q 521 676 457 714 q 528 678 526 674 l 572 743 q 592 747 581 756 l 642 708 q 646 689 653 700 l 597 618 q 597 610 596 614 q 642 524 624 576 m 194 200 q 199 197 196 197 q 203 199 201 197 l 471 594 q 468 601 474 600 q 369 628 424 628 q 254 591 301 628 q 192 492 207 554 q 179 351 179 446 q 192 211 179 257 l 194 200 m 549 211 q 561 351 561 254 q 550 492 561 451 q 539 521 547 501 q 532 521 538 526 l 257 117 q 258 110 254 111 q 371 75 306 75 q 485 112 438 75 q 549 211 533 149 z "},"ǿ":{"ha":733,"x_min":75,"x_max":660,"o":"m 642 524 q 660 353 660 463 q 642 182 660 242 q 542 40 614 92 q 371 -11 471 -11 q 207 35 275 -11 q 200 33 201 38 l 156 -32 q 136 -36 147 -44 l 86 3 q 82 22 75 11 l 135 99 q 135 107 138 103 q 100 182 113 139 q 81 353 81 246 q 99 522 81 464 q 197 663 125 611 q 372 714 269 714 q 521 676 457 714 q 528 678 526 674 l 572 743 q 592 747 581 756 l 642 708 q 646 689 653 700 l 597 618 q 597 610 596 614 q 642 524 624 576 m 194 200 q 199 197 196 197 q 203 199 201 197 l 471 594 q 468 601 474 600 q 369 628 424 628 q 254 591 301 628 q 192 492 207 554 q 179 351 179 446 q 192 211 179 257 l 194 200 m 549 211 q 561 351 561 254 q 550 492 561 451 q 539 521 547 501 q 532 521 538 526 l 257 117 q 258 110 254 111 q 371 75 306 75 q 485 112 438 75 q 549 211 533 149 m 322 794 q 311 799 314 794 q 313 811 308 804 l 396 963 q 413 972 400 972 l 475 972 q 485 967 483 972 q 483 956 488 963 l 389 804 q 372 794 382 794 l 322 794 z "},"õ":{"ha":744,"x_min":88,"x_max":668,"o":"m 379 -11 q 207 40 279 -11 q 107 182 135 92 q 88 353 88 246 q 107 522 88 460 q 206 663 133 611 q 381 714 278 714 q 551 663 479 714 q 649 524 622 611 q 668 353 668 464 q 649 182 668 240 q 551 40 622 92 q 379 -11 479 -11 m 379 75 q 493 112 446 75 q 557 211 540 149 q 569 351 569 261 q 558 492 569 443 q 494 591 542 554 q 378 628 446 628 q 263 591 310 628 q 199 492 215 554 q 188 351 188 443 q 199 211 188 260 q 262 112 214 149 q 379 75 310 75 m 460 838 q 414 846 433 838 q 374 868 394 854 q 335 889 349 883 q 304 894 321 894 q 262 887 279 894 q 228 860 244 879 q 208 857 219 847 l 183 882 q 181 901 174 892 q 300 969 226 969 q 340 963 322 969 q 372 948 357 956 q 390 938 386 940 q 410 926 396 935 q 437 914 425 918 q 460 910 449 910 q 533 949 506 910 q 553 951 542 963 l 578 928 q 579 907 588 918 q 527 856 560 874 q 460 838 494 838 z "},"œ":{"ha":1192,"x_min":89,"x_max":1108,"o":"m 844 74 q 947 102 900 74 q 1015 178 993 131 q 1033 183 1021 189 l 1079 156 q 1085 136 1090 149 q 985 28 1050 68 q 833 -11 919 -11 q 697 21 757 -11 q 603 110 638 53 q 594 110 599 114 q 498 22 558 54 q 365 -11 438 -11 q 198 41 268 -11 q 103 181 128 93 q 92 253 94 214 q 89 353 89 292 q 92 455 89 417 q 103 524 94 493 q 197 662 126 610 q 365 714 268 714 q 497 681 438 714 q 594 593 557 649 q 603 593 599 589 q 698 681 639 649 q 828 714 757 714 q 999 660 926 714 q 1094 522 1071 607 q 1106 454 1103 493 q 1108 338 1108 415 q 1094 322 1108 322 l 656 322 q 650 317 650 322 q 658 211 650 238 q 721 110 672 147 q 844 74 769 74 m 536 211 q 544 353 544 246 q 536 492 544 458 q 478 590 524 553 q 365 628 432 628 q 255 590 300 628 q 196 492 210 553 q 188 353 188 457 q 197 211 188 251 q 255 113 210 150 q 365 75 300 75 q 478 113 432 75 q 536 211 524 150 m 828 628 q 716 590 761 628 q 658 492 671 553 q 650 397 653 469 q 656 392 650 392 l 1003 392 q 1008 397 1008 392 q 1001 492 1006 472 q 941 590 988 553 q 828 628 894 628 z "},"p":{"ha":767,"x_min":121,"x_max":678,"o":"m 657 528 q 678 351 678 461 q 660 179 678 240 q 569 40 635 90 q 403 -11 503 -11 q 303 10 349 -11 q 226 72 257 32 q 222 74 224 75 q 219 71 219 74 l 219 -256 q 206 -269 219 -269 l 135 -269 q 121 -256 121 -269 l 121 689 q 135 703 121 703 l 206 703 q 219 689 219 703 l 219 631 q 222 627 219 628 q 226 629 224 626 q 302 692 257 669 q 403 714 347 714 q 566 664 500 714 q 657 528 632 614 m 547 176 q 570 245 563 207 q 578 351 578 283 q 572 453 578 417 q 553 519 567 490 q 494 599 536 569 q 393 628 451 628 q 300 599 338 628 q 244 521 263 569 q 226 456 232 493 q 221 351 221 418 q 226 247 221 285 q 246 179 232 208 q 301 103 263 132 q 392 75 339 75 q 488 103 447 75 q 547 176 529 131 z "},"þ":{"ha":750,"x_min":111,"x_max":661,"o":"m 646 529 q 658 454 656 494 q 661 350 661 414 q 659 249 661 285 q 649 182 657 213 q 560 42 628 94 q 400 -11 493 -11 q 291 14 338 -11 q 217 83 244 39 q 213 87 215 88 q 210 82 210 86 l 210 -264 q 196 -278 210 -278 l 125 -278 q 111 -264 111 -278 l 111 958 q 125 972 111 972 l 196 972 q 210 958 210 972 l 210 622 q 212 618 210 618 q 217 621 214 618 q 397 714 275 714 q 558 663 492 714 q 646 529 625 611 m 549 208 q 556 257 554 231 q 558 351 558 283 q 556 447 558 421 q 549 494 554 474 q 490 590 536 553 q 376 628 443 628 q 269 592 313 628 q 214 503 226 557 q 213 493 213 499 q 211 488 211 492 l 210 485 l 210 217 l 211 211 q 213 206 211 207 q 268 112 225 149 q 376 75 311 75 q 490 113 443 75 q 549 208 538 150 z "},"q":{"ha":767,"x_min":90,"x_max":646,"o":"m 547 689 q 561 703 547 703 l 632 703 q 646 689 646 703 l 646 -256 q 632 -269 646 -269 l 561 -269 q 547 -256 547 -269 l 547 71 q 545 74 547 74 q 540 72 543 75 q 464 10 510 32 q 364 -11 418 -11 q 199 40 265 -11 q 107 179 132 90 q 90 351 90 236 q 110 528 90 465 q 201 664 135 614 q 364 714 267 714 q 465 692 419 714 q 540 629 510 669 q 545 627 543 626 q 547 631 547 628 l 547 689 m 521 179 q 540 247 535 208 q 546 351 546 285 q 540 456 546 418 q 522 521 535 493 q 467 599 504 569 q 374 628 429 628 q 273 599 315 628 q 214 519 231 569 q 194 453 200 490 q 189 351 189 417 q 197 245 189 283 q 221 176 204 207 q 279 103 239 131 q 375 75 319 75 q 466 103 428 75 q 521 179 504 132 z "},"r":{"ha":506,"x_min":111,"x_max":485,"o":"m 394 710 q 474 692 440 710 q 482 674 485 686 l 467 606 q 449 597 463 592 q 394 607 425 607 l 376 606 q 257 552 304 603 q 210 424 210 501 l 210 14 q 196 0 210 0 l 125 0 q 111 14 111 0 l 111 689 q 125 703 111 703 l 196 703 q 210 689 210 703 l 210 604 q 212 599 210 600 q 215 601 214 599 q 290 681 244 653 q 394 710 335 710 z "},"ŕ":{"ha":506,"x_min":111,"x_max":485,"o":"m 394 710 q 474 692 440 710 q 482 674 485 686 l 467 606 q 449 597 463 592 q 394 607 425 607 l 376 606 q 257 552 304 603 q 210 424 210 501 l 210 14 q 196 0 210 0 l 125 0 q 111 14 111 0 l 111 689 q 125 703 111 703 l 196 703 q 210 689 210 703 l 210 604 q 212 599 210 600 q 215 601 214 599 q 290 681 244 653 q 394 710 335 710 m 254 794 q 243 799 246 794 q 244 811 240 804 l 328 963 q 344 972 332 972 l 407 972 q 417 967 415 972 q 415 956 419 963 l 321 804 q 304 794 314 794 l 254 794 z "},"ř":{"ha":506,"x_min":111,"x_max":485,"o":"m 394 710 q 474 692 440 710 q 482 674 485 686 l 467 606 q 449 597 463 592 q 394 607 425 607 l 376 606 q 257 552 304 603 q 210 424 210 501 l 210 14 q 196 0 210 0 l 125 0 q 111 14 111 0 l 111 689 q 125 703 111 703 l 196 703 q 210 689 210 703 l 210 604 q 212 599 210 600 q 215 601 214 599 q 290 681 244 653 q 394 710 335 710 m 133 956 q 131 964 131 958 q 133 969 131 967 q 142 972 136 972 l 197 972 q 215 964 210 972 l 300 850 q 304 849 301 849 q 308 850 307 849 l 392 964 q 410 972 397 972 l 465 972 q 476 967 474 972 q 474 956 479 963 l 361 806 q 343 797 356 797 l 263 797 q 244 806 250 797 l 133 956 z "},"s":{"ha":668,"x_min":78,"x_max":600,"o":"m 342 -7 q 203 18 264 -7 q 110 85 143 43 q 78 178 78 126 l 78 194 q 92 208 78 208 l 158 208 q 172 194 172 208 l 172 183 q 220 103 172 138 q 340 69 268 69 q 457 102 413 69 q 501 185 501 135 q 478 242 501 219 q 424 276 456 264 q 328 308 393 289 q 200 353 250 331 q 116 415 150 375 q 82 515 82 454 q 151 657 82 604 q 335 710 221 710 q 470 685 411 710 q 561 616 529 660 q 593 518 593 572 l 593 514 q 579 500 593 500 l 514 500 q 500 514 500 500 l 500 518 q 455 597 500 565 q 333 629 410 629 q 219 601 263 629 q 176 522 176 572 q 218 450 176 475 q 347 400 260 425 q 478 356 428 376 q 564 295 528 335 q 600 192 600 256 q 529 47 600 101 q 342 -7 458 -7 z "},"ś":{"ha":672,"x_min":78,"x_max":600,"o":"m 342 -7 q 203 18 264 -7 q 110 85 143 43 q 78 178 78 126 l 78 194 q 92 208 78 208 l 158 208 q 172 194 172 208 l 172 183 q 220 103 172 138 q 340 69 268 69 q 457 102 413 69 q 501 185 501 135 q 478 242 501 219 q 424 276 456 264 q 328 308 393 289 q 200 353 250 331 q 116 415 150 375 q 82 515 82 454 q 151 657 82 604 q 335 710 221 710 q 470 685 411 710 q 561 616 529 660 q 593 518 593 572 l 593 514 q 579 500 593 500 l 514 500 q 500 514 500 500 l 500 518 q 455 597 500 565 q 333 629 410 629 q 219 601 263 629 q 176 522 176 572 q 218 450 176 475 q 347 400 260 425 q 478 356 428 376 q 564 295 528 335 q 600 192 600 256 q 529 47 600 101 q 342 -7 458 -7 m 292 794 q 281 799 283 794 q 282 811 278 804 l 365 963 q 382 972 369 972 l 444 972 q 455 967 453 972 q 453 956 457 963 l 358 804 q 342 794 351 794 l 292 794 z "},"š":{"ha":672,"x_min":78,"x_max":600,"o":"m 342 -7 q 203 18 264 -7 q 110 85 143 43 q 78 178 78 126 l 78 194 q 92 208 78 208 l 158 208 q 172 194 172 208 l 172 183 q 220 103 172 138 q 340 69 268 69 q 457 102 413 69 q 501 185 501 135 q 478 242 501 219 q 424 276 456 264 q 328 308 393 289 q 200 353 250 331 q 116 415 150 375 q 82 515 82 454 q 151 657 82 604 q 335 710 221 710 q 470 685 411 710 q 561 616 529 660 q 593 518 593 572 l 593 514 q 579 500 593 500 l 514 500 q 500 514 500 500 l 500 518 q 455 597 500 565 q 333 629 410 629 q 219 601 263 629 q 176 522 176 572 q 218 450 176 475 q 347 400 260 425 q 478 356 428 376 q 564 295 528 335 q 600 192 600 256 q 529 47 600 101 q 342 -7 458 -7 m 171 956 q 168 964 168 958 q 171 969 168 967 q 179 972 174 972 l 235 972 q 253 964 247 972 l 338 850 q 342 849 339 849 q 346 850 344 849 l 429 964 q 447 972 435 972 l 503 972 q 514 967 511 972 q 511 956 517 963 l 399 806 q 381 797 393 797 l 300 797 q 282 806 288 797 l 171 956 z "},"ş":{"ha":672,"x_min":78,"x_max":600,"o":"m 600 192 q 543 60 600 113 q 390 -4 486 7 q 388 -11 381 -7 q 458 -139 458 -72 q 454 -171 458 -157 q 410 -235 443 -215 q 332 -254 376 -254 q 275 -247 303 -254 q 265 -231 264 -243 l 271 -199 q 277 -190 272 -192 q 288 -189 282 -187 q 319 -193 304 -193 q 367 -177 349 -193 q 386 -128 386 -161 q 365 -67 386 -97 q 310 -8 344 -36 q 303 -6 308 -6 q 140 56 201 4 q 78 178 78 107 l 78 194 q 92 208 78 208 l 158 208 q 172 194 172 208 l 172 183 q 220 103 172 138 q 340 69 268 69 q 457 102 413 69 q 501 185 501 135 q 478 242 501 219 q 424 276 456 264 q 328 308 393 289 q 200 353 250 331 q 116 415 150 375 q 82 515 82 454 q 151 657 82 604 q 335 710 221 710 q 470 685 411 710 q 561 616 529 660 q 593 518 593 572 l 593 514 q 579 500 593 500 l 514 500 q 500 514 500 500 l 500 518 q 455 597 500 565 q 333 629 410 629 q 219 601 263 629 q 176 522 176 572 q 218 450 176 475 q 347 400 260 425 q 478 356 428 376 q 564 295 528 335 q 600 192 600 256 z "},"ŝ":{"ha":672,"x_min":78,"x_max":600,"o":"m 342 -7 q 203 18 264 -7 q 110 85 143 43 q 78 178 78 126 l 78 194 q 92 208 78 208 l 158 208 q 172 194 172 208 l 172 183 q 220 103 172 138 q 340 69 268 69 q 457 102 413 69 q 501 185 501 135 q 478 242 501 219 q 424 276 456 264 q 328 308 393 289 q 200 353 250 331 q 116 415 150 375 q 82 515 82 454 q 151 657 82 604 q 335 710 221 710 q 470 685 411 710 q 561 616 529 660 q 593 518 593 572 l 593 514 q 579 500 593 500 l 514 500 q 500 514 500 500 l 500 518 q 455 597 500 565 q 333 629 410 629 q 219 601 263 629 q 176 522 176 572 q 218 450 176 475 q 347 400 260 425 q 478 356 428 376 q 564 295 528 335 q 600 192 600 256 q 529 47 600 101 q 342 -7 458 -7 m 175 797 q 164 802 167 797 q 167 814 161 807 l 278 964 q 296 972 283 972 l 376 972 q 394 964 389 972 l 507 814 q 510 806 510 811 q 507 800 510 803 q 499 797 504 797 l 443 797 q 425 806 431 797 l 342 919 q 338 922 340 922 q 333 919 335 922 l 249 806 q 231 797 243 797 l 175 797 z "},"ß":{"ha":774,"x_min":111,"x_max":686,"o":"m 125 0 q 111 14 111 0 l 111 708 q 188 911 113 838 q 393 985 263 985 q 598 915 521 985 q 675 725 675 844 q 644 599 675 651 q 553 521 613 547 q 550 518 550 519 q 553 515 550 517 q 651 425 615 489 q 686 274 686 361 q 606 72 686 144 q 381 0 526 0 l 294 0 q 281 14 281 0 l 281 71 q 294 85 281 85 l 389 85 q 535 136 482 85 q 588 282 588 188 q 540 425 588 374 q 408 478 492 476 l 326 478 q 313 492 313 478 l 313 543 q 326 557 313 557 l 407 557 q 532 600 488 557 q 576 719 576 643 q 529 851 576 803 q 396 899 482 899 q 263 850 314 899 q 210 715 211 801 l 210 14 q 196 0 210 0 l 125 0 z "},"t":{"ha":506,"x_min":50,"x_max":426,"o":"m 426 635 q 413 621 426 621 l 256 621 q 250 615 250 621 l 250 206 q 280 112 250 139 q 374 85 310 85 l 408 85 q 422 71 422 85 l 422 14 q 408 0 422 0 q 357 -1 392 -1 q 206 36 257 -1 q 154 175 154 74 l 154 615 q 149 621 154 621 l 64 621 q 50 635 50 621 l 50 689 q 64 703 50 703 l 149 703 q 154 708 154 703 l 154 869 q 168 883 154 883 l 236 883 q 250 869 250 883 l 250 708 q 256 703 250 703 l 413 703 q 426 689 426 703 l 426 635 z "},"ŧ":{"ha":506,"x_min":50,"x_max":426,"o":"m 426 635 q 413 621 426 621 l 256 621 q 250 615 250 621 l 250 489 q 256 483 250 483 l 408 483 q 422 469 422 483 l 422 432 q 408 418 422 418 l 256 418 q 250 413 250 418 l 250 206 q 280 112 250 139 q 374 85 310 85 l 408 85 q 422 71 422 85 l 422 14 q 408 0 422 0 q 357 -1 392 -1 q 206 36 257 -1 q 154 175 154 74 l 154 413 q 149 418 154 418 l 72 418 q 58 432 58 418 l 58 469 q 72 483 58 483 l 149 483 q 154 489 154 483 l 154 615 q 149 621 154 621 l 64 621 q 50 635 50 621 l 50 689 q 64 703 50 703 l 149 703 q 154 708 154 703 l 154 869 q 168 883 154 883 l 236 883 q 250 869 250 883 l 250 708 q 256 703 250 703 l 413 703 q 426 689 426 703 l 426 635 z "},"ť":{"ha":506,"x_min":50,"x_max":506,"o":"m 426 635 q 413 621 426 621 l 256 621 q 250 615 250 621 l 250 206 q 280 112 250 139 q 374 85 310 85 l 408 85 q 422 71 422 85 l 422 14 q 408 0 422 0 q 357 -1 392 -1 q 206 36 257 -1 q 154 175 154 74 l 154 615 q 149 621 154 621 l 64 621 q 50 635 50 621 l 50 689 q 64 703 50 703 l 149 703 q 154 708 154 703 l 154 869 q 168 883 154 883 l 236 883 q 250 869 250 883 l 250 708 q 256 703 250 703 l 413 703 q 426 689 426 703 l 426 635 z "},"u":{"ha":744,"x_min":100,"x_max":635,"o":"m 536 689 q 550 703 536 703 l 621 703 q 635 689 635 703 l 635 14 q 621 0 635 0 l 550 0 q 536 14 536 0 l 536 74 q 533 78 536 76 q 529 76 531 79 q 344 -10 471 -10 q 222 17 278 -10 q 133 96 165 44 q 100 219 100 147 l 100 689 q 114 703 100 703 l 185 703 q 199 689 199 703 l 199 249 q 243 123 199 169 q 364 76 288 76 q 490 124 443 76 q 536 249 536 171 l 536 689 z "},"ú":{"ha":749,"x_min":100,"x_max":635,"o":"m 536 689 q 550 703 536 703 l 621 703 q 635 689 635 703 l 635 14 q 621 0 635 0 l 550 0 q 536 14 536 0 l 536 74 q 533 78 536 76 q 529 76 531 79 q 344 -10 471 -10 q 222 17 278 -10 q 133 96 165 44 q 100 219 100 147 l 100 689 q 114 703 100 703 l 185 703 q 199 689 199 703 l 199 249 q 243 123 199 169 q 364 76 288 76 q 490 124 443 76 q 536 249 536 171 l 536 689 m 328 794 q 317 799 319 794 q 318 811 314 804 l 401 963 q 418 972 406 972 l 481 972 q 491 967 489 972 q 489 956 493 963 l 394 804 q 378 794 388 794 l 328 794 z "}}}
